SplineFontDB: 3.0
FontName: .SFNSDisplay-Bold
FullName: .SF NS Display Bold
FamilyName: SF NS Display
Weight: Bold
Copyright: (c) 2014 Apple Inc. All rights reserved.
Version: 1.0
ItalicAngle: 0
UnderlinePosition: -75
UnderlineWidth: 50
Ascent: 1638
Descent: 410
InvalidEm: 0
sfntRevision: 0x00010000
LayerCount: 2
Layer: 0 0 "+BBcEMAQ0BD0EOAQ5 +BD8EOwQwBD0A" 1
Layer: 1 0 "+BB8ENQRABDUENAQ9BDgEOQAA +BD8EOwQwBD0A" 0
XUID: [1021 387 1340633646 11211261]
BaseHoriz: 4 'hang' 'ideo' 'math' 'romn'
BaseScript: 'thai' 3  0 -216 0 0
BaseScript: 'cyrl' 3  0 -216 0 0
BaseScript: 'grek' 3  0 -216 0 0
BaseScript: 'latn' 3  0 -216 0 0
StyleMap: 0x0000
FSType: 0
OS2Version: 3
OS2_WeightWidthSlopeOnly: 0
OS2_UseTypoMetrics: 0
CreationTime: 1432154333
ModificationTime: 1482947674
PfmFamily: 81
TTFWeight: 700
TTFWidth: 5
LineGap: 0
VLineGap: 0
Panose: 0 0 8 0 0 0 0 0 0 0
OS2TypoAscent: 1980
OS2TypoAOffset: 0
OS2TypoDescent: -432
OS2TypoDOffset: 0
OS2TypoLinegap: 0
OS2WinAscent: 1980
OS2WinAOffset: 0
OS2WinDescent: 432
OS2WinDOffset: 0
HheadAscent: 1980
HheadAOffset: 0
HheadDescent: -432
HheadDOffset: 0
OS2SubXSize: 1331
OS2SubYSize: 1228
OS2SubXOff: 0
OS2SubYOff: 153
OS2SupXSize: 1331
OS2SupYSize: 1228
OS2SupXOff: 0
OS2SupYOff: 716
OS2StrikeYSize: 50
OS2StrikeYPos: 660
OS2CapHeight: 1443
OS2XHeight: 1101
OS2Vendor: 'UKWN'
OS2CodePages: 2000019f.00000000
OS2UnicodeRanges: 2000028f.00000003.00000000.00000000
Lookup: 1 0 0 "'locl' Localized Forms in Latin lookup 0" { "'locl' Localized Forms in Latin lookup 0 subtable"  } ['locl' ('latn' <'MOL ' 'ROM ' > ) ]
Lookup: 1 0 0 "'locl' Localized Forms in Latin lookup 1" { "'locl' Localized Forms in Latin lookup 1 subtable"  } ['locl' ('latn' <'AZE ' 'CRT ' 'TRK ' > ) ]
Lookup: 4 0 0 "'locl' Localized Forms in Latin lookup 2" { "'locl' Localized Forms in Latin lookup 2 subtable"  } ['locl' ('latn' <'NLD ' > ) ]

StartChar: .notdef
Encoding: 65536 -1 0
Width: 1293
Flags: MW
HStem: 0 206<585.5 658 585.5 1173> 421 110<585 658> 1167 198<548 732.5>
VStem: 120 219<888 888 888 1365> 508 245<888 888> 939 234<873 992.5>
LayerCount: 2
Fore
SplineSet
120 0 m 1
 120 1365 l 1
 1173 1365 l 1
 1173 0 l 1
 120 0 l 1
501 313 m 0
 501 250 550 206 621 206 c 0
 695 206 743 249 743 313 c 0
 743 378 695 421 621 421 c 0
 549 421 501 377 501 313 c 0
339 888 m 1
 508 888 l 1
 509 967 557 1018 633 1018 c 0
 705 1018 753 975 753 908 c 0
 753 857 733 830 650 770 c 0
 558 705 525 641 532 549 c 2
 533 531 l 1
 699 531 l 1
 699 546 l 2
 699 610 714 633 806 699 c 0
 903 769 939 829 939 917 c 0
 939 1068 822 1167 643 1167 c 0
 453 1167 333 1058 339 888 c 1
EndSplineSet
EndChar

StartChar: A
Encoding: 65 65 4
Width: 1413
Flags: MW
HStem: 0 21G<28 338 28 28 1065 1386 1065 1065> 350 226<513 890 513 955 448 890> 1167 276<698 698 698 705> 1423 20G<529 884 884 884>
VStem: 28 1358<0 0>
LayerCount: 2
Fore
SplineSet
1065 0 m 1xd8
 955 350 l 1
 448 350 l 1
 338 0 l 1
 28 0 l 1
 529 1443 l 1
 884 1443 l 1
 1386 0 l 1
 1065 0 l 1xd8
698 1167 m 1xe8
 513 576 l 1
 890 576 l 1
 705 1167 l 1
 698 1167 l 1xe8
EndSplineSet
EndChar

StartChar: Agrave
Encoding: 192 192 5
Width: 1413
Flags: MW
HStem: 0 21G<28 338 28 28 1065 1386 1065 1065> 350 226<513 890 513 955 448 890> 1167 276<698 698 698 705> 1423 20G<529 884 884 884> 1558 310<319 597 319 824>
VStem: 28 1358<0 0>
LayerCount: 2
Fore
SplineSet
1065 0 m 1xd4
 955 350 l 1
 448 350 l 1
 338 0 l 1
 28 0 l 1
 529 1443 l 1
 884 1443 l 1
 1386 0 l 1
 1065 0 l 1xd4
698 1167 m 1xec
 513 576 l 1
 890 576 l 1
 705 1167 l 1
 698 1167 l 1xec
597 1558 m 1
 319 1868 l 1
 592 1868 l 1
 824 1558 l 1
 597 1558 l 1
EndSplineSet
EndChar

StartChar: Aacute
Encoding: 193 193 6
Width: 1413
Flags: MW
HStem: 0 21G<28 338 28 28 1065 1386 1065 1065> 350 226<513 890 513 955 448 890> 1167 276<698 698 698 705> 1423 20G<529 884 884 884> 1553 310<588 1093 588 1093>
VStem: 28 1358<0 0>
LayerCount: 2
Fore
SplineSet
1065 0 m 1xd4
 955 350 l 1
 448 350 l 1
 338 0 l 1
 28 0 l 1
 529 1443 l 1
 884 1443 l 1
 1386 0 l 1
 1065 0 l 1xd4
698 1167 m 1xec
 513 576 l 1
 890 576 l 1
 705 1167 l 1
 698 1167 l 1xec
816 1553 m 1
 588 1553 l 1
 820 1863 l 1
 1093 1863 l 1
 816 1553 l 1
EndSplineSet
EndChar

StartChar: Adieresis
Encoding: 196 196 7
Width: 1413
Flags: MW
HStem: 0 21G<28 338 28 28 1065 1386 1065 1065> 350 226<513 890 513 955 448 890> 1167 276<698 698 698 705> 1423 20G<529 884 884 884> 1561 262<459.5 536.5 878.5 955.5>
VStem: 28 605 782 604
LayerCount: 2
Fore
SplineSet
1065 0 m 1xd6
 955 350 l 1
 448 350 l 1
 338 0 l 1
 28 0 l 1
 529 1443 l 1
 884 1443 l 1
 1386 0 l 1
 1065 0 l 1xd6
698 1167 m 1xee
 513 576 l 1
 890 576 l 1
 705 1167 l 1
 698 1167 l 1xee
498 1561 m 0
 421 1561 363 1620 363 1692 c 0
 363 1764 421 1823 498 1823 c 0
 575 1823 633 1764 633 1692 c 0
 633 1620 575 1561 498 1561 c 0
917 1561 m 0
 840 1561 782 1620 782 1692 c 0
 782 1764 840 1823 917 1823 c 0
 994 1823 1052 1764 1052 1692 c 0
 1052 1620 994 1561 917 1561 c 0
EndSplineSet
EndChar

StartChar: Adieresismacron
Encoding: 478 478 8
Width: 1413
Flags: MW
HStem: 0 21G<28 338 28 28 1065 1386 1065 1065> 350 226<513 890 513 955 448 890> 1167 276<698 698 698 705> 1423 20G<529 884 884 884> 1564 249<466 539 875 948> 1930 143<361 1053 361 1053>
VStem: 28 603 783 603
LayerCount: 2
Fore
SplineSet
1065 0 m 1xd7
 955 350 l 1
 448 350 l 1
 338 0 l 1
 28 0 l 1
 529 1443 l 1
 884 1443 l 1
 1386 0 l 1
 1065 0 l 1xd7
698 1167 m 1xef
 513 576 l 1
 890 576 l 1
 705 1167 l 1
 698 1167 l 1xef
503 1813 m 0
 575 1813 631 1757 631 1689 c 0
 631 1620 575 1564 503 1564 c 0
 429 1564 374 1620 374 1689 c 0
 374 1757 429 1813 503 1813 c 0
361 2073 m 1
 1053 2073 l 1
 1053 1930 l 1
 361 1930 l 1
 361 2073 l 1
911 1813 m 0
 985 1813 1040 1757 1040 1689 c 0
 1040 1620 985 1564 911 1564 c 0
 839 1564 783 1620 783 1689 c 0
 783 1757 839 1813 911 1813 c 0
EndSplineSet
EndChar

StartChar: Aring
Encoding: 197 197 9
Width: 1413
Flags: MW
HStem: 0 21G<28 338 28 28 1065 1386 1065 1065> 350 226<513 890 513 955 448 890> 1167 276<698 698 698 705> 1423 20G<529 884 884 884> 1513 117<679.5 735 679.5 767.5> 1831 116<679.5 735>
VStem: 486 119<1702.5 1757.5 1702.5 1789.5> 809 119<1702.5 1757.5>
LayerCount: 2
Fore
SplineSet
1065 0 m 1xdf
 955 350 l 1
 448 350 l 1
 338 0 l 1
 28 0 l 1
 529 1443 l 1
 884 1443 l 1
 1386 0 l 1
 1065 0 l 1xdf
698 1167 m 1xef
 513 576 l 1
 890 576 l 1
 705 1167 l 1
 698 1167 l 1xef
707 1513 m 0
 587 1513 486 1611 486 1730 c 0
 486 1849 587 1947 707 1947 c 0
 828 1947 928 1849 928 1730 c 0
 928 1611 828 1513 707 1513 c 0
707 1630 m 0
 763 1630 809 1675 809 1730 c 0
 809 1785 763 1831 707 1831 c 0
 652 1831 605 1785 605 1730 c 0
 605 1675 652 1630 707 1630 c 0
EndSplineSet
EndChar

StartChar: Aringacute
Encoding: 506 506 10
Width: 1413
Flags: MW
HStem: 0 21G<28 338 28 28 1065 1386 1065 1065> 350 226<513 890 513 955 448 890> 1167 276<698 698 698 705> 1423 20G<529 884 884 884> 1497 109<680.5 733.5 680.5 765.5> 1792 109<680.5 733.5> 1955 193<729 808 611 978>
VStem: 500 113<1673 1725.5 1673 1756> 801 112<1673 1725.5>
LayerCount: 2
Fore
SplineSet
1065 0 m 1xdf80
 955 350 l 1
 448 350 l 1
 338 0 l 1
 28 0 l 1
 529 1443 l 1
 884 1443 l 1
 1386 0 l 1
 1065 0 l 1xdf80
698 1167 m 1xef80
 513 576 l 1
 890 576 l 1
 705 1167 l 1
 698 1167 l 1xef80
707 1497 m 0
 590 1497 500 1585 500 1699 c 0
 500 1813 590 1901 707 1901 c 0
 824 1901 913 1814 913 1699 c 0
 913 1585 824 1497 707 1497 c 0
707 1606 m 0
 760 1606 801 1647 801 1699 c 0
 801 1752 760 1792 707 1792 c 0
 654 1792 613 1752 613 1699 c 0
 613 1647 654 1606 707 1606 c 0
729 2148 m 1
 978 2148 l 1
 808 1955 l 1
 611 1955 l 1
 729 2148 l 1
EndSplineSet
EndChar

StartChar: Atilde
Encoding: 195 195 11
Width: 1413
Flags: MW
HStem: 0 21G<28 338 28 28 1065 1386 1065 1065> 350 226<513 890 513 955 448 890> 1167 276<698 698 698 705> 1423 20G<529 884 884 884> 1541 153<802 859.5 802 907.5> 1677 152<566.5 626>
VStem: 362 158<1558 1644> 903 158<1731 1816>
LayerCount: 2
Fore
SplineSet
1065 0 m 1xd3
 955 350 l 1
 448 350 l 1
 338 0 l 1
 28 0 l 1
 529 1443 l 1
 884 1443 l 1
 1386 0 l 1
 1065 0 l 1xd3
698 1167 m 1xeb
 513 576 l 1
 890 576 l 1
 705 1167 l 1
 698 1167 l 1xeb
847 1541 m 0
 710 1541 663 1677 589 1677 c 0
 544 1677 521 1628 520 1558 c 1
 362 1558 l 1
 362 1730 454 1829 577 1829 c 0xd7
 719 1829 766 1694 838 1694 c 0
 881 1694 902 1739 903 1816 c 1
 1061 1816 l 1
 1061 1646 968 1541 847 1541 c 0
EndSplineSet
EndChar

StartChar: Abrevegrave
Encoding: 7856 7856 12
Width: 1413
Flags: MW
HStem: 0 21G<28 338 28 28 1065 1386 1065 1065> 350 226<513 890 513 955 448 890> 1167 276<698 698 698 705> 1423 20G<529 884 884 884> 1556 147<656 758 656 817.5> 1887 243<633 650 396 844 633 633>
VStem: 28 1358<0 0>
LayerCount: 2
Fore
SplineSet
1065 0 m 1xde
 955 350 l 1
 448 350 l 1
 338 0 l 1
 28 0 l 1
 529 1443 l 1
 884 1443 l 1
 1386 0 l 1
 1065 0 l 1xde
698 1167 m 1xee
 513 576 l 1
 890 576 l 1
 705 1167 l 1
 698 1167 l 1xee
1063 1850 m 1
 1062 1687 928 1556 707 1556 c 0
 486 1556 352 1687 351 1850 c 1
 534 1850 l 1
 536 1769 605 1703 707 1703 c 0
 809 1703 878 1769 880 1850 c 1
 1063 1850 l 1
844 1887 m 1
 633 1887 l 1
 396 2130 l 1
 650 2130 l 1
 844 1887 l 1
EndSplineSet
EndChar

StartChar: Adotmacron
Encoding: 480 480 13
Width: 1413
Flags: MW
HStem: 0 21G<28 338 28 28 1065 1386 1065 1065> 350 226<513 890 513 955 448 890> 1167 276<698 698 698 705> 1423 20G<529 884 884 884> 1555 266<667.5 746.5> 1930 143<361 1053 361 1053>
VStem: 569 276<1652 1725.5>
LayerCount: 2
Fore
SplineSet
1065 0 m 1xd6
 955 350 l 1
 448 350 l 1
 338 0 l 1
 28 0 l 1
 529 1443 l 1
 884 1443 l 1
 1386 0 l 1
 1065 0 l 1xd6
698 1167 m 1xee
 513 576 l 1
 890 576 l 1
 705 1167 l 1
 698 1167 l 1xee
707 1555 m 0
 628 1555 569 1615 569 1689 c 0
 569 1762 628 1821 707 1821 c 0
 786 1821 845 1762 845 1689 c 0
 845 1615 786 1555 707 1555 c 0
1053 2073 m 1
 1053 1930 l 1
 361 1930 l 1
 361 2073 l 1
 1053 2073 l 1
EndSplineSet
EndChar

StartChar: Aringbelow
Encoding: 7680 7680 14
Width: 1413
Flags: MW
HStem: -580 117<679.5 735 679.5 767.5> -262 116<679.5 735> 0 21G<28 338 28 28 1065 1386 1065 1065> 350 226<513 890 513 955 448 890> 1167 276<698 698 698 705> 1423 20G<529 884 884 884>
VStem: 486 398 529 399
LayerCount: 2
Fore
SplineSet
1065 0 m 1xf6
 955 350 l 1
 448 350 l 1
 338 0 l 1
 28 0 l 1
 529 1443 l 1xf5
 884 1443 l 1
 1386 0 l 1
 1065 0 l 1xf6
698 1167 m 1xf9
 513 576 l 1
 890 576 l 1
 705 1167 l 1
 698 1167 l 1xf9
707 -580 m 0xf6
 587 -580 486 -482 486 -363 c 0xf6
 486 -244 587 -146 707 -146 c 0
 828 -146 928 -244 928 -363 c 0xf5
 928 -482 828 -580 707 -580 c 0xf6
707 -463 m 0
 763 -463 809 -418 809 -363 c 0xf6
 809 -308 763 -262 707 -262 c 0
 652 -262 605 -308 605 -363 c 0xf5
 605 -418 652 -463 707 -463 c 0
EndSplineSet
EndChar

StartChar: Acircumflex
Encoding: 194 194 15
Width: 1413
Flags: MW
HStem: 0 21G<28 338 28 28 1065 1386 1065 1065> 350 226<513 890 513 955 448 890> 1167 276<698 698 698 705> 1423 20G<529 884 884 884> 1543 318<319 821 319 821 593 1095 593 873>
VStem: 28 1358<0 0>
LayerCount: 2
Fore
SplineSet
1065 0 m 1xdc
 955 350 l 1
 448 350 l 1
 338 0 l 1
 28 0 l 1
 529 1443 l 1
 884 1443 l 1
 1386 0 l 1
 1065 0 l 1xdc
698 1167 m 1xec
 513 576 l 1
 890 576 l 1
 705 1167 l 1
 698 1167 l 1xec
593 1861 m 1
 821 1861 l 1
 1095 1543 l 1
 873 1543 l 1
 710 1740 l 1
 704 1740 l 1
 541 1543 l 1
 319 1543 l 1
 593 1861 l 1
EndSplineSet
EndChar

StartChar: Acircumflexdotbelow
Encoding: 7852 7852 16
Width: 1413
Flags: MW
HStem: -458 297<665 749> 0 21G<28 338 28 28 1065 1386 1065 1065> 350 226<513 890 513 955 448 890> 1167 276<698 698 698 705> 1423 20G<529 884 884 884> 1543 318<319 821 319 821 593 1095 593 873>
VStem: 529 327 558 146
LayerCount: 2
Fore
SplineSet
1065 0 m 1xee
 955 350 l 1
 448 350 l 1
 338 0 l 1
 28 0 l 1
 529 1443 l 1xee
 884 1443 l 1xed
 1386 0 l 1
 1065 0 l 1xee
698 1167 m 1xf6
 513 576 l 1
 890 576 l 1
 705 1167 l 1
 698 1167 l 1xf6
707 -458 m 0xed
 623 -458 558 -391 558 -309 c 0xed
 558 -227 623 -161 707 -161 c 0
 791 -161 856 -227 856 -309 c 0xee
 856 -391 791 -458 707 -458 c 0xed
593 1861 m 1xee
 821 1861 l 1xed
 1095 1543 l 1
 873 1543 l 1
 710 1740 l 1
 704 1740 l 1
 541 1543 l 1
 319 1543 l 1
 593 1861 l 1xee
EndSplineSet
EndChar

StartChar: Acircumflexacute
Encoding: 7844 7844 17
Width: 1413
Flags: MW
HStem: 0 21G<28 338 28 28 1065 1386 1065 1065> 350 226<513 890 513 955 448 890> 1167 276<698 698 698 705> 1423 20G<529 884 884 884> 1556 264<331 825 331 825 592 1086 592 854> 1887 243<794 1242 987 1005>
VStem: 28 1358<0 0>
LayerCount: 2
Fore
SplineSet
1065 0 m 1xde
 955 350 l 1
 448 350 l 1
 338 0 l 1
 28 0 l 1
 529 1443 l 1
 884 1443 l 1
 1386 0 l 1
 1065 0 l 1xde
698 1167 m 1xee
 513 576 l 1
 890 576 l 1
 705 1167 l 1
 698 1167 l 1xee
592 1820 m 1
 825 1820 l 1
 1086 1556 l 1
 854 1556 l 1
 715 1705 l 1
 703 1705 l 1
 563 1556 l 1
 331 1556 l 1
 592 1820 l 1
794 1887 m 1
 987 2130 l 1
 1242 2130 l 1
 1005 1887 l 1
 794 1887 l 1
EndSplineSet
EndChar

StartChar: Acircumflextilde
Encoding: 7850 7850 18
Width: 1413
Flags: MW
HStem: 0 21G<28 338 28 28 1065 1386 1065 1065> 350 226<513 890 513 955 448 890> 1167 276<698 698 698 705> 1423 20G<529 884 884 884> 1556 255<330 823 591 1084 591 853> 1873 147<794 852.5 794 902> 2001 146<566 629>
VStem: 363 155<1891 1972.5> 901 485 955 100
LayerCount: 2
Fore
SplineSet
1065 0 m 1xdb40
 955 350 l 1xed40
 448 350 l 1
 338 0 l 1
 28 0 l 1
 529 1443 l 1
 884 1443 l 1
 1386 0 l 1xdb80
 1065 0 l 1xdb40
698 1167 m 1
 513 576 l 1
 890 576 l 1
 705 1167 l 1
 698 1167 l 1
841 1873 m 0
 698 1873 668 2001 590 2001 c 0
 542 2001 521 1960 518 1891 c 1
 363 1891 l 1xdb40
 363 2054 454 2147 579 2147 c 0
 724 2147 759 2020 829 2020 c 0
 876 2020 897 2060 901 2132 c 1xdd80
 1055 2132 l 1
 1055 1972 963 1873 841 1873 c 0
591 1811 m 1xdb40
 823 1811 l 1
 1084 1556 l 1
 853 1556 l 1
 713 1696 l 1
 701 1696 l 1
 561 1556 l 1
 330 1556 l 1
 591 1811 l 1xdb40
EndSplineSet
EndChar

StartChar: Acircumflexgrave
Encoding: 7846 7846 19
Width: 1413
Flags: MW
HStem: 0 21G<28 338 28 28 1065 1386 1065 1065> 350 226<513 890 513 955 448 890> 1167 276<698 698 698 705> 1423 20G<529 884 884 884> 1556 264<330 823 330 823 591 1084 591 853> 1887 243<840 857 602 1051 840 840>
VStem: 28 1358<0 0>
LayerCount: 2
Fore
SplineSet
1065 0 m 1xde
 955 350 l 1
 448 350 l 1
 338 0 l 1
 28 0 l 1
 529 1443 l 1
 884 1443 l 1
 1386 0 l 1
 1065 0 l 1xde
698 1167 m 1xee
 513 576 l 1
 890 576 l 1
 705 1167 l 1
 698 1167 l 1xee
591 1820 m 1
 823 1820 l 1
 1084 1556 l 1
 853 1556 l 1
 713 1705 l 1
 701 1705 l 1
 561 1556 l 1
 330 1556 l 1
 591 1820 l 1
1051 1887 m 1
 840 1887 l 1
 602 2130 l 1
 857 2130 l 1
 1051 1887 l 1
EndSplineSet
EndChar

StartChar: Acircumflexhookabove
Encoding: 7848 7848 20
Width: 1413
Flags: MW
HStem: 0 21G<28 338 28 28 1065 1386 1065 1065> 350 226<513 890 513 955 448 890> 1167 276<698 698 698 705> 1423 20G<529 884 884 884> 1556 264<331 825 331 825 592 1085 592 854> 1998 135<935 950.5>
VStem: 1014 372 1065 118
LayerCount: 2
Fore
SplineSet
1065 0 m 1xdd
 955 350 l 1
 448 350 l 1
 338 0 l 1
 28 0 l 1
 529 1443 l 1
 884 1443 l 1
 1386 0 l 1xde
 1065 0 l 1xdd
698 1167 m 1xee
 513 576 l 1
 890 576 l 1
 705 1167 l 1
 698 1167 l 1xee
592 1820 m 1
 825 1820 l 1
 1085 1556 l 1
 854 1556 l 1
 714 1705 l 1
 702 1705 l 1
 562 1556 l 1
 331 1556 l 1
 592 1820 l 1
825 1981 m 1
 825 2107 l 1xde
 857 2123 910 2133 960 2133 c 0
 1096 2133 1183 2060 1183 1944 c 0xdd
 1183 1857 1127 1773 1032 1737 c 1
 940 1835 l 1
 991 1854 1014 1891 1014 1929 c 0
 1014 1970 978 1998 923 1998 c 0
 890 1998 850 1991 825 1981 c 1
EndSplineSet
EndChar

StartChar: Abreve
Encoding: 258 258 21
Width: 1413
Flags: MW
HStem: 0 21G<28 338 28 28 1065 1386 1065 1065> 350 226<513 890 513 955 448 890> 1167 276<698 698 698 705> 1423 20G<529 884 884 884> 1543 145<655 759 655 816>
VStem: 28 1358<0 0>
LayerCount: 2
Fore
SplineSet
1065 0 m 1xdc
 955 350 l 1
 448 350 l 1
 338 0 l 1
 28 0 l 1
 529 1443 l 1
 884 1443 l 1
 1386 0 l 1
 1065 0 l 1xdc
698 1167 m 1xec
 513 576 l 1
 890 576 l 1
 705 1167 l 1
 698 1167 l 1xec
354 1860 m 1
 532 1860 l 1
 534 1762 603 1688 707 1688 c 0
 811 1688 880 1762 882 1860 c 1
 1060 1860 l 1
 1057 1682 925 1543 707 1543 c 0
 489 1543 357 1682 354 1860 c 1
EndSplineSet
EndChar

StartChar: Abreveacute
Encoding: 7854 7854 22
Width: 1413
Flags: MW
HStem: 0 21G<28 338 28 28 1065 1386 1065 1065> 350 226<513 890 513 955 448 890> 1167 276<698 698 698 705> 1423 20G<529 884 884 884> 1556 147<656 758 656 817.5> 1887 243<570 1018 764 781>
VStem: 28 1358<0 0>
LayerCount: 2
Fore
SplineSet
1065 0 m 1xde
 955 350 l 1
 448 350 l 1
 338 0 l 1
 28 0 l 1
 529 1443 l 1
 884 1443 l 1
 1386 0 l 1
 1065 0 l 1xde
698 1167 m 1xee
 513 576 l 1
 890 576 l 1
 705 1167 l 1
 698 1167 l 1xee
351 1850 m 1
 534 1850 l 1
 536 1769 605 1703 707 1703 c 0
 809 1703 878 1769 880 1850 c 1
 1063 1850 l 1
 1062 1687 928 1556 707 1556 c 0
 486 1556 352 1687 351 1850 c 1
570 1887 m 1
 764 2130 l 1
 1018 2130 l 1
 781 1887 l 1
 570 1887 l 1
EndSplineSet
EndChar

StartChar: Abrevetilde
Encoding: 7860 7860 23
Width: 1413
Flags: MW
HStem: 0 21G<28 338 28 28 1065 1386 1065 1065> 350 226<513 890 513 955 448 890> 1167 276<698 698 698 705> 1423 20G<529 884 884 884> 1556 146<657 757 657 815.5> 1874 148<795.5 849.5 795.5 902> 2000 147<566.5 626>
VStem: 28 490 896 490 955 105
LayerCount: 2
Fore
SplineSet
1065 0 m 1xda40
 955 350 l 1xec40
 448 350 l 1
 338 0 l 1
 28 0 l 1
 529 1443 l 1
 884 1443 l 1
 1386 0 l 1xdb80
 1065 0 l 1xda40
698 1167 m 1
 513 576 l 1
 890 576 l 1
 705 1167 l 1
 698 1167 l 1
354 1824 m 1
 535 1824 l 1
 542 1756 607 1702 707 1702 c 0
 807 1702 872 1756 879 1824 c 1
 1060 1824 l 1
 1055 1676 924 1556 707 1556 c 0
 490 1556 359 1676 354 1824 c 1
840 1874 m 0
 698 1874 663 2000 589 2000 c 0
 544 2000 521 1956 518 1896 c 1
 354 1896 l 1
 354 2050 450 2147 578 2147 c 0xdb40
 723 2147 763 2022 828 2022 c 0
 871 2022 892 2063 896 2132 c 1xdc80
 1060 2132 l 1
 1060 1975 964 1874 840 1874 c 0
EndSplineSet
EndChar

StartChar: Abrevehookabove
Encoding: 7858 7858 24
Width: 1413
Flags: MW
HStem: 0 21G<28 338 28 28 1065 1386 1065 1065> 350 226<513 890 513 955 448 890> 1167 276<698 698 698 705> 1423 20G<529 884 884 884> 1556 146<659.5 754.5 659.5 809> 2046 132<632 646.5>
VStem: 713 164<1958 1998>
LayerCount: 2
Fore
SplineSet
1065 0 m 1xde
 955 350 l 1
 448 350 l 1
 338 0 l 1
 28 0 l 1
 529 1443 l 1
 884 1443 l 1
 1386 0 l 1
 1065 0 l 1xde
698 1167 m 1xee
 513 576 l 1
 890 576 l 1
 705 1167 l 1
 698 1167 l 1xee
520 2026 m 1
 520 2152 l 1
 548 2166 607 2178 657 2178 c 0
 792 2178 877 2109 877 2001 c 0
 877 1914 800 1822 697 1786 c 1
 622 1880 l 1
 678 1899 713 1938 713 1978 c 0
 713 2018 674 2046 619 2046 c 0
 583 2046 546 2038 520 2026 c 1
355 1824 m 1
 536 1824 l 1
 544 1752 612 1702 707 1702 c 0
 802 1702 872 1752 880 1824 c 1
 1061 1824 l 1
 1056 1665 911 1556 707 1556 c 0
 503 1556 360 1665 355 1824 c 1
EndSplineSet
EndChar

StartChar: Abrevedotbelow
Encoding: 7862 7862 25
Width: 1413
Flags: MW
HStem: -458 297<665 749> 0 21G<28 338 28 28 1065 1386 1065 1065> 350 226<513 890 513 955 448 890> 1167 276<698 698 698 705> 1423 20G<529 884 884 884> 1543 145<655 759 655 816>
VStem: 354 502 558 502
LayerCount: 2
Fore
SplineSet
1065 0 m 1x6e
 955 350 l 1
 448 350 l 1
 338 0 l 1
 28 0 l 1
 529 1443 l 1
 884 1443 l 1
 1386 0 l 1
 1065 0 l 1x6e
698 1167 m 1x76
 513 576 l 1
 890 576 l 1
 705 1167 l 1
 698 1167 l 1x76
707 -458 m 0xed
 623 -458 558 -391 558 -309 c 0xed
 558 -227 623 -161 707 -161 c 0
 791 -161 856 -227 856 -309 c 0xee
 856 -391 791 -458 707 -458 c 0xed
354 1860 m 1x6e
 532 1860 l 1
 534 1762 603 1688 707 1688 c 0
 811 1688 880 1762 882 1860 c 1
 1060 1860 l 1x6d
 1057 1682 925 1543 707 1543 c 0
 489 1543 357 1682 354 1860 c 1x6e
EndSplineSet
EndChar

StartChar: Ainvertedbreve
Encoding: 514 514 26
Width: 1413
Flags: MW
HStem: 0 21G<28 338 28 28 1065 1386 1065 1065> 350 226<513 890 513 955 448 890> 1167 276<698 698 698 705> 1423 20G<529 884 884 884> 1715 145<655 759>
VStem: 28 1358<0 0>
LayerCount: 2
Fore
SplineSet
1065 0 m 1xdc
 955 350 l 1
 448 350 l 1
 338 0 l 1
 28 0 l 1
 529 1443 l 1
 884 1443 l 1
 1386 0 l 1
 1065 0 l 1xdc
698 1167 m 1xec
 513 576 l 1
 890 576 l 1
 705 1167 l 1
 698 1167 l 1xec
354 1543 m 1
 357 1721 489 1860 707 1860 c 0
 925 1860 1057 1721 1060 1543 c 1
 882 1543 l 1
 880 1641 811 1715 707 1715 c 0
 603 1715 534 1641 532 1543 c 1
 354 1543 l 1
EndSplineSet
EndChar

StartChar: Acaron
Encoding: 461 461 27
Width: 1413
Flags: MW
HStem: 0 21G<28 338 28 28 1065 1386 1065 1065> 350 226<513 890 513 955 448 890> 1167 276<698 698 698 705> 1423 20G<529 884 884 884> 1543 318<319 593 319 821>
VStem: 28 1358<0 0>
LayerCount: 2
Fore
SplineSet
1065 0 m 1xdc
 955 350 l 1
 448 350 l 1
 338 0 l 1
 28 0 l 1
 529 1443 l 1
 884 1443 l 1
 1386 0 l 1
 1065 0 l 1xdc
698 1167 m 1xec
 513 576 l 1
 890 576 l 1
 705 1167 l 1
 698 1167 l 1xec
593 1543 m 1
 319 1861 l 1
 541 1861 l 1
 704 1664 l 1
 710 1664 l 1
 873 1861 l 1
 1095 1861 l 1
 821 1543 l 1
 593 1543 l 1
EndSplineSet
EndChar

StartChar: Adotaccent
Encoding: 550 550 28
Width: 1413
Flags: MW
HStem: 0 21G<28 338 28 28 1065 1386 1065 1065> 350 226<513 890 513 955 448 890> 1167 276<698 698 698 705> 1423 20G<529 884 884 884> 1561 297<665 749>
VStem: 558 298<1669 1751>
LayerCount: 2
Fore
SplineSet
1065 0 m 1xd4
 955 350 l 1
 448 350 l 1
 338 0 l 1
 28 0 l 1
 529 1443 l 1
 884 1443 l 1
 1386 0 l 1
 1065 0 l 1xd4
698 1167 m 1xec
 513 576 l 1
 890 576 l 1
 705 1167 l 1
 698 1167 l 1xec
707 1561 m 0
 623 1561 558 1628 558 1710 c 0
 558 1792 623 1858 707 1858 c 0
 791 1858 856 1792 856 1710 c 0
 856 1628 791 1561 707 1561 c 0
EndSplineSet
EndChar

StartChar: Adotbelow
Encoding: 7840 7840 29
Width: 1413
Flags: MW
HStem: -458 297<665 749> 0 21G<28 338 28 28 1065 1386 1065 1065> 350 226<513 890 513 955 448 890> 1167 276<698 698 698 705> 1423 20G<529 884 884 884>
VStem: 529 327 558 326
LayerCount: 2
Fore
SplineSet
1065 0 m 1x6c
 955 350 l 1
 448 350 l 1
 338 0 l 1
 28 0 l 1
 529 1443 l 1x6c
 884 1443 l 1x6a
 1386 0 l 1
 1065 0 l 1x6c
698 1167 m 1x74
 513 576 l 1
 890 576 l 1
 705 1167 l 1
 698 1167 l 1x74
707 -458 m 0xea
 623 -458 558 -391 558 -309 c 0xea
 558 -227 623 -161 707 -161 c 0
 791 -161 856 -227 856 -309 c 0xec
 856 -391 791 -458 707 -458 c 0xea
EndSplineSet
EndChar

StartChar: Ahookabove
Encoding: 7842 7842 30
Width: 1413
Flags: MW
HStem: 0 21G<28 338 28 28 1065 1386 1065 1065> 350 226<513 890 513 955 448 890> 1167 276<698 698 698 705> 1423 20G<529 884 884 884> 1809 138<638.5 657>
VStem: 725 177<1714 1757.5>
LayerCount: 2
Fore
SplineSet
1065 0 m 1xd4
 955 350 l 1
 448 350 l 1
 338 0 l 1
 28 0 l 1
 529 1443 l 1
 884 1443 l 1
 1386 0 l 1
 1065 0 l 1xd4
698 1167 m 1xec
 513 576 l 1
 890 576 l 1
 705 1167 l 1
 698 1167 l 1xec
522 1790 m 1
 522 1922 l 1
 557 1938 612 1947 665 1947 c 0
 809 1947 902 1873 902 1752 c 0
 902 1655 824 1567 714 1524 c 1
 628 1629 l 1
 685 1649 725 1692 725 1736 c 0
 725 1779 686 1809 628 1809 c 0
 595 1809 551 1802 522 1790 c 1
EndSplineSet
EndChar

StartChar: Adblgrave
Encoding: 512 512 31
Width: 1413
Flags: MW
HStem: 0 21G<28 338 28 28 1065 1386 1065 1065> 350 226<513 890 513 955 448 890> 1167 276<698 698 698 705> 1423 20G<529 884 884 884> 1553 310<124 402 519 624>
VStem: 28 1358<0 0>
LayerCount: 2
Fore
SplineSet
1065 0 m 1xdc
 955 350 l 1
 448 350 l 1
 338 0 l 1
 28 0 l 1
 529 1443 l 1
 884 1443 l 1
 1386 0 l 1
 1065 0 l 1xdc
698 1167 m 1xec
 513 576 l 1
 890 576 l 1
 705 1167 l 1
 698 1167 l 1xec
797 1553 m 1
 519 1863 l 1
 788 1863 l 1
 1019 1553 l 1
 797 1553 l 1
402 1553 m 1
 124 1863 l 1
 392 1863 l 1
 624 1553 l 1
 402 1553 l 1
EndSplineSet
EndChar

StartChar: Amacron
Encoding: 256 256 32
Width: 1413
Flags: MW
HStem: 0 21G<28 338 28 28 1065 1386 1065 1065> 350 226<513 890 513 955 448 890> 1167 276<698 698 698 705> 1423 20G<529 884 884 884> 1624 143<361 1053 361 1053>
VStem: 28 1358<0 0>
LayerCount: 2
Fore
SplineSet
1065 0 m 1xdc
 955 350 l 1
 448 350 l 1
 338 0 l 1
 28 0 l 1
 529 1443 l 1
 884 1443 l 1
 1386 0 l 1
 1065 0 l 1xdc
698 1167 m 1xec
 513 576 l 1
 890 576 l 1
 705 1167 l 1
 698 1167 l 1xec
1053 1767 m 1
 1053 1624 l 1
 361 1624 l 1
 361 1767 l 1
 1053 1767 l 1
EndSplineSet
EndChar

StartChar: Aogonek
Encoding: 260 260 33
Width: 1413
Flags: MW
HStem: -453 167<1162 1311.5> 0 21G<28 338 28 28> 350 226<513 890 513 955 448 890> 1160 283<696 696 696 708>
VStem: 985 200<-209.5 -178.5>
LayerCount: 2
Fore
SplineSet
1236 -453 m 0
 1088 -453 985 -360 985 -227 c 0
 985 -130 1036 -50 1136 11 c 1
 1062 11 l 1
 955 350 l 1
 448 350 l 1
 338 0 l 1
 28 0 l 1
 529 1443 l 1
 884 1443 l 1
 1383 7 l 1
 1330 7 l 1
 1233 -41 1185 -102 1185 -177 c 0
 1185 -242 1233 -286 1301 -286 c 0
 1322 -286 1342 -284 1362 -281 c 1
 1362 -436 l 1
 1328 -448 1287 -453 1236 -453 c 0
696 1160 m 1
 513 576 l 1
 890 576 l 1
 708 1160 l 1
 696 1160 l 1
EndSplineSet
EndChar

StartChar: B
Encoding: 66 66 34
Width: 1319
Flags: MW
HStem: 0 225<422 691 691 768> 644 199<422 648 648 684 422 648> 1218 225<422 422 422 679>
VStem: 120 302<225 225 225 644 843 1218> 901 297<1004 1094> 959 308<368 504.5>
LayerCount: 2
Fore
SplineSet
768 0 m 2xf4
 120 0 l 1
 120 1443 l 1
 757 1443 l 2
 1028 1443 1198 1304 1198 1083 c 0xf8
 1198 925 1080 793 927 770 c 1
 927 762 l 1
 1123 747 1267 604 1267 413 c 0
 1267 159 1076 0 768 0 c 2xf4
422 1218 m 1
 422 843 l 1
 648 843 l 2
 809 843 901 914 901 1036 c 0
 901 1152 820 1218 679 1218 c 2
 422 1218 l 1
422 225 m 1
 691 225 l 2
 865 225 959 299 959 437 c 0xf4
 959 572 862 644 684 644 c 2
 422 644 l 1
 422 225 l 1
EndSplineSet
EndChar

StartChar: Blinebelow
Encoding: 7686 7686 35
Width: 1319
Flags: MW
HStem: -373 143<280 972 280 972> 0 225<422 691 691 768> 644 199<422 648 648 684 422 648> 1218 225<422 422 422 679>
VStem: 120 302<225 225 225 644 843 1218> 901 297<1004 1094> 959 308<368 504.5>
LayerCount: 2
Fore
SplineSet
768 0 m 2xfa
 120 0 l 1
 120 1443 l 1
 757 1443 l 2
 1028 1443 1198 1304 1198 1083 c 0xfc
 1198 925 1080 793 927 770 c 1
 927 762 l 1
 1123 747 1267 604 1267 413 c 0
 1267 159 1076 0 768 0 c 2xfa
422 1218 m 1
 422 843 l 1
 648 843 l 2
 809 843 901 914 901 1036 c 0
 901 1152 820 1218 679 1218 c 2
 422 1218 l 1
422 225 m 1
 691 225 l 2
 865 225 959 299 959 437 c 0xfa
 959 572 862 644 684 644 c 2
 422 644 l 1
 422 225 l 1
972 -230 m 1
 972 -373 l 1
 280 -373 l 1
 280 -230 l 1
 972 -230 l 1
EndSplineSet
EndChar

StartChar: Bdotbelow
Encoding: 7684 7684 36
Width: 1319
Flags: MW
HStem: -458 297<584 668> 0 225<422 691 691 768> 644 199<422 648 648 684 422 648> 1218 225<422 422 422 679>
VStem: 120 302<225 225 225 644 843 1218> 477 298<-350 -268> 901 297<1004 1094> 959 308<368 504.5>
LayerCount: 2
Fore
SplineSet
626 -458 m 0xfd
 542 -458 477 -391 477 -309 c 0
 477 -227 542 -161 626 -161 c 0
 710 -161 775 -227 775 -309 c 0
 775 -391 710 -458 626 -458 c 0xfd
768 0 m 2
 120 0 l 1
 120 1443 l 1
 757 1443 l 2
 1028 1443 1198 1304 1198 1083 c 0xfe
 1198 925 1080 793 927 770 c 1
 927 762 l 1
 1123 747 1267 604 1267 413 c 0
 1267 159 1076 0 768 0 c 2
422 1218 m 1
 422 843 l 1
 648 843 l 2
 809 843 901 914 901 1036 c 0
 901 1152 820 1218 679 1218 c 2
 422 1218 l 1
422 225 m 1
 691 225 l 2
 865 225 959 299 959 437 c 0xfd
 959 572 862 644 684 644 c 2
 422 644 l 1
 422 225 l 1
EndSplineSet
EndChar

StartChar: Bdotaccent
Encoding: 7682 7682 37
Width: 1319
Flags: MW
HStem: 0 225<422 691 691 768> 644 199<422 648 648 684 422 648> 1218 225<422 422 422 679> 1561 297<584 668>
VStem: 120 302<225 225 225 644 843 1218> 477 298<1669 1751> 901 297<1004 1094> 959 308<368 504.5>
LayerCount: 2
Fore
SplineSet
626 1561 m 0xfd
 542 1561 477 1628 477 1710 c 0
 477 1792 542 1858 626 1858 c 0
 710 1858 775 1792 775 1710 c 0
 775 1628 710 1561 626 1561 c 0xfd
768 0 m 2
 120 0 l 1
 120 1443 l 1
 757 1443 l 2
 1028 1443 1198 1304 1198 1083 c 0xfe
 1198 925 1080 793 927 770 c 1
 927 762 l 1
 1123 747 1267 604 1267 413 c 0
 1267 159 1076 0 768 0 c 2
422 1218 m 1
 422 843 l 1
 648 843 l 2
 809 843 901 914 901 1036 c 0
 901 1152 820 1218 679 1218 c 2
 422 1218 l 1
422 225 m 1
 691 225 l 2
 865 225 959 299 959 437 c 0xfd
 959 572 862 644 684 644 c 2
 422 644 l 1
 422 225 l 1
EndSplineSet
EndChar

StartChar: C
Encoding: 67 67 38
Width: 1459
Flags: MW
HStem: -25 250<643.5 848.5 643.5 935> 1218 250<644 846>
VStem: 75 308<569 875 569 954.5>
LayerCount: 2
Fore
SplineSet
758 -25 m 0
 338 -25 75 256 75 722 c 0
 75 1187 340 1468 758 1468 c 0
 1105 1468 1369 1248 1392 925 c 1
 1098 925 l 1
 1070 1102 934 1218 758 1218 c 0
 530 1218 383 1027 383 723 c 0
 383 415 528 225 759 225 c 0
 938 225 1067 330 1099 501 c 1
 1393 501 l 1
 1359 179 1112 -25 758 -25 c 0
EndSplineSet
EndChar

StartChar: Cacute
Encoding: 262 262 39
Width: 1459
Flags: MW
HStem: -25 250<643.5 848.5 643.5 935> 1218 250<644 846> 1554 310<626 1131 626 1131>
VStem: 75 308<569 875 569 954.5>
LayerCount: 2
Fore
SplineSet
854 1554 m 1
 626 1554 l 1
 858 1864 l 1
 1131 1864 l 1
 854 1554 l 1
758 -25 m 0
 338 -25 75 256 75 722 c 0
 75 1187 340 1468 758 1468 c 0
 1105 1468 1369 1248 1392 925 c 1
 1098 925 l 1
 1070 1102 934 1218 758 1218 c 0
 530 1218 383 1027 383 723 c 0
 383 415 528 225 759 225 c 0
 938 225 1067 330 1099 501 c 1
 1393 501 l 1
 1359 179 1112 -25 758 -25 c 0
EndSplineSet
EndChar

StartChar: Ccaron
Encoding: 268 268 40
Width: 1459
Flags: MW
HStem: -25 250<643.5 848.5 643.5 935> 1218 250<644 846> 1544 318<357 631 357 859>
VStem: 75 308<569 875 569 954.5>
LayerCount: 2
Fore
SplineSet
758 -25 m 0
 338 -25 75 256 75 722 c 0
 75 1187 340 1468 758 1468 c 0
 1105 1468 1369 1248 1392 925 c 1
 1098 925 l 1
 1070 1102 934 1218 758 1218 c 0
 530 1218 383 1027 383 723 c 0
 383 415 528 225 759 225 c 0
 938 225 1067 330 1099 501 c 1
 1393 501 l 1
 1359 179 1112 -25 758 -25 c 0
631 1544 m 1
 357 1862 l 1
 579 1862 l 1
 742 1665 l 1
 748 1665 l 1
 911 1862 l 1
 1133 1862 l 1
 859 1544 l 1
 631 1544 l 1
EndSplineSet
EndChar

StartChar: Ccircumflex
Encoding: 264 264 41
Width: 1459
Flags: MW
HStem: -25 250<643.5 848.5 643.5 935> 1218 250<644 846> 1544 318<357 859 357 859 631 1133 631 911>
VStem: 75 308<569 875 569 954.5>
LayerCount: 2
Fore
SplineSet
758 -25 m 0
 338 -25 75 256 75 722 c 0
 75 1187 340 1468 758 1468 c 0
 1105 1468 1369 1248 1392 925 c 1
 1098 925 l 1
 1070 1102 934 1218 758 1218 c 0
 530 1218 383 1027 383 723 c 0
 383 415 528 225 759 225 c 0
 938 225 1067 330 1099 501 c 1
 1393 501 l 1
 1359 179 1112 -25 758 -25 c 0
631 1862 m 1
 859 1862 l 1
 1133 1544 l 1
 911 1544 l 1
 748 1741 l 1
 742 1741 l 1
 579 1544 l 1
 357 1544 l 1
 631 1862 l 1
EndSplineSet
EndChar

StartChar: Cdotaccent
Encoding: 266 266 42
Width: 1459
Flags: MW
HStem: -25 250<643.5 848.5 643.5 935> 1218 250<644 846> 1562 297<703 787>
VStem: 75 308<569 875 569 954.5> 596 298<1670 1752>
LayerCount: 2
Fore
SplineSet
745 1562 m 0
 661 1562 596 1629 596 1711 c 0
 596 1793 661 1859 745 1859 c 0
 829 1859 894 1793 894 1711 c 0
 894 1629 829 1562 745 1562 c 0
758 -25 m 0
 338 -25 75 256 75 722 c 0
 75 1187 340 1468 758 1468 c 0
 1105 1468 1369 1248 1392 925 c 1
 1098 925 l 1
 1070 1102 934 1218 758 1218 c 0
 530 1218 383 1027 383 723 c 0
 383 415 528 225 759 225 c 0
 938 225 1067 330 1099 501 c 1
 1393 501 l 1
 1359 179 1112 -25 758 -25 c 0
EndSplineSet
EndChar

StartChar: Ccedilla
Encoding: 199 199 43
Width: 1459
Flags: MW
HStem: -461 122<704.5 732> -228 112<629 846.5> -21 21G<677 677> 1218 250<644 846>
VStem: 75 308<569 875 569 954.5> 810 163<-302.5 -263.5>
LayerCount: 2
Fore
SplineSet
1099 501 m 1
 1393 501 l 1
 1361 201 1144 3 828 -22 c 1
 788 -116 l 1
 905 -116 973 -174 973 -275 c 0
 973 -390 883 -460 732 -461 c 0
 677 -461 628 -456 592 -445 c 1
 592 -325 l 1
 615 -333 663 -339 703 -339 c 0
 775 -339 810 -321 810 -284 c 0
 810 -243 775 -228 685 -228 c 2
 629 -228 l 1
 629 -127 l 1
 677 -21 l 1
 304 13 75 287 75 722 c 0
 75 1187 340 1468 758 1468 c 0
 1105 1468 1369 1248 1392 925 c 1
 1098 925 l 1
 1070 1102 934 1218 758 1218 c 0
 530 1218 383 1027 383 723 c 0
 383 415 528 225 759 225 c 0
 938 225 1067 330 1099 501 c 1
EndSplineSet
EndChar

StartChar: Ccedillaacute
Encoding: 7688 7688 44
Width: 1459
Flags: MW
HStem: -461 122<704.5 732> -228 112<629 846.5> -21 21G<677 677> 1218 250<644 846> 1554 310<626 1131 626 1131>
VStem: 75 308<569 875 569 954.5> 592 262 810 321 858 115
LayerCount: 2
Fore
SplineSet
1131 1864 m 1xfd
 854 1554 l 1xfe
 626 1554 l 1
 858 1864 l 1xfc80
 1131 1864 l 1xfd
1099 501 m 1
 1393 501 l 1
 1361 201 1144 3 828 -22 c 1
 788 -116 l 1
 905 -116 973 -174 973 -275 c 0xfc80
 973 -390 883 -460 732 -461 c 0
 677 -461 628 -456 592 -445 c 1
 592 -325 l 1
 615 -333 663 -339 703 -339 c 0
 775 -339 810 -321 810 -284 c 0
 810 -243 775 -228 685 -228 c 2
 629 -228 l 1
 629 -127 l 1
 677 -21 l 1
 304 13 75 287 75 722 c 0
 75 1187 340 1468 758 1468 c 0
 1105 1468 1369 1248 1392 925 c 1
 1098 925 l 1
 1070 1102 934 1218 758 1218 c 0
 530 1218 383 1027 383 723 c 0
 383 415 528 225 759 225 c 0
 938 225 1067 330 1099 501 c 1
EndSplineSet
EndChar

StartChar: D
Encoding: 68 68 45
Width: 1438
Flags: MW
HStem: 0 250<422 640 640 676> 1194 249<422 422 422 640>
VStem: 120 302<250 1194 250 1443 250 1443> 1056 308<570 877>
LayerCount: 2
Fore
SplineSet
120 1443 m 1
 676 1443 l 2
 1109 1443 1364 1185 1364 727 c 0
 1364 269 1109 0 676 0 c 2
 120 0 l 1
 120 1443 l 1
422 1194 m 1
 422 250 l 1
 640 250 l 2
 910 250 1056 414 1056 726 c 0
 1056 1028 906 1194 640 1194 c 2
 422 1194 l 1
EndSplineSet
EndChar

StartChar: Ddotaccent
Encoding: 7690 7690 46
Width: 1438
Flags: MW
HStem: 0 250<422 640 640 676> 1194 249<422 422 422 640> 1561 297<602 686>
VStem: 120 302<250 1194 250 1443 250 1443> 495 298<1669 1751> 1056 308<570 877>
LayerCount: 2
Fore
SplineSet
644 1561 m 0
 560 1561 495 1628 495 1710 c 0
 495 1792 560 1858 644 1858 c 0
 728 1858 793 1792 793 1710 c 0
 793 1628 728 1561 644 1561 c 0
120 1443 m 1
 676 1443 l 2
 1109 1443 1364 1185 1364 727 c 0
 1364 269 1109 0 676 0 c 2
 120 0 l 1
 120 1443 l 1
422 1194 m 1
 422 250 l 1
 640 250 l 2
 910 250 1056 414 1056 726 c 0
 1056 1028 906 1194 640 1194 c 2
 422 1194 l 1
EndSplineSet
EndChar

StartChar: Dcircumflexbelow
Encoding: 7698 7698 47
Width: 1438
Flags: MW
HStem: -478 318<256 758 256 758 530 1032 530 810> 0 250<422 640 640 676> 1194 249<422 422 422 640>
VStem: 120 302<250 1194 250 1443 250 1443> 1056 308<570 877>
LayerCount: 2
Fore
SplineSet
120 1443 m 1
 676 1443 l 2
 1109 1443 1364 1185 1364 727 c 0
 1364 269 1109 0 676 0 c 2
 120 0 l 1
 120 1443 l 1
422 1194 m 1
 422 250 l 1
 640 250 l 2
 910 250 1056 414 1056 726 c 0
 1056 1028 906 1194 640 1194 c 2
 422 1194 l 1
530 -160 m 1
 758 -160 l 1
 1032 -478 l 1
 810 -478 l 1
 647 -281 l 1
 641 -281 l 1
 478 -478 l 1
 256 -478 l 1
 530 -160 l 1
EndSplineSet
EndChar

StartChar: Dcommaaccent
Encoding: 7696 7696 48
Width: 1438
Flags: MW
HStem: -500 345<526 622 405 782> 0 250<422 640 640 676> 1194 249<422 422 422 640>
VStem: 120 302<250 1194 250 1443 250 1443> 1056 308<570 877>
LayerCount: 2
Fore
SplineSet
622 -500 m 1
 405 -500 l 1
 526 -155 l 1
 782 -155 l 1
 622 -500 l 1
120 1443 m 1
 676 1443 l 2
 1109 1443 1364 1185 1364 727 c 0
 1364 269 1109 0 676 0 c 2
 120 0 l 1
 120 1443 l 1
422 1194 m 1
 422 250 l 1
 640 250 l 2
 910 250 1056 414 1056 726 c 0
 1056 1028 906 1194 640 1194 c 2
 422 1194 l 1
EndSplineSet
EndChar

StartChar: Dlinebelow
Encoding: 7694 7694 49
Width: 1438
Flags: MW
HStem: -373 143<298 990 298 990> 0 250<422 640 640 676> 1194 249<422 422 422 640>
VStem: 120 302<250 1194 250 1443 250 1443> 1056 308<570 877>
LayerCount: 2
Fore
SplineSet
990 -230 m 1
 990 -373 l 1
 298 -373 l 1
 298 -230 l 1
 990 -230 l 1
120 1443 m 1
 676 1443 l 2
 1109 1443 1364 1185 1364 727 c 0
 1364 269 1109 0 676 0 c 2
 120 0 l 1
 120 1443 l 1
422 1194 m 1
 422 250 l 1
 640 250 l 2
 910 250 1056 414 1056 726 c 0
 1056 1028 906 1194 640 1194 c 2
 422 1194 l 1
EndSplineSet
EndChar

StartChar: Dcaron
Encoding: 270 270 50
Width: 1438
Flags: MW
HStem: 0 250<422 640 640 676> 1194 249<422 422 422 640> 1543 318<256 530 256 758>
VStem: 120 302<250 1194 250 1443 250 1443> 1056 308<570 877>
LayerCount: 2
Fore
SplineSet
530 1543 m 1
 256 1861 l 1
 478 1861 l 1
 641 1664 l 1
 647 1664 l 1
 810 1861 l 1
 1032 1861 l 1
 758 1543 l 1
 530 1543 l 1
120 1443 m 1
 676 1443 l 2
 1109 1443 1364 1185 1364 727 c 0
 1364 269 1109 0 676 0 c 2
 120 0 l 1
 120 1443 l 1
422 1194 m 1
 422 250 l 1
 640 250 l 2
 910 250 1056 414 1056 726 c 0
 1056 1028 906 1194 640 1194 c 2
 422 1194 l 1
EndSplineSet
EndChar

StartChar: Ddotbelow
Encoding: 7692 7692 51
Width: 1438
Flags: MW
HStem: -458 297<602 686> 0 250<422 640 640 676> 1194 249<422 422 422 640>
VStem: 120 302<250 1194 250 1443 250 1443> 495 298<-350 -268> 1056 308<570 877>
LayerCount: 2
Fore
SplineSet
644 -458 m 0
 560 -458 495 -391 495 -309 c 0
 495 -227 560 -161 644 -161 c 0
 728 -161 793 -227 793 -309 c 0
 793 -391 728 -458 644 -458 c 0
120 1443 m 1
 676 1443 l 2
 1109 1443 1364 1185 1364 727 c 0
 1364 269 1109 0 676 0 c 2
 120 0 l 1
 120 1443 l 1
422 1194 m 1
 422 250 l 1
 640 250 l 2
 910 250 1056 414 1056 726 c 0
 1056 1028 906 1194 640 1194 c 2
 422 1194 l 1
EndSplineSet
EndChar

StartChar: Dcroat
Encoding: 272 272 52
Width: 1517
Flags: MW
HStem: 0 250<475 693 693 729> 622 221<85 173 85 173 475 740> 1194 249<475 693 475 475>
VStem: 173 302<250 250 250 622 843 1194> 1109 308<570 877>
LayerCount: 2
Fore
SplineSet
475 250 m 1
 693 250 l 2
 963 250 1109 414 1109 726 c 0
 1109 1028 959 1194 693 1194 c 2
 475 1194 l 1
 475 843 l 1
 740 843 l 1
 740 622 l 1
 475 622 l 1
 475 250 l 1
173 1443 m 1
 729 1443 l 2
 1162 1443 1417 1185 1417 727 c 0
 1417 269 1162 0 729 0 c 2
 173 0 l 1
 173 622 l 1
 85 622 l 1
 85 843 l 1
 173 843 l 1
 173 1443 l 1
EndSplineSet
EndChar

StartChar: E
Encoding: 69 69 53
Width: 1174
Flags: MW
HStem: 0 250<422 1076 422 1076> 614 232<422 1039 422 1039> 1194 249<422 1076 422 422>
VStem: 120 302<250 614 846 1194>
LayerCount: 2
Fore
SplineSet
1076 250 m 1
 1076 0 l 1
 120 0 l 1
 120 1443 l 1
 1076 1443 l 1
 1076 1194 l 1
 422 1194 l 1
 422 846 l 1
 1039 846 l 1
 1039 614 l 1
 422 614 l 1
 422 250 l 1
 1076 250 l 1
EndSplineSet
EndChar

StartChar: Egrave
Encoding: 200 200 54
Width: 1174
Flags: MW
HStem: 0 250<422 1076 422 1076> 614 232<422 1039 422 1039> 1194 249<422 1076 422 422> 1558 310<210 488 210 715>
VStem: 120 302<250 614 846 1194>
LayerCount: 2
Fore
SplineSet
488 1558 m 1
 210 1868 l 1
 483 1868 l 1
 715 1558 l 1
 488 1558 l 1
1076 250 m 1
 1076 0 l 1
 120 0 l 1
 120 1443 l 1
 1076 1443 l 1
 1076 1194 l 1
 422 1194 l 1
 422 846 l 1
 1039 846 l 1
 1039 614 l 1
 422 614 l 1
 422 250 l 1
 1076 250 l 1
EndSplineSet
EndChar

StartChar: Edblgrave
Encoding: 516 516 55
Width: 1174
Flags: MW
HStem: 0 250<422 1076 422 1076> 614 232<422 1039 422 1039> 1194 249<422 1076 422 422> 1553 310<15 293 410 515>
VStem: 120 302<250 614 846 1194>
LayerCount: 2
Fore
SplineSet
688 1553 m 1
 410 1863 l 1
 679 1863 l 1
 910 1553 l 1
 688 1553 l 1
293 1553 m 1
 15 1863 l 1
 283 1863 l 1
 515 1553 l 1
 293 1553 l 1
1076 250 m 1
 1076 0 l 1
 120 0 l 1
 120 1443 l 1
 1076 1443 l 1
 1076 1194 l 1
 422 1194 l 1
 422 846 l 1
 1039 846 l 1
 1039 614 l 1
 422 614 l 1
 422 250 l 1
 1076 250 l 1
EndSplineSet
EndChar

StartChar: Eacute
Encoding: 201 201 56
Width: 1174
Flags: MW
HStem: 0 250<422 1076 422 1076> 614 232<422 1039 422 1039> 1194 249<422 1076 422 422> 1553 310<479 984 479 984>
VStem: 120 302<250 614 846 1194>
LayerCount: 2
Fore
SplineSet
707 1553 m 1
 479 1553 l 1
 711 1863 l 1
 984 1863 l 1
 707 1553 l 1
1076 250 m 1
 1076 0 l 1
 120 0 l 1
 120 1443 l 1
 1076 1443 l 1
 1076 1194 l 1
 422 1194 l 1
 422 846 l 1
 1039 846 l 1
 1039 614 l 1
 422 614 l 1
 422 250 l 1
 1076 250 l 1
EndSplineSet
EndChar

StartChar: Ecircumflex
Encoding: 202 202 57
Width: 1174
Flags: MW
HStem: 0 250<422 1076 422 1076> 614 232<422 1039 422 1039> 1194 249<422 1076 422 422> 1543 318<210 712 210 712 484 986 484 764>
VStem: 120 302<250 614 846 1194>
LayerCount: 2
Fore
SplineSet
484 1861 m 1
 712 1861 l 1
 986 1543 l 1
 764 1543 l 1
 601 1740 l 1
 595 1740 l 1
 432 1543 l 1
 210 1543 l 1
 484 1861 l 1
1076 250 m 1
 1076 0 l 1
 120 0 l 1
 120 1443 l 1
 1076 1443 l 1
 1076 1194 l 1
 422 1194 l 1
 422 846 l 1
 1039 846 l 1
 1039 614 l 1
 422 614 l 1
 422 250 l 1
 1076 250 l 1
EndSplineSet
EndChar

StartChar: Ecircumflexhookabove
Encoding: 7874 7874 58
Width: 1174
Flags: MW
HStem: 0 250<422 1076 422 1076> 614 232<422 1039 422 1039> 1194 249<422 1076 422 422> 1556 264<222 716 222 716 483 976 483 745> 1998 135<826 841.5>
VStem: 120 302<250 614 846 1194> 716 360
LayerCount: 2
Fore
SplineSet
1076 250 m 1
 1076 0 l 1
 120 0 l 1
 120 1443 l 1
 1076 1443 l 1
 1076 1194 l 1
 422 1194 l 1
 422 846 l 1
 1039 846 l 1
 1039 614 l 1
 422 614 l 1
 422 250 l 1
 1076 250 l 1
483 1820 m 1
 716 1820 l 1
 976 1556 l 1
 745 1556 l 1
 605 1705 l 1
 593 1705 l 1
 453 1556 l 1
 222 1556 l 1
 483 1820 l 1
716 1981 m 1
 716 2107 l 1
 748 2123 801 2133 851 2133 c 0
 987 2133 1074 2060 1074 1944 c 0
 1074 1857 1018 1773 923 1737 c 1
 831 1835 l 1
 882 1854 905 1891 905 1929 c 0
 905 1970 869 1998 814 1998 c 0
 781 1998 741 1991 716 1981 c 1
EndSplineSet
EndChar

StartChar: Ecircumflexgrave
Encoding: 7872 7872 59
Width: 1174
Flags: MW
HStem: 0 250<422 1076 422 1076> 614 232<422 1039 422 1039> 1194 249<422 1076 422 422> 1556 264<221 714 221 714 482 975 482 744> 1887 243<731 748 493 942 731 731>
VStem: 120 302<250 614 846 1194> 731 345
LayerCount: 2
Fore
SplineSet
1076 250 m 1
 1076 0 l 1
 120 0 l 1
 120 1443 l 1
 1076 1443 l 1
 1076 1194 l 1
 422 1194 l 1
 422 846 l 1
 1039 846 l 1
 1039 614 l 1
 422 614 l 1
 422 250 l 1
 1076 250 l 1
482 1820 m 1
 714 1820 l 1
 975 1556 l 1
 744 1556 l 1
 604 1705 l 1
 592 1705 l 1
 452 1556 l 1
 221 1556 l 1
 482 1820 l 1
942 1887 m 1
 731 1887 l 1
 493 2130 l 1
 748 2130 l 1
 942 1887 l 1
EndSplineSet
EndChar

StartChar: Ecircumflextilde
Encoding: 7876 7876 60
Width: 1174
Flags: MW
HStem: 0 250<422 1076 422 1076> 614 232<422 1039 422 1039> 1194 249<422 1076 422 422> 1556 255<221 714 482 975 482 744> 1873 147<685 743.5 685 793> 2001 146<457 520>
VStem: 120 302<250 614 846 1194> 254 155<1891 1972.5> 792 284
LayerCount: 2
Fore
SplineSet
732 1873 m 0xfa80
 589 1873 559 2001 481 2001 c 0
 433 2001 412 1960 409 1891 c 1
 254 1891 l 1xf580
 254 2054 345 2147 470 2147 c 0
 615 2147 650 2020 720 2020 c 0
 767 2020 788 2060 792 2132 c 1
 946 2132 l 1
 946 1972 854 1873 732 1873 c 0xfa80
482 1811 m 1xf680
 714 1811 l 1
 975 1556 l 1
 744 1556 l 1
 604 1696 l 1
 592 1696 l 1
 452 1556 l 1
 221 1556 l 1
 482 1811 l 1xf680
1076 250 m 1
 1076 0 l 1
 120 0 l 1
 120 1443 l 1
 1076 1443 l 1
 1076 1194 l 1
 422 1194 l 1
 422 846 l 1
 1039 846 l 1
 1039 614 l 1
 422 614 l 1
 422 250 l 1
 1076 250 l 1
EndSplineSet
EndChar

StartChar: Ecircumflexdotbelow
Encoding: 7878 7878 61
Width: 1174
Flags: MW
HStem: -458 297<556 640> 0 250<422 1076 422 1076> 614 232<422 1039 422 1039> 1194 249<422 1076 422 422> 1543 318<210 712 210 712 484 986 484 764>
VStem: 120 302<250 614 846 1194> 449 146 484 263
LayerCount: 2
Fore
SplineSet
598 -458 m 0xfe
 514 -458 449 -391 449 -309 c 0xfe
 449 -227 514 -161 598 -161 c 0
 682 -161 747 -227 747 -309 c 0xfd
 747 -391 682 -458 598 -458 c 0xfe
484 1861 m 1xfd
 712 1861 l 1
 986 1543 l 1
 764 1543 l 1
 601 1740 l 1
 595 1740 l 1xfe
 432 1543 l 1
 210 1543 l 1
 484 1861 l 1xfd
1076 250 m 1
 1076 0 l 1
 120 0 l 1
 120 1443 l 1
 1076 1443 l 1
 1076 1194 l 1
 422 1194 l 1
 422 846 l 1
 1039 846 l 1
 1039 614 l 1
 422 614 l 1
 422 250 l 1xfd
 1076 250 l 1
EndSplineSet
EndChar

StartChar: Ecircumflexacute
Encoding: 7870 7870 62
Width: 1174
Flags: MW
HStem: 0 250<422 1076 422 1076> 614 232<422 1039 422 1039> 1194 249<422 1076 422 422> 1556 264<222 716 222 716 483 977 483 745> 1887 243<685 1133 878 896>
VStem: 120 302<250 614 846 1194> 878 198
LayerCount: 2
Fore
SplineSet
1076 250 m 1
 1076 0 l 1
 120 0 l 1
 120 1443 l 1
 1076 1443 l 1
 1076 1194 l 1
 422 1194 l 1
 422 846 l 1
 1039 846 l 1
 1039 614 l 1
 422 614 l 1
 422 250 l 1
 1076 250 l 1
483 1820 m 1
 716 1820 l 1
 977 1556 l 1
 745 1556 l 1
 606 1705 l 1
 594 1705 l 1
 454 1556 l 1
 222 1556 l 1
 483 1820 l 1
685 1887 m 1
 878 2130 l 1
 1133 2130 l 1
 896 1887 l 1
 685 1887 l 1
EndSplineSet
EndChar

StartChar: Edieresis
Encoding: 203 203 63
Width: 1174
Flags: MW
HStem: 0 250<422 1076 422 1076> 614 232<422 1039 422 1039> 1194 249<422 1076 422 422> 1561 262<350.5 427.5 769.5 846.5>
VStem: 120 302<250 614 846 1194> 254 270<1656 1728> 673 270<1656 1728>
LayerCount: 2
Fore
SplineSet
389 1561 m 0xf6
 312 1561 254 1620 254 1692 c 0
 254 1764 312 1823 389 1823 c 0
 466 1823 524 1764 524 1692 c 0
 524 1620 466 1561 389 1561 c 0xf6
808 1561 m 0
 731 1561 673 1620 673 1692 c 0
 673 1764 731 1823 808 1823 c 0
 885 1823 943 1764 943 1692 c 0
 943 1620 885 1561 808 1561 c 0
1076 250 m 1
 1076 0 l 1
 120 0 l 1
 120 1443 l 1
 1076 1443 l 1
 1076 1194 l 1
 422 1194 l 1
 422 846 l 1
 1039 846 l 1
 1039 614 l 1
 422 614 l 1
 422 250 l 1xe8
 1076 250 l 1
EndSplineSet
EndChar

StartChar: Edotbelow
Encoding: 7864 7864 64
Width: 1174
Flags: MW
HStem: -458 297<556 640> 0 250<422 1076 422 1076> 614 232<422 1039 422 1039> 1194 249<422 1076 422 422>
VStem: 120 302<250 614 846 1194> 449 298<-350 -268>
LayerCount: 2
Fore
SplineSet
598 -458 m 0
 514 -458 449 -391 449 -309 c 0
 449 -227 514 -161 598 -161 c 0
 682 -161 747 -227 747 -309 c 0
 747 -391 682 -458 598 -458 c 0
1076 250 m 1
 1076 0 l 1
 120 0 l 1
 120 1443 l 1
 1076 1443 l 1
 1076 1194 l 1
 422 1194 l 1
 422 846 l 1
 1039 846 l 1
 1039 614 l 1
 422 614 l 1
 422 250 l 1x78
 1076 250 l 1
EndSplineSet
EndChar

StartChar: Einvertedbreve
Encoding: 518 518 65
Width: 1174
Flags: MW
HStem: 0 250<422 1076 422 1076> 614 232<422 1039 422 1039> 1194 249<422 1076 422 422> 1715 145<546 650>
VStem: 120 302<250 614 846 1194>
LayerCount: 2
Fore
SplineSet
1076 250 m 1
 1076 0 l 1
 120 0 l 1
 120 1443 l 1
 1076 1443 l 1
 1076 1194 l 1
 422 1194 l 1
 422 846 l 1
 1039 846 l 1
 1039 614 l 1
 422 614 l 1
 422 250 l 1
 1076 250 l 1
245 1543 m 1
 248 1721 380 1860 598 1860 c 0
 816 1860 948 1721 951 1543 c 1
 773 1543 l 1
 771 1641 702 1715 598 1715 c 0
 494 1715 425 1641 423 1543 c 1
 245 1543 l 1
EndSplineSet
EndChar

StartChar: Ehookabove
Encoding: 7866 7866 66
Width: 1174
Flags: MW
HStem: 0 250<422 1076 422 1076> 614 232<422 1039 422 1039> 1194 249<422 1076 422 422> 1809 138<529.5 548>
VStem: 120 302<250 614 846 1194> 616 177<1714 1757.5>
LayerCount: 2
Fore
SplineSet
1076 250 m 1
 1076 0 l 1
 120 0 l 1
 120 1443 l 1
 1076 1443 l 1
 1076 1194 l 1
 422 1194 l 1
 422 846 l 1
 1039 846 l 1
 1039 614 l 1
 422 614 l 1
 422 250 l 1
 1076 250 l 1
413 1790 m 1
 413 1922 l 1
 448 1938 503 1947 556 1947 c 0
 700 1947 793 1873 793 1752 c 0
 793 1655 715 1567 605 1524 c 1
 519 1629 l 1
 576 1649 616 1692 616 1736 c 0
 616 1779 577 1809 519 1809 c 0
 486 1809 442 1802 413 1790 c 1
EndSplineSet
EndChar

StartChar: Ecaron
Encoding: 282 282 67
Width: 1174
Flags: MW
HStem: 0 250<422 1076 422 1076> 614 232<422 1039 422 1039> 1194 249<422 1076 422 422> 1543 318<210 484 210 712>
VStem: 120 302<250 614 846 1194>
LayerCount: 2
Fore
SplineSet
484 1543 m 1
 210 1861 l 1
 432 1861 l 1
 595 1664 l 1
 601 1664 l 1
 764 1861 l 1
 986 1861 l 1
 712 1543 l 1
 484 1543 l 1
1076 250 m 1
 1076 0 l 1
 120 0 l 1
 120 1443 l 1
 1076 1443 l 1
 1076 1194 l 1
 422 1194 l 1
 422 846 l 1
 1039 846 l 1
 1039 614 l 1
 422 614 l 1
 422 250 l 1
 1076 250 l 1
EndSplineSet
EndChar

StartChar: Emacron
Encoding: 274 274 68
Width: 1174
Flags: MW
HStem: 0 250<422 1076 422 1076> 614 232<422 1039 422 1039> 1194 249<422 1076 422 422> 1624 143<252 944 252 944>
VStem: 120 302<250 614 846 1194>
LayerCount: 2
Fore
SplineSet
1076 250 m 1
 1076 0 l 1
 120 0 l 1
 120 1443 l 1
 1076 1443 l 1
 1076 1194 l 1
 422 1194 l 1
 422 846 l 1
 1039 846 l 1
 1039 614 l 1
 422 614 l 1
 422 250 l 1
 1076 250 l 1
944 1767 m 1
 944 1624 l 1
 252 1624 l 1
 252 1767 l 1
 944 1767 l 1
EndSplineSet
EndChar

StartChar: Emacrongrave
Encoding: 7700 7700 69
Width: 1174
Flags: MW
HStem: 0 250<422 1076 422 1076> 614 232<422 1039 422 1039> 1194 249<422 1076 422 422> 1624 143<252 944 252 944> 1887 243<499 516 262 710 499 499>
VStem: 120 302<250 614 846 1194> 499 577
LayerCount: 2
Fore
SplineSet
252 1624 m 1
 252 1767 l 1
 944 1767 l 1
 944 1624 l 1
 252 1624 l 1
710 1887 m 1
 499 1887 l 1
 262 2130 l 1
 516 2130 l 1
 710 1887 l 1
1076 250 m 1
 1076 0 l 1
 120 0 l 1
 120 1443 l 1
 1076 1443 l 1
 1076 1194 l 1
 422 1194 l 1
 422 846 l 1
 1039 846 l 1
 1039 614 l 1
 422 614 l 1
 422 250 l 1
 1076 250 l 1
EndSplineSet
EndChar

StartChar: Emacronacute
Encoding: 7702 7702 70
Width: 1174
Flags: MW
HStem: 0 250<422 1076 422 1076> 614 232<422 1039 422 1039> 1194 249<422 1076 422 422> 1624 143<252 944 252 944> 1887 243<486 934 680 697>
VStem: 120 302<250 614 846 1194> 680 396
LayerCount: 2
Fore
SplineSet
944 1624 m 1
 252 1624 l 1
 252 1767 l 1
 944 1767 l 1
 944 1624 l 1
486 1887 m 1
 680 2130 l 1
 934 2130 l 1
 697 1887 l 1
 486 1887 l 1
1076 250 m 1
 1076 0 l 1
 120 0 l 1
 120 1443 l 1
 1076 1443 l 1
 1076 1194 l 1
 422 1194 l 1
 422 846 l 1
 1039 846 l 1
 1039 614 l 1
 422 614 l 1
 422 250 l 1
 1076 250 l 1
EndSplineSet
EndChar

StartChar: Etilde
Encoding: 7868 7868 71
Width: 1174
Flags: MW
HStem: 0 250<422 1076 422 1076> 614 232<422 1039 422 1039> 1194 249<422 1076 422 422> 1541 153<693 750.5 693 798.5> 1677 152<457.5 517>
VStem: 120 302<250 614 846 1194> 253 158<1558 1644> 794 158<1731 1816>
LayerCount: 2
Fore
SplineSet
1076 250 m 1xf5
 1076 0 l 1
 120 0 l 1
 120 1443 l 1
 1076 1443 l 1
 1076 1194 l 1
 422 1194 l 1
 422 846 l 1
 1039 846 l 1
 1039 614 l 1
 422 614 l 1
 422 250 l 1
 1076 250 l 1xf5
738 1541 m 0
 601 1541 554 1677 480 1677 c 0
 435 1677 412 1628 411 1558 c 1
 253 1558 l 1
 253 1730 345 1829 468 1829 c 0xeb
 610 1829 657 1694 729 1694 c 0
 772 1694 793 1739 794 1816 c 1
 952 1816 l 1
 952 1646 859 1541 738 1541 c 0
EndSplineSet
EndChar

StartChar: Ecircumflexbelow
Encoding: 7704 7704 72
Width: 1174
Flags: MW
HStem: -478 318<210 712 210 712 484 986 484 764> 0 250<422 1076 422 1076> 614 232<422 1039 422 1039> 1194 249<422 1076 422 422>
VStem: 120 302<250 614 846 1194> 764 312
LayerCount: 2
Fore
SplineSet
1076 250 m 1
 1076 0 l 1
 120 0 l 1
 120 1443 l 1
 1076 1443 l 1
 1076 1194 l 1
 422 1194 l 1
 422 846 l 1
 1039 846 l 1
 1039 614 l 1
 422 614 l 1
 422 250 l 1
 1076 250 l 1
484 -160 m 1
 712 -160 l 1
 986 -478 l 1
 764 -478 l 1
 601 -281 l 1
 595 -281 l 1
 432 -478 l 1
 210 -478 l 1
 484 -160 l 1
EndSplineSet
EndChar

StartChar: Ebreve
Encoding: 276 276 73
Width: 1174
Flags: MW
HStem: 0 250<422 1076 422 1076> 614 232<422 1039 422 1039> 1194 249<422 1076 422 422> 1543 145<546 650 546 707>
VStem: 120 302<250 614 846 1194>
LayerCount: 2
Fore
SplineSet
1076 250 m 1
 1076 0 l 1
 120 0 l 1
 120 1443 l 1
 1076 1443 l 1
 1076 1194 l 1
 422 1194 l 1
 422 846 l 1
 1039 846 l 1
 1039 614 l 1
 422 614 l 1
 422 250 l 1
 1076 250 l 1
245 1860 m 1
 423 1860 l 1
 425 1762 494 1688 598 1688 c 0
 702 1688 771 1762 773 1860 c 1
 951 1860 l 1
 948 1682 816 1543 598 1543 c 0
 380 1543 248 1682 245 1860 c 1
EndSplineSet
EndChar

StartChar: Etildebelow
Encoding: 7706 7706 74
Width: 1174
Flags: MW
HStem: -435 153<693 750.5 693 798.5> -299 152<457.5 517> 0 250<422 1076 422 1076> 614 232<422 1039 422 1039> 1194 249<422 1076 422 422>
VStem: 120 302<250 614 846 1194> 253 158<-418 -332> 794 158<-245 -160>
LayerCount: 2
Fore
SplineSet
738 -435 m 0xbd
 601 -435 554 -299 480 -299 c 0
 435 -299 412 -348 411 -418 c 1
 253 -418 l 1
 253 -246 345 -147 468 -147 c 0x7b
 610 -147 657 -282 729 -282 c 0
 772 -282 793 -237 794 -160 c 1
 952 -160 l 1
 952 -330 859 -435 738 -435 c 0xbd
1076 250 m 1
 1076 0 l 1
 120 0 l 1
 120 1443 l 1
 1076 1443 l 1
 1076 1194 l 1
 422 1194 l 1
 422 846 l 1
 1039 846 l 1
 1039 614 l 1
 422 614 l 1
 422 250 l 1
 1076 250 l 1
EndSplineSet
EndChar

StartChar: Edotaccent
Encoding: 278 278 75
Width: 1174
Flags: MW
HStem: 0 250<422 1076 422 1076> 614 232<422 1039 422 1039> 1194 249<422 1076 422 422> 1561 297<556 640>
VStem: 120 302<250 614 846 1194> 449 298<1669 1751>
LayerCount: 2
Fore
SplineSet
598 1561 m 0
 514 1561 449 1628 449 1710 c 0
 449 1792 514 1858 598 1858 c 0
 682 1858 747 1792 747 1710 c 0
 747 1628 682 1561 598 1561 c 0
1076 250 m 1
 1076 0 l 1
 120 0 l 1
 120 1443 l 1
 1076 1443 l 1
 1076 1194 l 1
 422 1194 l 1
 422 846 l 1
 1039 846 l 1
 1039 614 l 1
 422 614 l 1
 422 250 l 1xe8
 1076 250 l 1
EndSplineSet
EndChar

StartChar: Ecedilla
Encoding: 552 552 76
Width: 1174
Flags: MW
HStem: -461 122<557.5 585> -228 112<482 699.5> 0 250<422 540 690 1076 690 690> 614 232<422 1039 422 1039> 1194 249<422 1076 422 422>
VStem: 120 302<250 614 846 1194> 663 163<-302.5 -263.5>
LayerCount: 2
Fore
SplineSet
1076 1194 m 1
 422 1194 l 1
 422 846 l 1
 1039 846 l 1
 1039 614 l 1
 422 614 l 1
 422 250 l 1
 1076 250 l 1
 1076 0 l 1
 690 0 l 1
 641 -116 l 1
 758 -116 826 -174 826 -275 c 0
 826 -390 736 -460 585 -461 c 0
 530 -461 481 -456 445 -445 c 1
 445 -325 l 1
 468 -333 516 -339 556 -339 c 0
 628 -339 663 -321 663 -284 c 0
 663 -243 628 -228 538 -228 c 2
 482 -228 l 1
 482 -127 l 1
 540 0 l 1
 120 0 l 1
 120 1443 l 1
 1076 1443 l 1
 1076 1194 l 1
EndSplineSet
EndChar

StartChar: Ecedillabreve
Encoding: 7708 7708 77
Width: 1174
Flags: MW
HStem: -461 122<557.5 585> -228 112<482 699.5> 0 250<422 540 690 1076 690 690> 614 232<422 1039 422 1039> 1194 249<422 1076 422 422> 1543 145<546 650 546 707>
VStem: 120 302<250 614 846 1194> 245 581 663 288
LayerCount: 2
Fore
SplineSet
773 1860 m 1xfe80
 951 1860 l 1xfe80
 948 1682 816 1543 598 1543 c 0
 380 1543 248 1682 245 1860 c 1xfd
 423 1860 l 1
 425 1762 494 1688 598 1688 c 0
 702 1688 771 1762 773 1860 c 1xfe80
1076 1194 m 1
 422 1194 l 1
 422 846 l 1
 1039 846 l 1
 1039 614 l 1
 422 614 l 1
 422 250 l 1xfe80
 1076 250 l 1
 1076 0 l 1
 690 0 l 1
 641 -116 l 1
 758 -116 826 -174 826 -275 c 0xfd
 826 -390 736 -460 585 -461 c 0
 530 -461 481 -456 445 -445 c 1
 445 -325 l 1
 468 -333 516 -339 556 -339 c 0
 628 -339 663 -321 663 -284 c 0
 663 -243 628 -228 538 -228 c 2
 482 -228 l 1
 482 -127 l 1
 540 0 l 1
 120 0 l 1
 120 1443 l 1
 1076 1443 l 1
 1076 1194 l 1
EndSplineSet
EndChar

StartChar: Eogonek
Encoding: 280 280 78
Width: 1174
Flags: MW
HStem: -453 167<862 1018.5> 0 250<422 830> 614 232<422 1039 422 1039> 1194 249<422 1076 422 422>
VStem: 120 302<250 614 846 1194> 685 202<-214.5 -187.5>
LayerCount: 2
Fore
SplineSet
830 0 m 1
 120 0 l 1
 120 1443 l 1
 1076 1443 l 1
 1076 1194 l 1
 422 1194 l 1
 422 846 l 1
 1039 846 l 1
 1039 614 l 1
 422 614 l 1
 422 250 l 1
 1076 250 l 1
 1076 29 l 1
 949 -29 887 -100 887 -184 c 0
 887 -245 933 -286 1004 -286 c 0
 1033 -286 1055 -284 1076 -278 c 1
 1076 -432 l 1
 1047 -445 996 -453 939 -453 c 0
 785 -453 685 -368 685 -237 c 0
 685 -138 731 -63 830 0 c 1
EndSplineSet
EndChar

StartChar: F
Encoding: 70 70 79
Width: 1123
Flags: MW
HStem: 0 21G<120 422 120 120> 568 239<422 1009 422 1009> 1194 249<422 1065 422 422>
VStem: 120 302<0 568 807 1194>
LayerCount: 2
Fore
SplineSet
422 0 m 1
 120 0 l 1
 120 1443 l 1
 1065 1443 l 1
 1065 1194 l 1
 422 1194 l 1
 422 807 l 1
 1009 807 l 1
 1009 568 l 1
 422 568 l 1
 422 0 l 1
EndSplineSet
EndChar

StartChar: Fdotaccent
Encoding: 7710 7710 80
Width: 1123
Flags: MW
HStem: 0 21G<120 422 120 120> 568 239<422 1009 422 1009> 1194 249<422 1065 422 422> 1561 297<538 622>
VStem: 120 302<0 568 807 1194> 431 298<1669 1751>
LayerCount: 2
Fore
SplineSet
580 1561 m 0
 496 1561 431 1628 431 1710 c 0
 431 1792 496 1858 580 1858 c 0
 664 1858 729 1792 729 1710 c 0
 729 1628 664 1561 580 1561 c 0
422 0 m 1xf8
 120 0 l 1
 120 1443 l 1
 1065 1443 l 1
 1065 1194 l 1
 422 1194 l 1
 422 807 l 1
 1009 807 l 1
 1009 568 l 1
 422 568 l 1
 422 0 l 1xf8
EndSplineSet
EndChar

StartChar: G
Encoding: 71 71 81
Width: 1489
Flags: MW
HStem: -25 251<655 873.5 655 971> 549 220<802 1116 802 1410> 1218 250<645 845.5>
VStem: 75 308<573.5 883.5 573.5 957> 1115 295<526 526>
LayerCount: 2
Fore
SplineSet
1410 606 m 2
 1410 213 1172 -25 770 -25 c 0
 339 -25 75 257 75 726 c 0
 75 1188 339 1468 763 1468 c 0
 1100 1468 1354 1269 1397 977 c 1
 1094 977 l 1
 1050 1128 927 1218 764 1218 c 0
 526 1218 383 1037 383 730 c 0
 383 417 535 226 775 226 c 0
 972 226 1109 347 1115 526 c 2
 1116 549 l 1
 802 549 l 1
 802 769 l 1
 1410 769 l 1
 1410 606 l 2
EndSplineSet
EndChar

StartChar: Gacute
Encoding: 500 500 82
Width: 1489
Flags: MW
HStem: -25 251<655 873.5 655 971> 549 220<802 1116 802 1410> 1218 250<645 845.5> 1553 310<632 1137 632 1137>
VStem: 75 308<573.5 883.5 573.5 957> 1115 295<526 526>
LayerCount: 2
Fore
SplineSet
860 1553 m 1
 632 1553 l 1
 864 1863 l 1
 1137 1863 l 1
 860 1553 l 1
1410 606 m 2
 1410 213 1172 -25 770 -25 c 0
 339 -25 75 257 75 726 c 0
 75 1188 339 1468 763 1468 c 0
 1100 1468 1354 1269 1397 977 c 1
 1094 977 l 1
 1050 1128 927 1218 764 1218 c 0
 526 1218 383 1037 383 730 c 0
 383 417 535 226 775 226 c 0
 972 226 1109 347 1115 526 c 2
 1116 549 l 1
 802 549 l 1
 802 769 l 1
 1410 769 l 1
 1410 606 l 2
EndSplineSet
EndChar

StartChar: Gcaron
Encoding: 486 486 83
Width: 1489
Flags: MW
HStem: -25 251<655 873.5 655 971> 549 220<802 1116 802 1410> 1218 250<645 845.5> 1543 318<363 637 363 865>
VStem: 75 308<573.5 883.5 573.5 957> 1115 295<526 526>
LayerCount: 2
Fore
SplineSet
637 1543 m 1
 363 1861 l 1
 585 1861 l 1
 748 1664 l 1
 754 1664 l 1
 917 1861 l 1
 1139 1861 l 1
 865 1543 l 1
 637 1543 l 1
1410 606 m 2
 1410 213 1172 -25 770 -25 c 0
 339 -25 75 257 75 726 c 0
 75 1188 339 1468 763 1468 c 0
 1100 1468 1354 1269 1397 977 c 1
 1094 977 l 1
 1050 1128 927 1218 764 1218 c 0
 526 1218 383 1037 383 730 c 0
 383 417 535 226 775 226 c 0
 972 226 1109 347 1115 526 c 2
 1116 549 l 1
 802 549 l 1
 802 769 l 1
 1410 769 l 1
 1410 606 l 2
EndSplineSet
EndChar

StartChar: Gcircumflex
Encoding: 284 284 84
Width: 1489
Flags: MW
HStem: -25 251<655 873.5 655 971> 549 220<802 1116 802 1410> 1218 250<645 845.5> 1543 318<363 865 363 865 637 1139 637 917>
VStem: 75 308<573.5 883.5 573.5 957> 1115 295<526 526>
LayerCount: 2
Fore
SplineSet
637 1861 m 1
 865 1861 l 1
 1139 1543 l 1
 917 1543 l 1
 754 1740 l 1
 748 1740 l 1
 585 1543 l 1
 363 1543 l 1
 637 1861 l 1
1410 606 m 2
 1410 213 1172 -25 770 -25 c 0
 339 -25 75 257 75 726 c 0
 75 1188 339 1468 763 1468 c 0
 1100 1468 1354 1269 1397 977 c 1
 1094 977 l 1
 1050 1128 927 1218 764 1218 c 0
 526 1218 383 1037 383 730 c 0
 383 417 535 226 775 226 c 0
 972 226 1109 347 1115 526 c 2
 1116 549 l 1
 802 549 l 1
 802 769 l 1
 1410 769 l 1
 1410 606 l 2
EndSplineSet
EndChar

StartChar: Gbreve
Encoding: 286 286 85
Width: 1489
Flags: MW
HStem: -25 251<655 873.5 655 971> 549 220<802 1116 802 1410> 1218 250<645 845.5> 1543 145<699 803 699 860>
VStem: 75 308<573.5 883.5 573.5 957> 1115 295<526 526>
LayerCount: 2
Fore
SplineSet
1410 606 m 2
 1410 213 1172 -25 770 -25 c 0
 339 -25 75 257 75 726 c 0
 75 1188 339 1468 763 1468 c 0
 1100 1468 1354 1269 1397 977 c 1
 1094 977 l 1
 1050 1128 927 1218 764 1218 c 0
 526 1218 383 1037 383 730 c 0
 383 417 535 226 775 226 c 0
 972 226 1109 347 1115 526 c 2
 1116 549 l 1
 802 549 l 1
 802 769 l 1
 1410 769 l 1
 1410 606 l 2
398 1860 m 1
 576 1860 l 1
 578 1762 647 1688 751 1688 c 0
 855 1688 924 1762 926 1860 c 1
 1104 1860 l 1
 1101 1682 969 1543 751 1543 c 0
 533 1543 401 1682 398 1860 c 1
EndSplineSet
EndChar

StartChar: Gmacron
Encoding: 7712 7712 86
Width: 1489
Flags: MW
HStem: -25 251<655 873.5 655 971> 549 220<802 1116 802 1410> 1218 250<645 845.5> 1624 143<405 1097 405 1097>
VStem: 75 308<573.5 883.5 573.5 957> 1115 295<526 526>
LayerCount: 2
Fore
SplineSet
1410 606 m 2
 1410 213 1172 -25 770 -25 c 0
 339 -25 75 257 75 726 c 0
 75 1188 339 1468 763 1468 c 0
 1100 1468 1354 1269 1397 977 c 1
 1094 977 l 1
 1050 1128 927 1218 764 1218 c 0
 526 1218 383 1037 383 730 c 0
 383 417 535 226 775 226 c 0
 972 226 1109 347 1115 526 c 2
 1116 549 l 1
 802 549 l 1
 802 769 l 1
 1410 769 l 1
 1410 606 l 2
1097 1767 m 1
 1097 1624 l 1
 405 1624 l 1
 405 1767 l 1
 1097 1767 l 1
EndSplineSet
EndChar

StartChar: Gdotaccent
Encoding: 288 288 87
Width: 1489
Flags: MW
HStem: -25 251<655 873.5 655 971> 549 220<802 1116 802 1410> 1218 250<645 845.5> 1561 297<709 793>
VStem: 75 308<573.5 883.5 573.5 957> 602 298<1669 1751> 1115 295<526 526>
LayerCount: 2
Fore
SplineSet
751 1561 m 0
 667 1561 602 1628 602 1710 c 0
 602 1792 667 1858 751 1858 c 0
 835 1858 900 1792 900 1710 c 0
 900 1628 835 1561 751 1561 c 0
1410 606 m 2
 1410 213 1172 -25 770 -25 c 0
 339 -25 75 257 75 726 c 0
 75 1188 339 1468 763 1468 c 0
 1100 1468 1354 1269 1397 977 c 1
 1094 977 l 1
 1050 1128 927 1218 764 1218 c 0
 526 1218 383 1037 383 730 c 0
 383 417 535 226 775 226 c 0
 972 226 1109 347 1115 526 c 2
 1116 549 l 1
 802 549 l 1
 802 769 l 1
 1410 769 l 1
 1410 606 l 2
EndSplineSet
EndChar

StartChar: Gcommaaccent
Encoding: 290 290 88
Width: 1489
Flags: MW
HStem: -500 345<633 729 512 889> -25 251<655 873.5 655 971> 549 220<802 1116 802 1410> 1218 250<645 845.5>
VStem: 75 308<573.5 883.5 573.5 957> 1115 295<526 526>
LayerCount: 2
Fore
SplineSet
729 -500 m 1
 512 -500 l 1
 633 -155 l 1
 889 -155 l 1
 729 -500 l 1
1410 606 m 2
 1410 213 1172 -25 770 -25 c 0
 339 -25 75 257 75 726 c 0
 75 1188 339 1468 763 1468 c 0
 1100 1468 1354 1269 1397 977 c 1
 1094 977 l 1
 1050 1128 927 1218 764 1218 c 0
 526 1218 383 1037 383 730 c 0
 383 417 535 226 775 226 c 0
 972 226 1109 347 1115 526 c 2
 1116 549 l 1
 802 549 l 1
 802 769 l 1
 1410 769 l 1
 1410 606 l 2
EndSplineSet
EndChar

StartChar: H
Encoding: 72 72 89
Width: 1494
Flags: MW
HStem: 0 21G<120 422 120 120 1072 1374 1072 1072> 608 249<422 1072 422 1072> 1423 20G<120 422 422 422 1072 1374 1374 1374>
VStem: 120 302<0 608 0 857 857 1443> 1072 302<0 608 608 608 857 1443>
LayerCount: 2
Fore
SplineSet
1374 0 m 1
 1072 0 l 1
 1072 608 l 1
 422 608 l 1
 422 0 l 1
 120 0 l 1
 120 1443 l 1
 422 1443 l 1
 422 857 l 1
 1072 857 l 1
 1072 1443 l 1
 1374 1443 l 1
 1374 0 l 1
EndSplineSet
EndChar

StartChar: Hdieresis
Encoding: 7718 7718 90
Width: 1494
Flags: MW
HStem: 0 21G<120 422 120 120 1072 1374 1072 1072> 608 249<422 1072 422 1072> 1423 20G<120 422 422 422 1072 1374 1374 1374> 1561 262<499.5 576.5 918.5 995.5>
VStem: 120 302<0 608 0 857 857 1443> 403 270<1656 1728> 822 270<1656 1728> 1072 302<0 608 608 608 857 1443>
LayerCount: 2
Fore
SplineSet
1374 0 m 1xf9
 1072 0 l 1
 1072 608 l 1
 422 608 l 1
 422 0 l 1
 120 0 l 1
 120 1443 l 1
 422 1443 l 1
 422 857 l 1
 1072 857 l 1
 1072 1443 l 1
 1374 1443 l 1
 1374 0 l 1xf9
538 1561 m 0xf6
 461 1561 403 1620 403 1692 c 0
 403 1764 461 1823 538 1823 c 0
 615 1823 673 1764 673 1692 c 0
 673 1620 615 1561 538 1561 c 0xf6
957 1561 m 0
 880 1561 822 1620 822 1692 c 0
 822 1764 880 1823 957 1823 c 0
 1034 1823 1092 1764 1092 1692 c 0
 1092 1620 1034 1561 957 1561 c 0
EndSplineSet
EndChar

StartChar: Hcaron
Encoding: 542 542 91
Width: 1494
Flags: MW
HStem: 0 21G<120 422 120 120 1072 1374 1072 1072> 608 249<422 1072 422 1072> 1423 20G<120 422 422 422 1072 1374 1374 1374> 1543 318<359 633 359 861>
VStem: 120 302<0 608 0 857 857 1443> 1072 302<0 608 608 608 857 1443>
LayerCount: 2
Fore
SplineSet
1374 0 m 1
 1072 0 l 1
 1072 608 l 1
 422 608 l 1
 422 0 l 1
 120 0 l 1
 120 1443 l 1
 422 1443 l 1
 422 857 l 1
 1072 857 l 1
 1072 1443 l 1
 1374 1443 l 1
 1374 0 l 1
633 1543 m 1
 359 1861 l 1
 581 1861 l 1
 744 1664 l 1
 750 1664 l 1
 913 1861 l 1
 1135 1861 l 1
 861 1543 l 1
 633 1543 l 1
EndSplineSet
EndChar

StartChar: Hcircumflex
Encoding: 292 292 92
Width: 1494
Flags: MW
HStem: 0 21G<120 422 120 120 1072 1374 1072 1072> 608 249<422 1072 422 1072> 1423 20G<120 422 422 422 1072 1374 1374 1374> 1543 318<359 861 359 861 633 1135 633 913>
VStem: 120 302<0 608 0 857 857 1443> 1072 302<0 608 608 608 857 1443>
LayerCount: 2
Fore
SplineSet
1374 0 m 1
 1072 0 l 1
 1072 608 l 1
 422 608 l 1
 422 0 l 1
 120 0 l 1
 120 1443 l 1
 422 1443 l 1
 422 857 l 1
 1072 857 l 1
 1072 1443 l 1
 1374 1443 l 1
 1374 0 l 1
633 1861 m 1
 861 1861 l 1
 1135 1543 l 1
 913 1543 l 1
 750 1740 l 1
 744 1740 l 1
 581 1543 l 1
 359 1543 l 1
 633 1861 l 1
EndSplineSet
EndChar

StartChar: Hdotbelow
Encoding: 7716 7716 93
Width: 1494
Flags: MW
HStem: -458 297<705 789> 0 21G<120 422 120 120 1072 1374 1072 1072> 608 249<422 1072 422 1072> 1423 20G<120 422 422 422 1072 1374 1374 1374>
VStem: 120 302<0 608 0 857 857 1443> 598 298<-350 -268> 1072 302<0 608 608 608 857 1443>
LayerCount: 2
Fore
SplineSet
1374 0 m 1
 1072 0 l 1
 1072 608 l 1
 422 608 l 1
 422 0 l 1
 120 0 l 1
 120 1443 l 1
 422 1443 l 1
 422 857 l 1
 1072 857 l 1
 1072 1443 l 1
 1374 1443 l 1
 1374 0 l 1
747 -458 m 0
 663 -458 598 -391 598 -309 c 0
 598 -227 663 -161 747 -161 c 0
 831 -161 896 -227 896 -309 c 0
 896 -391 831 -458 747 -458 c 0
EndSplineSet
EndChar

StartChar: Hdotaccent
Encoding: 7714 7714 94
Width: 1494
Flags: MW
HStem: 0 21G<120 422 120 120 1072 1374 1072 1072> 608 249<422 1072 422 1072> 1423 20G<120 422 422 422 1072 1374 1374 1374> 1561 297<705 789>
VStem: 120 302<0 608 0 857 857 1443> 598 298<1669 1751> 1072 302<0 608 608 608 857 1443>
LayerCount: 2
Fore
SplineSet
1374 0 m 1
 1072 0 l 1
 1072 608 l 1
 422 608 l 1
 422 0 l 1
 120 0 l 1
 120 1443 l 1
 422 1443 l 1
 422 857 l 1
 1072 857 l 1
 1072 1443 l 1
 1374 1443 l 1
 1374 0 l 1
747 1561 m 0
 663 1561 598 1628 598 1710 c 0
 598 1792 663 1858 747 1858 c 0
 831 1858 896 1792 896 1710 c 0
 896 1628 831 1561 747 1561 c 0
EndSplineSet
EndChar

StartChar: Hbrevebelow
Encoding: 7722 7722 95
Width: 1494
Flags: MW
HStem: -493 145<695 799 695 856> 0 21G<120 422 120 120 1072 1374 1072 1072> 608 249<422 1072 422 1072> 1423 20G<120 422 422 422 1072 1374 1374 1374>
VStem: 120 302<0 608 0 857 857 1443> 1072 302<0 608 608 608 857 1443>
LayerCount: 2
Fore
SplineSet
394 -176 m 1
 572 -176 l 1
 574 -274 643 -348 747 -348 c 0
 851 -348 920 -274 922 -176 c 1
 1100 -176 l 1
 1097 -354 965 -493 747 -493 c 0
 529 -493 397 -354 394 -176 c 1
1374 0 m 1
 1072 0 l 1
 1072 608 l 1
 422 608 l 1
 422 0 l 1
 120 0 l 1
 120 1443 l 1
 422 1443 l 1
 422 857 l 1
 1072 857 l 1
 1072 1443 l 1
 1374 1443 l 1
 1374 0 l 1
EndSplineSet
EndChar

StartChar: Hcedilla
Encoding: 7720 7720 96
Width: 1494
Flags: MW
HStem: -461 122<179.5 207> -228 112<104 321.5> 0 21G<120 162 120 120 312 422 312 312 1072 1374 1072 1072> 608 249<422 1072 422 1072> 1423 20G<120 422 422 422 1072 1374 1374 1374>
VStem: 120 302<0 608 0 857 857 1443> 285 163<-302.5 -263.5> 1072 302<0 608 608 608 857 1443 0 1443>
LayerCount: 2
Fore
SplineSet
1072 1443 m 1xfd
 1374 1443 l 1
 1374 0 l 1
 1072 0 l 1
 1072 608 l 1
 422 608 l 1
 422 0 l 1xfd
 312 0 l 1
 263 -116 l 1
 380 -116 448 -174 448 -275 c 0
 448 -390 358 -460 207 -461 c 0
 152 -461 103 -456 67 -445 c 1
 67 -325 l 1
 90 -333 138 -339 178 -339 c 0
 250 -339 285 -321 285 -284 c 0xfb
 285 -243 250 -228 160 -228 c 2
 104 -228 l 1
 104 -127 l 1
 162 0 l 1
 120 0 l 1
 120 1443 l 1
 422 1443 l 1
 422 857 l 1
 1072 857 l 1
 1072 1443 l 1xfd
EndSplineSet
EndChar

StartChar: Hbar
Encoding: 294 294 97
Width: 1536
Flags: MW
HStem: 0 21G<141 443 141 141 1093 1395 1093 1093> 608 249<443 1093 443 1093> 1052 211<36 141 36 141 443 1093 1395 1501> 1052 391<36 443 36 443 141 1093 141 443>
VStem: 141 302<0 608 857 1052 1263 1443> 1093 302<0 608 608 608 857 1052 0 1052 1263 1443>
LayerCount: 2
Fore
SplineSet
1093 857 m 1xdc
 1093 1052 l 1
 443 1052 l 1
 443 857 l 1
 1093 857 l 1xdc
1501 1263 m 1xec
 1501 1052 l 1
 1395 1052 l 1
 1395 0 l 1
 1093 0 l 1
 1093 608 l 1
 443 608 l 1
 443 0 l 1
 141 0 l 1
 141 1052 l 1
 36 1052 l 1xdc
 36 1263 l 1
 141 1263 l 1xec
 141 1443 l 1
 443 1443 l 1xdc
 443 1263 l 1
 1093 1263 l 1xec
 1093 1443 l 1
 1395 1443 l 1xdc
 1395 1263 l 1
 1501 1263 l 1xec
EndSplineSet
EndChar

StartChar: I
Encoding: 73 73 98
Width: 542
Flags: MW
HStem: 0 21G<120 422 120 120> 1423 20G<120 422 422 422>
VStem: 120 302<0 1443>
LayerCount: 2
Fore
SplineSet
422 0 m 1
 120 0 l 1
 120 1443 l 1
 422 1443 l 1
 422 0 l 1
EndSplineSet
EndChar

StartChar: Idotaccent
Encoding: 304 304 99
Width: 542
Flags: MW
HStem: 0 21G<120 422 120 120> 1423 20G<120 422 422 422> 1561 297<229 313>
VStem: 120 302<0 1443>
LayerCount: 2
Fore
SplineSet
422 0 m 1
 120 0 l 1
 120 1443 l 1
 422 1443 l 1
 422 0 l 1
271 1561 m 0
 187 1561 122 1628 122 1710 c 0
 122 1792 187 1858 271 1858 c 0
 355 1858 420 1792 420 1710 c 0
 420 1628 355 1561 271 1561 c 0
EndSplineSet
EndChar

StartChar: Igrave
Encoding: 204 204 100
Width: 542
Flags: MW
HStem: 0 21G<120 422 120 120> 1423 20G<120 422 422 422> 1558 310<-117 161 -117 388>
VStem: 120 302<0 1443>
LayerCount: 2
Fore
SplineSet
422 0 m 1
 120 0 l 1
 120 1443 l 1
 422 1443 l 1
 422 0 l 1
161 1558 m 1
 -117 1868 l 1
 156 1868 l 1
 388 1558 l 1
 161 1558 l 1
EndSplineSet
EndChar

StartChar: Idblgrave
Encoding: 520 520 101
Width: 542
Flags: MW
HStem: 0 21G<120 422 120 120> 1423 20G<120 422 422 422> 1553 310<-312 -34 83 188>
VStem: 120 302<0 1443>
LayerCount: 2
Fore
SplineSet
422 0 m 1
 120 0 l 1
 120 1443 l 1
 422 1443 l 1
 422 0 l 1
361 1553 m 1
 83 1863 l 1
 352 1863 l 1
 583 1553 l 1
 361 1553 l 1
-34 1553 m 1
 -312 1863 l 1
 -44 1863 l 1
 188 1553 l 1
 -34 1553 l 1
EndSplineSet
EndChar

StartChar: Iacute
Encoding: 205 205 102
Width: 542
Flags: MW
HStem: 0 21G<120 422 120 120> 1423 20G<120 422 422 422> 1553 310<152 657 152 657>
VStem: 120 302<0 1443>
LayerCount: 2
Fore
SplineSet
422 0 m 1
 120 0 l 1
 120 1443 l 1
 422 1443 l 1
 422 0 l 1
380 1553 m 1
 152 1553 l 1
 384 1863 l 1
 657 1863 l 1
 380 1553 l 1
EndSplineSet
EndChar

StartChar: Icircumflex
Encoding: 206 206 103
Width: 542
Flags: MW
HStem: 0 21G<120 422 120 120> 1423 20G<120 422 422 422> 1543 318<-117 385 -117 385 157 659 157 437>
VStem: 120 302<0 1443>
LayerCount: 2
Fore
SplineSet
422 0 m 1
 120 0 l 1
 120 1443 l 1
 422 1443 l 1
 422 0 l 1
157 1861 m 1
 385 1861 l 1
 659 1543 l 1
 437 1543 l 1
 274 1740 l 1
 268 1740 l 1
 105 1543 l 1
 -117 1543 l 1
 157 1861 l 1
EndSplineSet
EndChar

StartChar: Icaron
Encoding: 463 463 104
Width: 542
Flags: MW
HStem: 0 21G<120 422 120 120> 1423 20G<120 422 422 422> 1543 318<-117 157 -117 385>
VStem: 120 302<0 1443>
LayerCount: 2
Fore
SplineSet
422 0 m 1
 120 0 l 1
 120 1443 l 1
 422 1443 l 1
 422 0 l 1
157 1543 m 1
 -117 1861 l 1
 105 1861 l 1
 268 1664 l 1
 274 1664 l 1
 437 1861 l 1
 659 1861 l 1
 385 1543 l 1
 157 1543 l 1
EndSplineSet
EndChar

StartChar: Idieresis
Encoding: 207 207 105
Width: 542
Flags: MW
HStem: 0 21G<120 422 120 120> 1423 20G<120 422 422 422> 1561 262<23.5 100.5 442.5 519.5>
VStem: -73 270<1656 1728> 120 302<0 1443> 346 270<1656 1728>
LayerCount: 2
Fore
SplineSet
422 0 m 1xe8
 120 0 l 1
 120 1443 l 1
 422 1443 l 1
 422 0 l 1xe8
62 1561 m 0xf4
 -15 1561 -73 1620 -73 1692 c 0
 -73 1764 -15 1823 62 1823 c 0
 139 1823 197 1764 197 1692 c 0
 197 1620 139 1561 62 1561 c 0xf4
481 1561 m 0
 404 1561 346 1620 346 1692 c 0
 346 1764 404 1823 481 1823 c 0
 558 1823 616 1764 616 1692 c 0
 616 1620 558 1561 481 1561 c 0
EndSplineSet
EndChar

StartChar: Idieresisacute
Encoding: 7726 7726 106
Width: 542
Flags: MW
HStem: 0 21G<120 422 120 120> 1423 20G<120 422 422 422> 1564 249<30 103 439 512> 1887 243<159 607 353 370>
VStem: -62 257<1654.5 1723> 120 302<0 1443> 347 257<1654.5 1723>
LayerCount: 2
Fore
SplineSet
422 0 m 1xf4
 120 0 l 1
 120 1443 l 1
 422 1443 l 1
 422 0 l 1xf4
159 1887 m 1
 353 2130 l 1
 607 2130 l 1
 370 1887 l 1
 159 1887 l 1
67 1564 m 0xfa
 -7 1564 -62 1620 -62 1689 c 0
 -62 1757 -7 1813 67 1813 c 0
 139 1813 195 1757 195 1689 c 0
 195 1620 139 1564 67 1564 c 0xfa
475 1564 m 0
 403 1564 347 1620 347 1689 c 0
 347 1757 403 1813 475 1813 c 0
 549 1813 604 1757 604 1689 c 0
 604 1620 549 1564 475 1564 c 0
EndSplineSet
EndChar

StartChar: Ibreve
Encoding: 300 300 107
Width: 542
Flags: MW
HStem: 0 21G<120 422 120 120> 1423 20G<120 422 422 422> 1543 145<219 323 219 380>
VStem: 120 302<0 1443>
LayerCount: 2
Fore
SplineSet
422 0 m 1
 120 0 l 1
 120 1443 l 1
 422 1443 l 1
 422 0 l 1
-82 1860 m 1
 96 1860 l 1
 98 1762 167 1688 271 1688 c 0
 375 1688 444 1762 446 1860 c 1
 624 1860 l 1
 621 1682 489 1543 271 1543 c 0
 53 1543 -79 1682 -82 1860 c 1
EndSplineSet
EndChar

StartChar: Idotbelow
Encoding: 7882 7882 108
Width: 542
Flags: MW
HStem: -458 297<229 313> 0 21G<120 422 120 120> 1423 20G<120 422 422 422>
VStem: 120 302<0 1443>
LayerCount: 2
Fore
SplineSet
422 0 m 1
 120 0 l 1
 120 1443 l 1
 422 1443 l 1
 422 0 l 1
271 -458 m 0
 187 -458 122 -391 122 -309 c 0
 122 -227 187 -161 271 -161 c 0
 355 -161 420 -227 420 -309 c 0
 420 -391 355 -458 271 -458 c 0
EndSplineSet
EndChar

StartChar: Iinvertedbreve
Encoding: 522 522 109
Width: 542
Flags: MW
HStem: 0 21G<120 422 120 120> 1423 20G<120 422 422 422> 1715 145<219 323>
VStem: 120 302<0 1443>
LayerCount: 2
Fore
SplineSet
422 0 m 1
 120 0 l 1
 120 1443 l 1
 422 1443 l 1
 422 0 l 1
-82 1543 m 1
 -79 1721 53 1860 271 1860 c 0
 489 1860 621 1721 624 1543 c 1
 446 1543 l 1
 444 1641 375 1715 271 1715 c 0
 167 1715 98 1641 96 1543 c 1
 -82 1543 l 1
EndSplineSet
EndChar

StartChar: Imacron
Encoding: 298 298 110
Width: 542
Flags: MW
HStem: 0 21G<120 422 120 120> 1423 20G<120 422 422 422> 1624 143<-75 617 -75 617>
VStem: 120 302<0 1443>
LayerCount: 2
Fore
SplineSet
422 0 m 1
 120 0 l 1
 120 1443 l 1
 422 1443 l 1
 422 0 l 1
617 1767 m 1
 617 1624 l 1
 -75 1624 l 1
 -75 1767 l 1
 617 1767 l 1
EndSplineSet
EndChar

StartChar: Itildebelow
Encoding: 7724 7724 111
Width: 542
Flags: MW
HStem: -435 153<366 423.5 366 471.5> -299 152<130.5 190> 0 21G<120 422 120 120> 1423 20G<120 422 422 422>
VStem: -74 158<-418 -332> 120 302<0 1443> 467 158<-245 -160>
LayerCount: 2
Fore
SplineSet
422 0 m 1x74
 120 0 l 1
 120 1443 l 1
 422 1443 l 1
 422 0 l 1x74
411 -435 m 0xb6
 274 -435 227 -299 153 -299 c 0
 108 -299 85 -348 84 -418 c 1
 -74 -418 l 1
 -74 -246 18 -147 141 -147 c 0x7c
 283 -147 330 -282 402 -282 c 0
 445 -282 466 -237 467 -160 c 1
 625 -160 l 1
 625 -330 532 -435 411 -435 c 0xb6
EndSplineSet
EndChar

StartChar: Ihookabove
Encoding: 7880 7880 112
Width: 542
Flags: MW
HStem: 0 21G<120 422 120 120> 1423 20G<120 422 422 422> 1809 138<202.5 221>
VStem: 120 302<0 1443> 289 177<1714 1757.5>
LayerCount: 2
Fore
SplineSet
422 0 m 1xf0
 120 0 l 1
 120 1443 l 1
 422 1443 l 1
 422 0 l 1xf0
86 1790 m 1xe8
 86 1922 l 1
 121 1938 176 1947 229 1947 c 0
 373 1947 466 1873 466 1752 c 0
 466 1655 388 1567 278 1524 c 1
 192 1629 l 1
 249 1649 289 1692 289 1736 c 0
 289 1779 250 1809 192 1809 c 0
 159 1809 115 1802 86 1790 c 1xe8
EndSplineSet
EndChar

StartChar: Itilde
Encoding: 296 296 113
Width: 542
Flags: MW
HStem: 0 21G<120 422 120 120> 1423 20G<120 422 422 422> 1541 153<366 423.5 366 471.5> 1677 152<130.5 190>
VStem: -74 158<1558 1644> 120 302<0 1443> 467 158<1731 1816>
LayerCount: 2
Fore
SplineSet
422 0 m 1xd4
 120 0 l 1
 120 1443 l 1
 422 1443 l 1
 422 0 l 1xd4
411 1541 m 0xe6
 274 1541 227 1677 153 1677 c 0
 108 1677 85 1628 84 1558 c 1
 -74 1558 l 1
 -74 1730 18 1829 141 1829 c 0xdc
 283 1829 330 1694 402 1694 c 0
 445 1694 466 1739 467 1816 c 1
 625 1816 l 1
 625 1646 532 1541 411 1541 c 0xe6
EndSplineSet
EndChar

StartChar: Iogonek
Encoding: 302 302 114
Width: 542
Flags: MW
HStem: -453 167<199.5 347.5> 1423 20G<120 422 422 422>
VStem: 25 197<-210 -180> 120 302<12 1443 7 1443>
LayerCount: 2
Fore
SplineSet
273 -453 m 0xe0
 126 -453 25 -363 25 -232 c 0xe0
 25 -128 71 -55 179 12 c 1
 120 12 l 1
 120 1443 l 1
 422 1443 l 1
 422 7 l 1
 368 7 l 1
 271 -42 222 -103 222 -177 c 0xd0
 222 -243 269 -286 337 -286 c 0
 358 -286 377 -284 395 -281 c 1
 395 -436 l 1
 362 -447 320 -453 273 -453 c 0xe0
EndSplineSet
EndChar

StartChar: J
Encoding: 74 74 115
Width: 1143
Flags: MW
HStem: -30 261<459 579 459 673.5> 1423 20G<710 1012 1012 1012>
VStem: 31 293<287 425> 710 302<454 1443>
LayerCount: 2
Fore
SplineSet
31 425 m 1
 324 425 l 1
 326 308 402 231 516 231 c 0
 642 231 710 309 710 454 c 2
 710 1443 l 1
 1012 1443 l 1
 1012 452 l 2
 1012 145 828 -30 519 -30 c 0
 224 -30 31 149 31 425 c 1
EndSplineSet
EndChar

StartChar: Jcircumflex
Encoding: 308 308 116
Width: 1143
Flags: MW
HStem: -30 261<459 579 459 673.5> 1423 20G<710 1012 1012 1012> 1543 318<477 979 477 979 751 1253 751 1031>
VStem: 31 293<287 425> 710 302<454 1443>
LayerCount: 2
Fore
SplineSet
31 425 m 1
 324 425 l 1
 326 308 402 231 516 231 c 0
 642 231 710 309 710 454 c 2
 710 1443 l 1
 1012 1443 l 1
 1012 452 l 2
 1012 145 828 -30 519 -30 c 0
 224 -30 31 149 31 425 c 1
751 1861 m 1
 979 1861 l 1
 1253 1543 l 1
 1031 1543 l 1
 868 1740 l 1
 862 1740 l 1
 699 1543 l 1
 477 1543 l 1
 751 1861 l 1
EndSplineSet
EndChar

StartChar: K
Encoding: 75 75 117
Width: 1353
Flags: MW
HStem: 0 21G<120 422 120 120 985 985 985 1346> 1423 20G<120 422 422 422 973 1309 1309 1309>
VStem: 120 302<0 441 785 1443>
LayerCount: 2
Fore
SplineSet
422 0 m 1
 120 0 l 1
 120 1443 l 1
 422 1443 l 1
 422 785 l 1
 431 785 l 1
 973 1443 l 1
 1309 1443 l 1
 775 803 l 1
 1346 0 l 1
 985 0 l 1
 557 603 l 1
 422 441 l 1
 422 0 l 1
EndSplineSet
EndChar

StartChar: Kacute
Encoding: 7728 7728 118
Width: 1353
Flags: MW
HStem: 0 21G<120 422 120 120 985 985 985 1346> 1423 20G<120 422 422 422 973 1309 1309 1309> 1553 310<547 1052 547 1052>
VStem: 120 302<0 441 785 1443>
LayerCount: 2
Fore
SplineSet
775 1553 m 1
 547 1553 l 1
 779 1863 l 1
 1052 1863 l 1
 775 1553 l 1
422 0 m 1
 120 0 l 1
 120 1443 l 1
 422 1443 l 1
 422 785 l 1
 431 785 l 1
 973 1443 l 1
 1309 1443 l 1
 775 803 l 1
 1346 0 l 1
 985 0 l 1
 557 603 l 1
 422 441 l 1
 422 0 l 1
EndSplineSet
EndChar

StartChar: Kcaron
Encoding: 488 488 119
Width: 1353
Flags: MW
HStem: 0 21G<120 422 120 120 985 985 985 1346> 1423 20G<120 422 422 422 973 1309 1309 1309> 1543 318<278 552 278 780>
VStem: 120 302<0 441 785 1443>
LayerCount: 2
Fore
SplineSet
422 0 m 1
 120 0 l 1
 120 1443 l 1
 422 1443 l 1
 422 785 l 1
 431 785 l 1
 973 1443 l 1
 1309 1443 l 1
 775 803 l 1
 1346 0 l 1
 985 0 l 1
 557 603 l 1
 422 441 l 1
 422 0 l 1
552 1543 m 1
 278 1861 l 1
 500 1861 l 1
 663 1664 l 1
 669 1664 l 1
 832 1861 l 1
 1054 1861 l 1
 780 1543 l 1
 552 1543 l 1
EndSplineSet
EndChar

StartChar: Kdotbelow
Encoding: 7730 7730 120
Width: 1353
Flags: MW
HStem: -458 297<624 708> 0 21G<120 422 120 120 985 985 985 1346> 1423 20G<120 422 422 422 973 1309 1309 1309>
VStem: 120 302<0 441 785 1443> 517 298<-350 -268>
LayerCount: 2
Fore
SplineSet
666 -458 m 0
 582 -458 517 -391 517 -309 c 0
 517 -227 582 -161 666 -161 c 0
 750 -161 815 -227 815 -309 c 0
 815 -391 750 -458 666 -458 c 0
422 0 m 1
 120 0 l 1
 120 1443 l 1
 422 1443 l 1
 422 785 l 1
 431 785 l 1
 973 1443 l 1
 1309 1443 l 1
 775 803 l 1
 1346 0 l 1
 985 0 l 1
 557 603 l 1
 422 441 l 1
 422 0 l 1
EndSplineSet
EndChar

StartChar: Klinebelow
Encoding: 7732 7732 121
Width: 1353
Flags: MW
HStem: -373 143<320 1012 320 1012> 0 21G<120 422 120 120 985 985 985 1346> 1423 20G<120 422 422 422 973 1309 1309 1309>
VStem: 120 302<0 441 785 1443> 973 39
LayerCount: 2
Fore
SplineSet
422 0 m 1
 120 0 l 1
 120 1443 l 1
 422 1443 l 1
 422 785 l 1
 431 785 l 1
 973 1443 l 1
 1309 1443 l 1
 775 803 l 1
 1346 0 l 1
 985 0 l 1
 557 603 l 1
 422 441 l 1
 422 0 l 1
1012 -230 m 1
 1012 -373 l 1
 320 -373 l 1
 320 -230 l 1
 1012 -230 l 1
EndSplineSet
EndChar

StartChar: Kcommaaccent
Encoding: 310 310 122
Width: 1353
Flags: MW
HStem: -500 345<548 644 427 804> 0 21G<120 422 120 120 985 985 985 1346> 1423 20G<120 422 422 422 973 1309 1309 1309>
VStem: 120 302<0 441 785 1443>
LayerCount: 2
Fore
SplineSet
422 0 m 1
 120 0 l 1
 120 1443 l 1
 422 1443 l 1
 422 785 l 1
 431 785 l 1
 973 1443 l 1
 1309 1443 l 1
 775 803 l 1
 1346 0 l 1
 985 0 l 1
 557 603 l 1
 422 441 l 1
 422 0 l 1
644 -500 m 1
 427 -500 l 1
 548 -155 l 1
 804 -155 l 1
 644 -500 l 1
EndSplineSet
EndChar

StartChar: L
Encoding: 76 76 123
Width: 1112
Flags: MW
HStem: 0 250<422 1053 422 1053> 1423 20G<120 422 422 422>
VStem: 120 302<250 1443 250 1443 250 1443>
LayerCount: 2
Fore
SplineSet
1053 250 m 1
 1053 0 l 1
 120 0 l 1
 120 1443 l 1
 422 1443 l 1
 422 250 l 1
 1053 250 l 1
EndSplineSet
EndChar

StartChar: Lacute
Encoding: 313 313 124
Width: 1112
Flags: MW
HStem: 0 250<422 1053 422 1053> 1423 20G<120 422 422 422> 1553 310<152 657 152 657>
VStem: 120 302<250 1443 250 1443 250 1443>
LayerCount: 2
Fore
SplineSet
380 1553 m 1
 152 1553 l 1
 384 1863 l 1
 657 1863 l 1
 380 1553 l 1
1053 250 m 1
 1053 0 l 1
 120 0 l 1
 120 1443 l 1
 422 1443 l 1
 422 250 l 1
 1053 250 l 1
EndSplineSet
EndChar

StartChar: Lcircumflexbelow
Encoding: 7740 7740 125
Width: 1112
Flags: MW
HStem: -478 318<189 691 189 691 463 965 463 743> 0 250<422 1053 422 1053> 1423 20G<120 422 422 422>
VStem: 120 302<250 1443 250 1443 250 1443>
LayerCount: 2
Fore
SplineSet
1053 250 m 1
 1053 0 l 1
 120 0 l 1
 120 1443 l 1
 422 1443 l 1
 422 250 l 1
 1053 250 l 1
463 -160 m 1
 691 -160 l 1
 965 -478 l 1
 743 -478 l 1
 580 -281 l 1
 574 -281 l 1
 411 -478 l 1
 189 -478 l 1
 463 -160 l 1
EndSplineSet
EndChar

StartChar: Ldotbelow
Encoding: 7734 7734 126
Width: 1112
Flags: MW
HStem: -458 297<535 619> 0 250<422 1053 422 1053> 1423 20G<120 422 422 422>
VStem: 120 302<250 1443 250 1443 250 1443> 428 298<-350 -268>
LayerCount: 2
Fore
SplineSet
577 -458 m 0
 493 -458 428 -391 428 -309 c 0
 428 -227 493 -161 577 -161 c 0
 661 -161 726 -227 726 -309 c 0
 726 -391 661 -458 577 -458 c 0
1053 250 m 1
 1053 0 l 1
 120 0 l 1
 120 1443 l 1
 422 1443 l 1
 422 250 l 1xf0
 1053 250 l 1
EndSplineSet
EndChar

StartChar: Ldotbelowmacron
Encoding: 7736 7736 127
Width: 1112
Flags: MW
HStem: -458 297<535 619> 0 250<422 1053 422 1053> 1423 20G<120 422 422 422> 1624 143<-75 617 -75 617>
VStem: 120 302<250 1443 250 1443 250 1443> 428 189
LayerCount: 2
Fore
SplineSet
577 -458 m 0
 493 -458 428 -391 428 -309 c 0
 428 -227 493 -161 577 -161 c 0
 661 -161 726 -227 726 -309 c 0
 726 -391 661 -458 577 -458 c 0
1053 250 m 1
 1053 0 l 1
 120 0 l 1
 120 1443 l 1
 422 1443 l 1
 422 250 l 1xf8
 1053 250 l 1
617 1767 m 1xf4
 617 1624 l 1
 -75 1624 l 1
 -75 1767 l 1
 617 1767 l 1xf4
EndSplineSet
EndChar

StartChar: Llinebelow
Encoding: 7738 7738 128
Width: 1112
Flags: MW
HStem: -373 143<231 923 231 923> 0 250<422 1053 422 1053> 1423 20G<120 422 422 422>
VStem: 120 302<250 1443 250 1443 250 1443>
LayerCount: 2
Fore
SplineSet
923 -230 m 1
 923 -373 l 1
 231 -373 l 1
 231 -230 l 1
 923 -230 l 1
1053 250 m 1
 1053 0 l 1
 120 0 l 1
 120 1443 l 1
 422 1443 l 1
 422 250 l 1
 1053 250 l 1
EndSplineSet
EndChar

StartChar: Lcommaaccent
Encoding: 315 315 129
Width: 1112
Flags: MW
HStem: -500 345<459 555 338 715> 0 250<422 1053 422 1053> 1423 20G<120 422 422 422>
VStem: 120 302<250 1443 250 1443 250 1443>
LayerCount: 2
Fore
SplineSet
555 -500 m 1
 338 -500 l 1
 459 -155 l 1
 715 -155 l 1
 555 -500 l 1
1053 250 m 1
 1053 0 l 1
 120 0 l 1
 120 1443 l 1
 422 1443 l 1
 422 250 l 1
 1053 250 l 1
EndSplineSet
EndChar

StartChar: Lcaron
Encoding: 317 317 130
Width: 1112
Flags: MW
HStem: 0 250<422 1053 422 1053> 940 503<675 871 120 675> 1423 20G<120 422 422 422 675 921 921 921>
VStem: 120 302<250 1443 250 1443 250 1443>
LayerCount: 2
Fore
SplineSet
675 1443 m 1xb0
 921 1443 l 1
 871 940 l 1
 675 940 l 1xd0
 675 1443 l 1xb0
1053 250 m 1
 1053 0 l 1
 120 0 l 1
 120 1443 l 1
 422 1443 l 1
 422 250 l 1
 1053 250 l 1
EndSplineSet
EndChar

StartChar: Lslash
Encoding: 321 321 131
Width: 1128
Flags: MW
HStem: 0 250<438 1069 438 1069> 1423 20G<136 438 438 438>
VStem: 136 302<250 250 250 638 638 638 989 1443>
LayerCount: 2
Fore
SplineSet
438 250 m 1
 1069 250 l 1
 1069 0 l 1
 136 0 l 1
 136 638 l 1
 39 589 l 1
 39 788 l 1
 136 837 l 1
 136 1443 l 1
 438 1443 l 1
 438 989 l 1
 731 1137 l 1
 731 937 l 1
 438 790 l 1
 438 250 l 1
EndSplineSet
EndChar

StartChar: M
Encoding: 77 77 132
Width: 1768
Flags: MW
HStem: 0 21G<120 389 120 120 1379 1648 1379 1379> 1423 20G<120 470 470 470 1298 1648 1648 1648>
VStem: 120 269<0 974 0 1443> 1379 269<0 974 974 974>
LayerCount: 2
Fore
SplineSet
1648 1443 m 1
 1648 0 l 1
 1379 0 l 1
 1379 974 l 1
 1371 974 l 1
 979 14 l 1
 789 14 l 1
 397 974 l 1
 389 974 l 1
 389 0 l 1
 120 0 l 1
 120 1443 l 1
 470 1443 l 1
 880 420 l 1
 888 420 l 1
 1298 1443 l 1
 1648 1443 l 1
EndSplineSet
EndChar

StartChar: Macute
Encoding: 7742 7742 133
Width: 1768
Flags: MW
HStem: 0 21G<120 389 120 120 1379 1648 1379 1379> 1423 20G<120 470 470 470 1298 1648 1648 1648> 1553 310<765 1270 765 1270>
VStem: 120 269<0 974 0 1443> 1379 269<0 974 974 974>
LayerCount: 2
Fore
SplineSet
1648 1443 m 1
 1648 0 l 1
 1379 0 l 1
 1379 974 l 1
 1371 974 l 1
 979 14 l 1
 789 14 l 1
 397 974 l 1
 389 974 l 1
 389 0 l 1
 120 0 l 1
 120 1443 l 1
 470 1443 l 1
 880 420 l 1
 888 420 l 1
 1298 1443 l 1
 1648 1443 l 1
993 1553 m 1
 765 1553 l 1
 997 1863 l 1
 1270 1863 l 1
 993 1553 l 1
EndSplineSet
EndChar

StartChar: Mdotaccent
Encoding: 7744 7744 134
Width: 1768
Flags: MW
HStem: 0 21G<120 389 120 120 1379 1648 1379 1379> 1423 20G<120 470 470 470 1298 1648 1648 1648> 1561 297<842 926>
VStem: 120 269<0 974 0 1443> 735 244 789 244 1379 269<0 974 974 974>
LayerCount: 2
Fore
SplineSet
1648 1443 m 1xfa
 1648 0 l 1
 1379 0 l 1
 1379 974 l 1
 1371 974 l 1
 979 14 l 1xfa
 789 14 l 1xf6
 397 974 l 1
 389 974 l 1
 389 0 l 1
 120 0 l 1
 120 1443 l 1
 470 1443 l 1
 880 420 l 1
 888 420 l 1
 1298 1443 l 1
 1648 1443 l 1xfa
884 1561 m 0
 800 1561 735 1628 735 1710 c 0xfa
 735 1792 800 1858 884 1858 c 0
 968 1858 1033 1792 1033 1710 c 0xf6
 1033 1628 968 1561 884 1561 c 0
EndSplineSet
EndChar

StartChar: Mdotbelow
Encoding: 7746 7746 135
Width: 1768
Flags: MW
HStem: -458 297<842 926> 0 21G<120 389 120 120 1379 1648 1379 1379> 1423 20G<120 470 470 470 1298 1648 1648 1648>
VStem: 120 269<0 974 0 1443> 735 298<-350 -268> 1379 269<0 974 974 974>
LayerCount: 2
Fore
SplineSet
1648 1443 m 1
 1648 0 l 1
 1379 0 l 1
 1379 974 l 1
 1371 974 l 1
 979 14 l 1
 789 14 l 1
 397 974 l 1
 389 974 l 1
 389 0 l 1
 120 0 l 1
 120 1443 l 1
 470 1443 l 1
 880 420 l 1
 888 420 l 1
 1298 1443 l 1
 1648 1443 l 1
884 -458 m 0
 800 -458 735 -391 735 -309 c 0
 735 -227 800 -161 884 -161 c 0
 968 -161 1033 -227 1033 -309 c 0
 1033 -391 968 -458 884 -458 c 0
EndSplineSet
EndChar

StartChar: N
Encoding: 78 78 136
Width: 1463
Flags: MW
HStem: 0 21G<120 409 120 120 1093 1093 1093 1343> 1423 20G<120 372 372 372 1054 1343 1343 1343>
VStem: 120 289<0 945> 1054 289<503 1443 0 1443>
LayerCount: 2
Fore
SplineSet
409 0 m 1
 120 0 l 1
 120 1443 l 1
 372 1443 l 1
 1046 503 l 1
 1054 503 l 1
 1054 1443 l 1
 1343 1443 l 1
 1343 0 l 1
 1093 0 l 1
 418 945 l 1
 409 945 l 1
 409 0 l 1
EndSplineSet
EndChar

StartChar: Ngrave
Encoding: 504 504 137
Width: 1463
Flags: MW
HStem: 0 21G<120 409 120 120 1093 1093 1093 1343> 1423 20G<120 372 372 372 1054 1343 1343 1343> 1558 310<344 622 344 849>
VStem: 120 289<0 945> 1054 289<503 1443 0 1443>
LayerCount: 2
Fore
SplineSet
622 1558 m 1
 344 1868 l 1
 617 1868 l 1
 849 1558 l 1
 622 1558 l 1
409 0 m 1
 120 0 l 1
 120 1443 l 1
 372 1443 l 1
 1046 503 l 1
 1054 503 l 1
 1054 1443 l 1
 1343 1443 l 1
 1343 0 l 1
 1093 0 l 1
 418 945 l 1
 409 945 l 1
 409 0 l 1
EndSplineSet
EndChar

StartChar: Nacute
Encoding: 323 323 138
Width: 1463
Flags: MW
HStem: 0 21G<120 409 120 120 1093 1093 1093 1343> 1423 20G<120 372 372 372 1054 1343 1343 1343> 1553 310<613 1118 613 1118>
VStem: 120 289<0 945> 1054 289<503 1443 0 1443>
LayerCount: 2
Fore
SplineSet
841 1553 m 1
 613 1553 l 1
 845 1863 l 1
 1118 1863 l 1
 841 1553 l 1
409 0 m 1
 120 0 l 1
 120 1443 l 1
 372 1443 l 1
 1046 503 l 1
 1054 503 l 1
 1054 1443 l 1
 1343 1443 l 1
 1343 0 l 1
 1093 0 l 1
 418 945 l 1
 409 945 l 1
 409 0 l 1
EndSplineSet
EndChar

StartChar: Ntilde
Encoding: 209 209 139
Width: 1463
Flags: MW
HStem: 0 21G<120 409 120 120 1093 1093 1093 1343> 1423 20G<120 372 372 372 1054 1343 1343 1343> 1541 153<827 884.5 827 932.5> 1677 152<591.5 651>
VStem: 120 289<0 945> 387 158<1558 1644> 928 158<1731 1816> 1054 289<503 1443 0 1443>
LayerCount: 2
Fore
SplineSet
872 1541 m 0xea
 735 1541 688 1677 614 1677 c 0
 569 1677 546 1628 545 1558 c 1
 387 1558 l 1
 387 1730 479 1829 602 1829 c 0xd5
 744 1829 791 1694 863 1694 c 0
 906 1694 927 1739 928 1816 c 1
 1086 1816 l 1
 1086 1646 993 1541 872 1541 c 0xea
409 0 m 1xd9
 120 0 l 1
 120 1443 l 1
 372 1443 l 1
 1046 503 l 1
 1054 503 l 1
 1054 1443 l 1
 1343 1443 l 1
 1343 0 l 1
 1093 0 l 1
 418 945 l 1
 409 945 l 1
 409 0 l 1xd9
EndSplineSet
EndChar

StartChar: Ndotbelow
Encoding: 7750 7750 140
Width: 1463
Flags: MW
HStem: -458 297<690 774> 0 21G<120 409 120 120 1093 1093 1093 1343> 1423 20G<120 372 372 372 1054 1343 1343 1343>
VStem: 120 289<0 945> 583 298<-350 -268> 1054 289<503 1443 0 1443>
LayerCount: 2
Fore
SplineSet
732 -458 m 0
 648 -458 583 -391 583 -309 c 0
 583 -227 648 -161 732 -161 c 0
 816 -161 881 -227 881 -309 c 0
 881 -391 816 -458 732 -458 c 0
409 0 m 1
 120 0 l 1
 120 1443 l 1
 372 1443 l 1
 1046 503 l 1
 1054 503 l 1
 1054 1443 l 1
 1343 1443 l 1
 1343 0 l 1
 1093 0 l 1
 418 945 l 1
 409 945 l 1
 409 0 l 1
EndSplineSet
EndChar

StartChar: Ndotaccent
Encoding: 7748 7748 141
Width: 1463
Flags: MW
HStem: 0 21G<120 409 120 120 1093 1093 1093 1343> 1423 20G<120 372 372 372 1054 1343 1343 1343> 1561 297<690 774>
VStem: 120 289<0 945> 583 298<1669 1751> 1054 289<503 1443 0 1443>
LayerCount: 2
Fore
SplineSet
732 1561 m 0
 648 1561 583 1628 583 1710 c 0
 583 1792 648 1858 732 1858 c 0
 816 1858 881 1792 881 1710 c 0
 881 1628 816 1561 732 1561 c 0
409 0 m 1
 120 0 l 1
 120 1443 l 1
 372 1443 l 1
 1046 503 l 1
 1054 503 l 1
 1054 1443 l 1
 1343 1443 l 1
 1343 0 l 1
 1093 0 l 1
 418 945 l 1
 409 945 l 1
 409 0 l 1
EndSplineSet
EndChar

StartChar: Ncaron
Encoding: 327 327 142
Width: 1463
Flags: MW
HStem: 0 21G<120 409 120 120 1093 1093 1093 1343> 1423 20G<120 372 372 372 1054 1343 1343 1343> 1543 318<344 618 344 846>
VStem: 120 289<0 945> 1054 289<503 1443 0 1443>
LayerCount: 2
Fore
SplineSet
618 1543 m 1
 344 1861 l 1
 566 1861 l 1
 729 1664 l 1
 735 1664 l 1
 898 1861 l 1
 1120 1861 l 1
 846 1543 l 1
 618 1543 l 1
409 0 m 1
 120 0 l 1
 120 1443 l 1
 372 1443 l 1
 1046 503 l 1
 1054 503 l 1
 1054 1443 l 1
 1343 1443 l 1
 1343 0 l 1
 1093 0 l 1
 418 945 l 1
 409 945 l 1
 409 0 l 1
EndSplineSet
EndChar

StartChar: Ncircumflexbelow
Encoding: 7754 7754 143
Width: 1463
Flags: MW
HStem: -478 318<344 846 344 846 618 1120 618 898> 0 21G<120 409 120 120 1093 1093 1093 1343> 1423 20G<120 372 372 372 1054 1343 1343 1343>
VStem: 120 289<0 945> 1054 289<503 1443 0 1443>
LayerCount: 2
Fore
SplineSet
409 0 m 1
 120 0 l 1
 120 1443 l 1
 372 1443 l 1
 1046 503 l 1
 1054 503 l 1
 1054 1443 l 1
 1343 1443 l 1
 1343 0 l 1
 1093 0 l 1
 418 945 l 1
 409 945 l 1
 409 0 l 1
618 -160 m 1
 846 -160 l 1
 1120 -478 l 1
 898 -478 l 1
 735 -281 l 1
 729 -281 l 1
 566 -478 l 1
 344 -478 l 1
 618 -160 l 1
EndSplineSet
EndChar

StartChar: Nlinebelow
Encoding: 7752 7752 144
Width: 1463
Flags: MW
HStem: -373 143<386 1078 386 1078> 0 21G<120 409 120 120 1093 1093 1093 1343> 1423 20G<120 372 372 372 1054 1343 1343 1343>
VStem: 120 289<0 945> 1054 289<503 1443 0 1443>
LayerCount: 2
Fore
SplineSet
1078 -230 m 1
 1078 -373 l 1
 386 -373 l 1
 386 -230 l 1
 1078 -230 l 1
409 0 m 1
 120 0 l 1
 120 1443 l 1
 372 1443 l 1
 1046 503 l 1
 1054 503 l 1
 1054 1443 l 1
 1343 1443 l 1
 1343 0 l 1
 1093 0 l 1
 418 945 l 1
 409 945 l 1
 409 0 l 1
EndSplineSet
EndChar

StartChar: Ncommaaccent
Encoding: 325 325 145
Width: 1463
Flags: MW
HStem: -500 345<614 710 493 870> 0 21G<120 409 120 120 1093 1093 1093 1343> 1423 20G<120 372 372 372 1054 1343 1343 1343>
VStem: 120 289<0 945> 1054 289<503 1443 0 1443>
LayerCount: 2
Fore
SplineSet
710 -500 m 1
 493 -500 l 1
 614 -155 l 1
 870 -155 l 1
 710 -500 l 1
409 0 m 1
 120 0 l 1
 120 1443 l 1
 372 1443 l 1
 1046 503 l 1
 1054 503 l 1
 1054 1443 l 1
 1343 1443 l 1
 1343 0 l 1
 1093 0 l 1
 418 945 l 1
 409 945 l 1
 409 0 l 1
EndSplineSet
EndChar

StartChar: O
Encoding: 79 79 146
Width: 1541
Flags: MW
HStem: -25 253<652.5 889 652.5 984.5> 1216 252<653 889>
VStem: 75 308<570 872.5 570 951> 1158 309<570 872.5>
LayerCount: 2
Fore
SplineSet
771 1468 m 0
 1198 1468 1467 1181 1467 721 c 0
 1467 262 1198 -25 771 -25 c 0
 343 -25 75 262 75 721 c 0
 75 1181 343 1468 771 1468 c 0
771 1216 m 0
 535 1216 383 1024 383 721 c 0
 383 419 534 228 771 228 c 0
 1007 228 1158 419 1158 721 c 0
 1158 1024 1007 1216 771 1216 c 0
EndSplineSet
EndChar

StartChar: Odieresis
Encoding: 214 214 147
Width: 1541
Flags: MW
HStem: -25 253<652.5 889 652.5 984.5> 1216 252<653 889> 1561 262<523.5 600.5 942.5 1019.5>
VStem: 75 308<570 872.5 570 951> 427 270<1656 1728> 846 270<1656 1728> 1158 309<570 872.5>
LayerCount: 2
Fore
SplineSet
562 1561 m 0
 485 1561 427 1620 427 1692 c 0
 427 1764 485 1823 562 1823 c 0
 639 1823 697 1764 697 1692 c 0
 697 1620 639 1561 562 1561 c 0
981 1561 m 0
 904 1561 846 1620 846 1692 c 0
 846 1764 904 1823 981 1823 c 0
 1058 1823 1116 1764 1116 1692 c 0
 1116 1620 1058 1561 981 1561 c 0
771 1468 m 0
 1198 1468 1467 1181 1467 721 c 0
 1467 262 1198 -25 771 -25 c 0
 343 -25 75 262 75 721 c 0
 75 1181 343 1468 771 1468 c 0
771 1216 m 0
 535 1216 383 1024 383 721 c 0
 383 419 534 228 771 228 c 0
 1007 228 1158 419 1158 721 c 0
 1158 1024 1007 1216 771 1216 c 0
EndSplineSet
EndChar

StartChar: Oslash
Encoding: 216 216 148
Width: 1541
Flags: MW
HStem: -25 253<734 889 734 984.5> 1216 252<653 815.5> 1448 20G<557 844.5>
VStem: 75 308<647 872.5 647 951> 1158 309<570 785.5>
LayerCount: 2
Fore
SplineSet
1081 1041 m 1xd8
 576 282 l 1
 631 247 697 228 771 228 c 0
 1007 228 1158 419 1158 721 c 0
 1158 850 1131 959 1081 1041 c 1xd8
484 366 m 1
 998 1139 l 1
 937 1189 860 1216 771 1216 c 0
 535 1216 383 1024 383 721 c 0
 383 573 419 451 484 366 c 1
1350 1446 m 1xb8
 1250 1296 l 1
 1389 1166 1467 969 1467 721 c 0
 1467 262 1198 -25 771 -25 c 0
 639 -25 522 2 424 53 c 1
 344 -67 l 1
 242 1 l 1
 322 121 l 1
 164 249 75 456 75 721 c 0
 75 1181 343 1468 771 1468 c 0
 918 1468 1047 1434 1152 1370 c 1
 1242 1506 l 1xd8
 1350 1446 l 1xb8
EndSplineSet
EndChar

StartChar: Otilde
Encoding: 213 213 149
Width: 1541
Flags: MW
HStem: -25 253<652.5 889 652.5 984.5> 1216 252<653 889> 1541 153<866 923.5 866 971.5> 1677 152<630.5 690>
VStem: 75 308<570 872.5 570 951> 426 158<1558 1644> 967 158<1731 1816> 1158 309<570 872.5>
LayerCount: 2
Fore
SplineSet
771 1468 m 0xd9
 1198 1468 1467 1181 1467 721 c 0
 1467 262 1198 -25 771 -25 c 0
 343 -25 75 262 75 721 c 0
 75 1181 343 1468 771 1468 c 0xd9
771 1216 m 0
 535 1216 383 1024 383 721 c 0
 383 419 534 228 771 228 c 0
 1007 228 1158 419 1158 721 c 0
 1158 1024 1007 1216 771 1216 c 0
911 1541 m 0xeb
 774 1541 727 1677 653 1677 c 0
 608 1677 585 1628 584 1558 c 1
 426 1558 l 1
 426 1730 518 1829 641 1829 c 0xdd
 783 1829 830 1694 902 1694 c 0
 945 1694 966 1739 967 1816 c 1
 1125 1816 l 1
 1125 1646 1032 1541 911 1541 c 0xeb
EndSplineSet
EndChar

StartChar: Oacute
Encoding: 211 211 150
Width: 1541
Flags: MW
HStem: -25 253<652.5 889 652.5 984.5> 1216 252<653 889> 1553 310<652 1157 652 1157>
VStem: 75 308<570 872.5 570 951> 1158 309<570 872.5>
LayerCount: 2
Fore
SplineSet
880 1553 m 1
 652 1553 l 1
 884 1863 l 1
 1157 1863 l 1
 880 1553 l 1
771 1468 m 0
 1198 1468 1467 1181 1467 721 c 0
 1467 262 1198 -25 771 -25 c 0
 343 -25 75 262 75 721 c 0
 75 1181 343 1468 771 1468 c 0
771 1216 m 0
 535 1216 383 1024 383 721 c 0
 383 419 534 228 771 228 c 0
 1007 228 1158 419 1158 721 c 0
 1158 1024 1007 1216 771 1216 c 0
EndSplineSet
EndChar

StartChar: Ocircumflex
Encoding: 212 212 151
Width: 1541
Flags: MW
HStem: -25 253<652.5 889 652.5 984.5> 1216 252<653 889> 1543 318<383 885 383 885 657 1159 657 937>
VStem: 75 308<570 872.5 570 951> 1158 309<570 872.5>
LayerCount: 2
Fore
SplineSet
657 1861 m 1
 885 1861 l 1
 1159 1543 l 1
 937 1543 l 1
 774 1740 l 1
 768 1740 l 1
 605 1543 l 1
 383 1543 l 1
 657 1861 l 1
771 1468 m 0
 1198 1468 1467 1181 1467 721 c 0
 1467 262 1198 -25 771 -25 c 0
 343 -25 75 262 75 721 c 0
 75 1181 343 1468 771 1468 c 0
771 1216 m 0
 535 1216 383 1024 383 721 c 0
 383 419 534 228 771 228 c 0
 1007 228 1158 419 1158 721 c 0
 1158 1024 1007 1216 771 1216 c 0
EndSplineSet
EndChar

StartChar: Ograve
Encoding: 210 210 152
Width: 1541
Flags: MW
HStem: -25 253<652.5 889 652.5 984.5> 1216 252<653 889> 1558 310<383 661 383 888>
VStem: 75 308<570 872.5 570 951> 1158 309<570 872.5>
LayerCount: 2
Fore
SplineSet
661 1558 m 1
 383 1868 l 1
 656 1868 l 1
 888 1558 l 1
 661 1558 l 1
771 1468 m 0
 1198 1468 1467 1181 1467 721 c 0
 1467 262 1198 -25 771 -25 c 0
 343 -25 75 262 75 721 c 0
 75 1181 343 1468 771 1468 c 0
771 1216 m 0
 535 1216 383 1024 383 721 c 0
 383 419 534 228 771 228 c 0
 1007 228 1158 419 1158 721 c 0
 1158 1024 1007 1216 771 1216 c 0
EndSplineSet
EndChar

StartChar: Ocircumflexhookabove
Encoding: 7892 7892 153
Width: 1541
Flags: MW
HStem: -25 253<652.5 889 652.5 984.5> 1216 252<653 889> 1556 264<395 889 395 889 656 1149 656 918> 1998 135<999 1014.5>
VStem: 75 308<570 872.5 570 951> 1078 169<1910 1949.5> 1158 309<570 872.5>
LayerCount: 2
Fore
SplineSet
656 1820 m 1xfa
 889 1820 l 1
 1149 1556 l 1
 918 1556 l 1
 778 1705 l 1
 766 1705 l 1
 626 1556 l 1
 395 1556 l 1
 656 1820 l 1xfa
889 1981 m 1xfc
 889 2107 l 1
 921 2123 974 2133 1024 2133 c 0
 1160 2133 1247 2060 1247 1944 c 0
 1247 1857 1191 1773 1096 1737 c 1
 1004 1835 l 1
 1055 1854 1078 1891 1078 1929 c 0
 1078 1970 1042 1998 987 1998 c 0
 954 1998 914 1991 889 1981 c 1xfc
771 1468 m 0xfa
 1198 1468 1467 1181 1467 721 c 0
 1467 262 1198 -25 771 -25 c 0
 343 -25 75 262 75 721 c 0
 75 1181 343 1468 771 1468 c 0xfa
771 1216 m 0
 535 1216 383 1024 383 721 c 0
 383 419 534 228 771 228 c 0
 1007 228 1158 419 1158 721 c 0
 1158 1024 1007 1216 771 1216 c 0
EndSplineSet
EndChar

StartChar: Ocircumflexgrave
Encoding: 7890 7890 154
Width: 1541
Flags: MW
HStem: -25 253<652.5 889 652.5 984.5> 1216 252<653 889> 1556 264<394 887 394 887 655 1148 655 917> 1887 243<904 921 666 1115 904 904>
VStem: 75 308<570 872.5 570 951> 1158 309<570 872.5>
LayerCount: 2
Fore
SplineSet
655 1820 m 1
 887 1820 l 1
 1148 1556 l 1
 917 1556 l 1
 777 1705 l 1
 765 1705 l 1
 625 1556 l 1
 394 1556 l 1
 655 1820 l 1
1115 1887 m 1
 904 1887 l 1
 666 2130 l 1
 921 2130 l 1
 1115 1887 l 1
771 1468 m 0
 1198 1468 1467 1181 1467 721 c 0
 1467 262 1198 -25 771 -25 c 0
 343 -25 75 262 75 721 c 0
 75 1181 343 1468 771 1468 c 0
771 1216 m 0
 535 1216 383 1024 383 721 c 0
 383 419 534 228 771 228 c 0
 1007 228 1158 419 1158 721 c 0
 1158 1024 1007 1216 771 1216 c 0
EndSplineSet
EndChar

StartChar: Odotbelow
Encoding: 7884 7884 155
Width: 1541
Flags: MW
HStem: -458 297<729 813> -25 253<652.5 889 652.5 984.5> 1216 252<653 889>
VStem: 75 308<570 872.5 570 951> 622 298<-350 -268> 1158 309<570 872.5>
LayerCount: 2
Fore
SplineSet
771 -458 m 0
 687 -458 622 -391 622 -309 c 0
 622 -227 687 -161 771 -161 c 0
 855 -161 920 -227 920 -309 c 0
 920 -391 855 -458 771 -458 c 0
771 1468 m 0
 1198 1468 1467 1181 1467 721 c 0
 1467 262 1198 -25 771 -25 c 0
 343 -25 75 262 75 721 c 0
 75 1181 343 1468 771 1468 c 0
771 1216 m 0
 535 1216 383 1024 383 721 c 0
 383 419 534 228 771 228 c 0
 1007 228 1158 419 1158 721 c 0
 1158 1024 1007 1216 771 1216 c 0
EndSplineSet
EndChar

StartChar: Odblgrave
Encoding: 524 524 156
Width: 1541
Flags: MW
HStem: -25 253<652.5 889 652.5 984.5> 1216 252<653 889> 1553 310<188 466 583 688>
VStem: 75 308<570 872.5 570 951> 1158 309<570 872.5>
LayerCount: 2
Fore
SplineSet
861 1553 m 1
 583 1863 l 1
 852 1863 l 1
 1083 1553 l 1
 861 1553 l 1
466 1553 m 1
 188 1863 l 1
 456 1863 l 1
 688 1553 l 1
 466 1553 l 1
771 1468 m 0
 1198 1468 1467 1181 1467 721 c 0
 1467 262 1198 -25 771 -25 c 0
 343 -25 75 262 75 721 c 0
 75 1181 343 1468 771 1468 c 0
771 1216 m 0
 535 1216 383 1024 383 721 c 0
 383 419 534 228 771 228 c 0
 1007 228 1158 419 1158 721 c 0
 1158 1024 1007 1216 771 1216 c 0
EndSplineSet
EndChar

StartChar: Otildeacute
Encoding: 7756 7756 157
Width: 1541
Flags: MW
HStem: -25 253<652.5 889 652.5 984.5> 1216 252<653 889> 1536 152<861 918.5 861 968> 1672 153<624.5 684> 1887 243<660 1108 854 871>
VStem: 75 308<570 872.5 570 951> 420 158<1553 1639> 962 158<1725 1810> 1158 309<570 872.5>
LayerCount: 2
Fore
SplineSet
771 1468 m 0xdc80
 1198 1468 1467 1181 1467 721 c 0
 1467 262 1198 -25 771 -25 c 0
 343 -25 75 262 75 721 c 0
 75 1181 343 1468 771 1468 c 0xdc80
771 1216 m 0
 535 1216 383 1024 383 721 c 0
 383 419 534 228 771 228 c 0
 1007 228 1158 419 1158 721 c 0
 1158 1024 1007 1216 771 1216 c 0
907 1536 m 0xed80
 769 1536 721 1672 647 1672 c 0
 602 1672 579 1624 578 1553 c 1
 420 1553 l 1
 420 1725 510 1825 634 1825 c 0xde80
 776 1825 825 1688 897 1688 c 0
 940 1688 961 1734 962 1810 c 1
 1120 1810 l 1
 1120 1640 1029 1536 907 1536 c 0xed80
660 1887 m 1xdc80
 854 2130 l 1
 1108 2130 l 1
 871 1887 l 1
 660 1887 l 1xdc80
EndSplineSet
EndChar

StartChar: Omacronacute
Encoding: 7762 7762 158
Width: 1541
Flags: MW
HStem: -25 253<652.5 889 652.5 984.5> 1216 252<653 889> 1624 143<425 1117 425 1117> 1887 243<659 1107 853 870>
VStem: 75 308<570 872.5 570 951> 1158 309<570 872.5>
LayerCount: 2
Fore
SplineSet
1117 1624 m 1
 425 1624 l 1
 425 1767 l 1
 1117 1767 l 1
 1117 1624 l 1
659 1887 m 1
 853 2130 l 1
 1107 2130 l 1
 870 1887 l 1
 659 1887 l 1
771 1468 m 0
 1198 1468 1467 1181 1467 721 c 0
 1467 262 1198 -25 771 -25 c 0
 343 -25 75 262 75 721 c 0
 75 1181 343 1468 771 1468 c 0
771 1216 m 0
 535 1216 383 1024 383 721 c 0
 383 419 534 228 771 228 c 0
 1007 228 1158 419 1158 721 c 0
 1158 1024 1007 1216 771 1216 c 0
EndSplineSet
EndChar

StartChar: Ocircumflextilde
Encoding: 7894 7894 159
Width: 1541
Flags: MW
HStem: -25 253<652.5 889 652.5 984.5> 1216 252<653 889> 1556 255<394 887 655 1148 655 917> 1873 147<858 916.5 858 966> 2001 146<630 693>
VStem: 75 308<570 872.5 570 951> 427 155<1891 1972.5> 965 154<2052 2132> 1158 309<570 872.5>
LayerCount: 2
Fore
SplineSet
905 1873 m 0xf580
 762 1873 732 2001 654 2001 c 0
 606 2001 585 1960 582 1891 c 1
 427 1891 l 1xee80
 427 2054 518 2147 643 2147 c 0
 788 2147 823 2020 893 2020 c 0
 940 2020 961 2060 965 2132 c 1
 1119 2132 l 1
 1119 1972 1027 1873 905 1873 c 0xf580
655 1811 m 1xec80
 887 1811 l 1
 1148 1556 l 1
 917 1556 l 1
 777 1696 l 1
 765 1696 l 1
 625 1556 l 1
 394 1556 l 1
 655 1811 l 1xec80
771 1468 m 0
 1198 1468 1467 1181 1467 721 c 0
 1467 262 1198 -25 771 -25 c 0
 343 -25 75 262 75 721 c 0
 75 1181 343 1468 771 1468 c 0
771 1216 m 0
 535 1216 383 1024 383 721 c 0
 383 419 534 228 771 228 c 0
 1007 228 1158 419 1158 721 c 0
 1158 1024 1007 1216 771 1216 c 0
EndSplineSet
EndChar

StartChar: Odotaccentmacron
Encoding: 560 560 160
Width: 1541
Flags: MW
HStem: -25 253<652.5 889 652.5 984.5> 1216 252<653 889> 1555 266<731.5 810.5> 1930 143<425 1117 425 1117>
VStem: 75 308<570 872.5 570 951> 633 276<1652 1725.5> 1158 309<570 872.5>
LayerCount: 2
Fore
SplineSet
771 1555 m 0
 692 1555 633 1615 633 1689 c 0
 633 1762 692 1821 771 1821 c 0
 850 1821 909 1762 909 1689 c 0
 909 1615 850 1555 771 1555 c 0
1117 2073 m 1
 1117 1930 l 1
 425 1930 l 1
 425 2073 l 1
 1117 2073 l 1
771 1468 m 0
 1198 1468 1467 1181 1467 721 c 0
 1467 262 1198 -25 771 -25 c 0
 343 -25 75 262 75 721 c 0
 75 1181 343 1468 771 1468 c 0
771 1216 m 0
 535 1216 383 1024 383 721 c 0
 383 419 534 228 771 228 c 0
 1007 228 1158 419 1158 721 c 0
 1158 1024 1007 1216 771 1216 c 0
EndSplineSet
EndChar

StartChar: Omacrongrave
Encoding: 7760 7760 161
Width: 1541
Flags: MW
HStem: -25 253<652.5 889 652.5 984.5> 1216 252<653 889> 1624 143<425 1117 425 1117> 1887 243<672 689 435 883 672 672>
VStem: 75 308<570 872.5 570 951> 1158 309<570 872.5>
LayerCount: 2
Fore
SplineSet
425 1624 m 1
 425 1767 l 1
 1117 1767 l 1
 1117 1624 l 1
 425 1624 l 1
883 1887 m 1
 672 1887 l 1
 435 2130 l 1
 689 2130 l 1
 883 1887 l 1
771 1468 m 0
 1198 1468 1467 1181 1467 721 c 0
 1467 262 1198 -25 771 -25 c 0
 343 -25 75 262 75 721 c 0
 75 1181 343 1468 771 1468 c 0
771 1216 m 0
 535 1216 383 1024 383 721 c 0
 383 419 534 228 771 228 c 0
 1007 228 1158 419 1158 721 c 0
 1158 1024 1007 1216 771 1216 c 0
EndSplineSet
EndChar

StartChar: Ocaron
Encoding: 465 465 162
Width: 1541
Flags: MW
HStem: -25 253<652.5 889 652.5 984.5> 1216 252<653 889> 1543 318<383 657 383 885>
VStem: 75 308<570 872.5 570 951> 1158 309<570 872.5>
LayerCount: 2
Fore
SplineSet
657 1543 m 1
 383 1861 l 1
 605 1861 l 1
 768 1664 l 1
 774 1664 l 1
 937 1861 l 1
 1159 1861 l 1
 885 1543 l 1
 657 1543 l 1
771 1468 m 0
 1198 1468 1467 1181 1467 721 c 0
 1467 262 1198 -25 771 -25 c 0
 343 -25 75 262 75 721 c 0
 75 1181 343 1468 771 1468 c 0
771 1216 m 0
 535 1216 383 1024 383 721 c 0
 383 419 534 228 771 228 c 0
 1007 228 1158 419 1158 721 c 0
 1158 1024 1007 1216 771 1216 c 0
EndSplineSet
EndChar

StartChar: Oslashacute
Encoding: 510 510 163
Width: 1541
Flags: MW
HStem: -25 253<734 889 734 984.5> 1216 252<653 815.5> 1448 20G<557 844.5> 1553 310<677 1182 677 1182>
VStem: 75 308<647 872.5 647 951> 1158 309<570 785.5>
LayerCount: 2
Fore
SplineSet
1182 1863 m 1xdc
 905 1553 l 1
 677 1553 l 1
 909 1863 l 1
 1182 1863 l 1xdc
1081 1041 m 1
 576 282 l 1
 631 247 697 228 771 228 c 0
 1007 228 1158 419 1158 721 c 0
 1158 850 1131 959 1081 1041 c 1
484 366 m 1
 998 1139 l 1
 937 1189 860 1216 771 1216 c 0
 535 1216 383 1024 383 721 c 0
 383 573 419 451 484 366 c 1
1350 1446 m 1xbc
 1250 1296 l 1
 1389 1166 1467 969 1467 721 c 0
 1467 262 1198 -25 771 -25 c 0
 639 -25 522 2 424 53 c 1
 344 -67 l 1
 242 1 l 1
 322 121 l 1
 164 249 75 456 75 721 c 0
 75 1181 343 1468 771 1468 c 0
 918 1468 1047 1434 1152 1370 c 1
 1242 1506 l 1xdc
 1350 1446 l 1xbc
EndSplineSet
EndChar

StartChar: Ohungarumlaut
Encoding: 336 336 164
Width: 1541
Flags: MW
HStem: -25 253<652.5 889 652.5 984.5> 1216 252<653 889> 1553 310<459 959 459 959 854 959 690 1076 854 854>
VStem: 75 308<570 872.5 570 951> 1158 309<570 872.5>
LayerCount: 2
Fore
SplineSet
1076 1553 m 1
 854 1553 l 1
 1086 1863 l 1
 1354 1863 l 1
 1076 1553 l 1
681 1553 m 1
 459 1553 l 1
 690 1863 l 1
 959 1863 l 1
 681 1553 l 1
771 1468 m 0
 1198 1468 1467 1181 1467 721 c 0
 1467 262 1198 -25 771 -25 c 0
 343 -25 75 262 75 721 c 0
 75 1181 343 1468 771 1468 c 0
771 1216 m 0
 535 1216 383 1024 383 721 c 0
 383 419 534 228 771 228 c 0
 1007 228 1158 419 1158 721 c 0
 1158 1024 1007 1216 771 1216 c 0
EndSplineSet
EndChar

StartChar: Obreve
Encoding: 334 334 165
Width: 1541
Flags: MW
HStem: -25 253<652.5 889 652.5 984.5> 1216 252<653 889> 1543 145<719 823 719 880>
VStem: 75 308<570 872.5 570 951> 1158 309<570 872.5>
LayerCount: 2
Fore
SplineSet
771 1468 m 0
 1198 1468 1467 1181 1467 721 c 0
 1467 262 1198 -25 771 -25 c 0
 343 -25 75 262 75 721 c 0
 75 1181 343 1468 771 1468 c 0
771 1216 m 0
 535 1216 383 1024 383 721 c 0
 383 419 534 228 771 228 c 0
 1007 228 1158 419 1158 721 c 0
 1158 1024 1007 1216 771 1216 c 0
418 1860 m 1
 596 1860 l 1
 598 1762 667 1688 771 1688 c 0
 875 1688 944 1762 946 1860 c 1
 1124 1860 l 1
 1121 1682 989 1543 771 1543 c 0
 553 1543 421 1682 418 1860 c 1
EndSplineSet
EndChar

StartChar: Oinvertedbreve
Encoding: 526 526 166
Width: 1541
Flags: MW
HStem: -25 253<652.5 889 652.5 984.5> 1216 252<653 889> 1715 145<719 823>
VStem: 75 308<570 872.5 570 951> 1158 309<570 872.5>
LayerCount: 2
Fore
SplineSet
418 1543 m 1
 421 1721 553 1860 771 1860 c 0
 989 1860 1121 1721 1124 1543 c 1
 946 1543 l 1
 944 1641 875 1715 771 1715 c 0
 667 1715 598 1641 596 1543 c 1
 418 1543 l 1
771 1468 m 0
 1198 1468 1467 1181 1467 721 c 0
 1467 262 1198 -25 771 -25 c 0
 343 -25 75 262 75 721 c 0
 75 1181 343 1468 771 1468 c 0
771 1216 m 0
 535 1216 383 1024 383 721 c 0
 383 419 534 228 771 228 c 0
 1007 228 1158 419 1158 721 c 0
 1158 1024 1007 1216 771 1216 c 0
EndSplineSet
EndChar

StartChar: Ohookabove
Encoding: 7886 7886 167
Width: 1541
Flags: MW
HStem: -25 253<652.5 889 652.5 984.5> 1216 252<653 889> 1809 138<702.5 721>
VStem: 75 308<570 872.5 570 951> 789 177<1714 1757.5> 1158 309<570 872.5>
LayerCount: 2
Fore
SplineSet
586 1790 m 1
 586 1922 l 1
 621 1938 676 1947 729 1947 c 0
 873 1947 966 1873 966 1752 c 0
 966 1655 888 1567 778 1524 c 1
 692 1629 l 1
 749 1649 789 1692 789 1736 c 0
 789 1779 750 1809 692 1809 c 0
 659 1809 615 1802 586 1790 c 1
771 1468 m 0
 1198 1468 1467 1181 1467 721 c 0
 1467 262 1198 -25 771 -25 c 0
 343 -25 75 262 75 721 c 0
 75 1181 343 1468 771 1468 c 0
771 1216 m 0
 535 1216 383 1024 383 721 c 0
 383 419 534 228 771 228 c 0
 1007 228 1158 419 1158 721 c 0
 1158 1024 1007 1216 771 1216 c 0
EndSplineSet
EndChar

StartChar: Odieresismacron
Encoding: 554 554 168
Width: 1541
Flags: MW
HStem: -25 253<652.5 889 652.5 984.5> 1216 252<653 889> 1564 249<530 603 939 1012> 1930 143<425 1117 425 1117>
VStem: 75 308<570 872.5 570 951> 438 257<1654.5 1723> 847 257<1654.5 1723> 1158 309<570 872.5>
LayerCount: 2
Fore
SplineSet
771 1468 m 0
 1198 1468 1467 1181 1467 721 c 0
 1467 262 1198 -25 771 -25 c 0
 343 -25 75 262 75 721 c 0
 75 1181 343 1468 771 1468 c 0
771 1216 m 0
 535 1216 383 1024 383 721 c 0
 383 419 534 228 771 228 c 0
 1007 228 1158 419 1158 721 c 0
 1158 1024 1007 1216 771 1216 c 0
567 1813 m 0
 639 1813 695 1757 695 1689 c 0
 695 1620 639 1564 567 1564 c 0
 493 1564 438 1620 438 1689 c 0
 438 1757 493 1813 567 1813 c 0
425 2073 m 1
 1117 2073 l 1
 1117 1930 l 1
 425 1930 l 1
 425 2073 l 1
975 1813 m 0
 1049 1813 1104 1757 1104 1689 c 0
 1104 1620 1049 1564 975 1564 c 0
 903 1564 847 1620 847 1689 c 0
 847 1757 903 1813 975 1813 c 0
EndSplineSet
EndChar

StartChar: Otildemacron
Encoding: 556 556 169
Width: 1541
Flags: MW
HStem: -25 253<652.5 889 652.5 984.5> 1216 252<653 889> 1536 152<860 917.5 860 967> 1672 153<623.5 683> 1930 143<425 1117 425 1117>
VStem: 75 308<570 872.5 570 951> 419 158<1553 1639> 961 158<1725 1810> 1158 309<570 872.5>
LayerCount: 2
Fore
SplineSet
906 1536 m 0xed80
 768 1536 720 1672 646 1672 c 0
 601 1672 578 1624 577 1553 c 1
 419 1553 l 1
 419 1725 509 1825 633 1825 c 0xdf80
 775 1825 824 1688 896 1688 c 0
 939 1688 960 1734 961 1810 c 1
 1119 1810 l 1
 1119 1640 1028 1536 906 1536 c 0xed80
1117 2073 m 1
 1117 1930 l 1
 425 1930 l 1
 425 2073 l 1
 1117 2073 l 1
771 1468 m 0
 1198 1468 1467 1181 1467 721 c 0
 1467 262 1198 -25 771 -25 c 0
 343 -25 75 262 75 721 c 0
 75 1181 343 1468 771 1468 c 0
771 1216 m 0
 535 1216 383 1024 383 721 c 0
 383 419 534 228 771 228 c 0
 1007 228 1158 419 1158 721 c 0
 1158 1024 1007 1216 771 1216 c 0
EndSplineSet
EndChar

StartChar: Odotaccent
Encoding: 558 558 170
Width: 1541
Flags: MW
HStem: -25 253<652.5 889 652.5 984.5> 1216 252<653 889> 1561 297<729 813>
VStem: 75 308<570 872.5 570 951> 622 298<1669 1751> 1158 309<570 872.5>
LayerCount: 2
Fore
SplineSet
771 1561 m 0
 687 1561 622 1628 622 1710 c 0
 622 1792 687 1858 771 1858 c 0
 855 1858 920 1792 920 1710 c 0
 920 1628 855 1561 771 1561 c 0
771 1468 m 0
 1198 1468 1467 1181 1467 721 c 0
 1467 262 1198 -25 771 -25 c 0
 343 -25 75 262 75 721 c 0
 75 1181 343 1468 771 1468 c 0
771 1216 m 0
 535 1216 383 1024 383 721 c 0
 383 419 534 228 771 228 c 0
 1007 228 1158 419 1158 721 c 0
 1158 1024 1007 1216 771 1216 c 0
EndSplineSet
EndChar

StartChar: Ocircumflexdotbelow
Encoding: 7896 7896 171
Width: 1541
Flags: MW
HStem: -458 297<729 813> -25 253<652.5 889 652.5 984.5> 1216 252<653 889> 1543 318<383 885 383 885 657 1159 657 937>
VStem: 75 308<570 872.5 570 951> 622 146 657 263 1158 309<570 872.5>
LayerCount: 2
Fore
SplineSet
771 -458 m 0xfd
 687 -458 622 -391 622 -309 c 0xfd
 622 -227 687 -161 771 -161 c 0
 855 -161 920 -227 920 -309 c 0xfb
 920 -391 855 -458 771 -458 c 0xfd
657 1861 m 1xfb
 885 1861 l 1
 1159 1543 l 1
 937 1543 l 1
 774 1740 l 1
 768 1740 l 1xfd
 605 1543 l 1
 383 1543 l 1
 657 1861 l 1xfb
771 1468 m 0
 1198 1468 1467 1181 1467 721 c 0
 1467 262 1198 -25 771 -25 c 0
 343 -25 75 262 75 721 c 0
 75 1181 343 1468 771 1468 c 0
771 1216 m 0
 535 1216 383 1024 383 721 c 0
 383 419 534 228 771 228 c 0
 1007 228 1158 419 1158 721 c 0
 1158 1024 1007 1216 771 1216 c 0
EndSplineSet
EndChar

StartChar: Ocircumflexacute
Encoding: 7888 7888 172
Width: 1541
Flags: MW
HStem: -25 253<652.5 889 652.5 984.5> 1216 252<653 889> 1556 264<395 889 395 889 656 1150 656 918> 1887 243<858 1306 1051 1069>
VStem: 75 308<570 872.5 570 951> 1158 309<570 872.5>
LayerCount: 2
Fore
SplineSet
656 1820 m 1
 889 1820 l 1
 1150 1556 l 1
 918 1556 l 1
 779 1705 l 1
 767 1705 l 1
 627 1556 l 1
 395 1556 l 1
 656 1820 l 1
858 1887 m 1
 1051 2130 l 1
 1306 2130 l 1
 1069 1887 l 1
 858 1887 l 1
771 1468 m 0
 1198 1468 1467 1181 1467 721 c 0
 1467 262 1198 -25 771 -25 c 0
 343 -25 75 262 75 721 c 0
 75 1181 343 1468 771 1468 c 0
771 1216 m 0
 535 1216 383 1024 383 721 c 0
 383 419 534 228 771 228 c 0
 1007 228 1158 419 1158 721 c 0
 1158 1024 1007 1216 771 1216 c 0
EndSplineSet
EndChar

StartChar: Otildedieresis
Encoding: 7758 7758 173
Width: 1541
Flags: MW
HStem: -25 253<652.5 889 652.5 984.5> 1216 252<653 889> 1536 152<862 919.5 862 969> 1672 153<625.5 685> 1912 249<530 603 939 1012>
VStem: 75 308<570 872.5 570 951> 421 158<1553 1639> 438 257<2002.5 2071> 847 257<2002.5 2071> 963 158<1722.5 1805> 1158 309<570 872.5>
LayerCount: 2
Fore
SplineSet
908 1536 m 0xec60
 770 1536 722 1672 648 1672 c 0
 603 1672 580 1624 579 1553 c 1
 421 1553 l 1
 421 1725 511 1825 635 1825 c 0xde20
 777 1825 826 1688 898 1688 c 0
 941 1688 962 1734 963 1805 c 1
 1121 1805 l 1
 1121 1640 1030 1536 908 1536 c 0xec60
567 2161 m 0xdda0
 639 2161 695 2105 695 2037 c 0
 695 1968 639 1912 567 1912 c 0
 493 1912 438 1968 438 2037 c 0
 438 2105 493 2161 567 2161 c 0xdda0
975 2161 m 0
 1049 2161 1104 2105 1104 2037 c 0
 1104 1968 1049 1912 975 1912 c 0
 903 1912 847 1968 847 2037 c 0
 847 2105 903 2161 975 2161 c 0
771 1468 m 0
 1198 1468 1467 1181 1467 721 c 0
 1467 262 1198 -25 771 -25 c 0
 343 -25 75 262 75 721 c 0
 75 1181 343 1468 771 1468 c 0
771 1216 m 0
 535 1216 383 1024 383 721 c 0
 383 419 534 228 771 228 c 0
 1007 228 1158 419 1158 721 c 0
 1158 1024 1007 1216 771 1216 c 0
EndSplineSet
EndChar

StartChar: Omacron
Encoding: 332 332 174
Width: 1541
Flags: MW
HStem: -25 253<652.5 889 652.5 984.5> 1216 252<653 889> 1624 143<425 1117 425 1117>
VStem: 75 308<570 872.5 570 951> 1158 309<570 872.5>
LayerCount: 2
Fore
SplineSet
771 1468 m 0
 1198 1468 1467 1181 1467 721 c 0
 1467 262 1198 -25 771 -25 c 0
 343 -25 75 262 75 721 c 0
 75 1181 343 1468 771 1468 c 0
771 1216 m 0
 535 1216 383 1024 383 721 c 0
 383 419 534 228 771 228 c 0
 1007 228 1158 419 1158 721 c 0
 1158 1024 1007 1216 771 1216 c 0
1117 1767 m 1
 1117 1624 l 1
 425 1624 l 1
 425 1767 l 1
 1117 1767 l 1
EndSplineSet
EndChar

StartChar: Oogonek
Encoding: 490 490 175
Width: 1541
Flags: MW
HStem: -456 168<918.5 1067.5> -25 253<651.5 785> 1216 252<652 890>
VStem: 75 308<570 873 570 952> 742 197<-214.5 -198.5> 1158 308<570 873.5>
LayerCount: 2
Fore
SplineSet
1126 -436 m 1
 1094 -449 1042 -456 995 -456 c 0
 842 -456 742 -372 742 -246 c 0
 742 -151 781 -77 864 -17 c 1
 864 -14 l 1
 835 -22 799 -25 771 -25 c 0
 340 -25 75 260 75 722 c 0
 75 1182 342 1468 771 1468 c 0
 1200 1468 1466 1183 1466 722 c 0
 1466 384 1334 217 1202 106 c 0
 1070 -6 939 -63 939 -183 c 0
 939 -246 985 -288 1056 -288 c 0
 1079 -288 1108 -285 1126 -280 c 1
 1126 -436 l 1
771 1216 m 0
 533 1216 383 1024 383 722 c 0
 383 418 532 228 771 228 c 0
 1009 228 1158 418 1158 722 c 0
 1158 1025 1009 1216 771 1216 c 0
EndSplineSet
EndChar

StartChar: Oogonekmacron
Encoding: 492 492 176
Width: 1541
Flags: MW
HStem: -456 168<918.5 1067.5> -25 253<651.5 785> 1216 252<652 890> 1624 143<425 1117 425 1117>
VStem: 75 308<570 873 570 952> 425 514 742 375 1158 308<570 873.5>
LayerCount: 2
Fore
SplineSet
1126 -436 m 1xfb
 1094 -449 1042 -456 995 -456 c 0
 842 -456 742 -372 742 -246 c 0
 742 -151 781 -77 864 -17 c 1
 864 -14 l 1xfb
 835 -22 799 -25 771 -25 c 0
 340 -25 75 260 75 722 c 0
 75 1182 342 1468 771 1468 c 0
 1200 1468 1466 1183 1466 722 c 0
 1466 384 1334 217 1202 106 c 0
 1070 -6 939 -63 939 -183 c 0xfd
 939 -246 985 -288 1056 -288 c 0
 1079 -288 1108 -285 1126 -280 c 1
 1126 -436 l 1xfb
771 1216 m 0
 533 1216 383 1024 383 722 c 0
 383 418 532 228 771 228 c 0
 1009 228 1158 418 1158 722 c 0
 1158 1025 1009 1216 771 1216 c 0
1117 1767 m 1
 1117 1624 l 1xfb
 425 1624 l 1
 425 1767 l 1xfd
 1117 1767 l 1
EndSplineSet
EndChar

StartChar: Ohorn
Encoding: 416 416 177
Width: 1593
Flags: MW
HStem: -25 253<652.5 889 652.5 983> 1143 183<1213.5 1483.5> 1216 252<653 889>
VStem: 75 308<570 872.5 570 950.5> 1158 309<570 797.5 490.5 872.5> 1370 231<1454 1635>
LayerCount: 2
Fore
SplineSet
771 1216 m 0xb4
 535 1216 383 1024 383 721 c 0
 383 419 534 228 771 228 c 0
 1007 228 1158 419 1158 721 c 0xb8
 1158 1024 1007 1216 771 1216 c 0xb4
1467 717 m 0xd8
 1467 264 1196 -25 770 -25 c 0
 344 -25 75 264 75 722 c 0
 75 1179 342 1468 764 1468 c 0xb4
 1049 1468 1150 1326 1277 1326 c 0
 1340 1326 1370 1368 1370 1454 c 2
 1370 1635 l 1
 1601 1635 l 1
 1601 1365 l 2xd4
 1601 1229 1535 1143 1432 1143 c 0
 1410 1143 1383 1147 1371 1153 c 1
 1367 1148 l 1
 1431 1030 1467 878 1467 717 c 0xd8
EndSplineSet
EndChar

StartChar: Ohorndotbelow
Encoding: 7906 7906 178
Width: 1593
Flags: MW
HStem: -458 297<729 813> -25 253<652.5 889 652.5 983> 1143 183<1213.5 1483.5> 1216 252<653 889>
VStem: 75 308<570 872.5 570 950.5> 622 298<-350 -268> 1158 309<570 797.5 490.5 872.5> 1370 231<1454 1635>
LayerCount: 2
Fore
SplineSet
771 -458 m 0xdd
 687 -458 622 -391 622 -309 c 0
 622 -227 687 -161 771 -161 c 0
 855 -161 920 -227 920 -309 c 0
 920 -391 855 -458 771 -458 c 0xdd
771 1216 m 0
 535 1216 383 1024 383 721 c 0
 383 419 534 228 771 228 c 0
 1007 228 1158 419 1158 721 c 0xde
 1158 1024 1007 1216 771 1216 c 0
1467 717 m 0xee
 1467 264 1196 -25 770 -25 c 0
 344 -25 75 264 75 722 c 0
 75 1179 342 1468 764 1468 c 0xdd
 1049 1468 1150 1326 1277 1326 c 0
 1340 1326 1370 1368 1370 1454 c 2
 1370 1635 l 1
 1601 1635 l 1
 1601 1365 l 2xed
 1601 1229 1535 1143 1432 1143 c 0
 1410 1143 1383 1147 1371 1153 c 1
 1367 1148 l 1
 1431 1030 1467 878 1467 717 c 0xee
EndSplineSet
EndChar

StartChar: Ohornhookabove
Encoding: 7902 7902 179
Width: 1593
Flags: MW
HStem: -25 253<652.5 889 652.5 983> 1143 183<1213.5 1483.5> 1216 252<653 889> 1809 138<702.5 721>
VStem: 75 308<570 872.5 570 950.5> 789 177<1714 1757.5> 1158 309<570 797.5 490.5 872.5> 1370 231<1454 1635>
LayerCount: 2
Fore
SplineSet
586 1790 m 1xbd
 586 1922 l 1
 621 1938 676 1947 729 1947 c 0
 873 1947 966 1873 966 1752 c 0
 966 1655 888 1567 778 1524 c 1
 692 1629 l 1
 749 1649 789 1692 789 1736 c 0
 789 1779 750 1809 692 1809 c 0
 659 1809 615 1802 586 1790 c 1xbd
771 1216 m 0
 535 1216 383 1024 383 721 c 0
 383 419 534 228 771 228 c 0
 1007 228 1158 419 1158 721 c 0xbe
 1158 1024 1007 1216 771 1216 c 0
1467 717 m 0xde
 1467 264 1196 -25 770 -25 c 0
 344 -25 75 264 75 722 c 0
 75 1179 342 1468 764 1468 c 0xbd
 1049 1468 1150 1326 1277 1326 c 0
 1340 1326 1370 1368 1370 1454 c 2
 1370 1635 l 1
 1601 1635 l 1
 1601 1365 l 2xdd
 1601 1229 1535 1143 1432 1143 c 0
 1410 1143 1383 1147 1371 1153 c 1
 1367 1148 l 1
 1431 1030 1467 878 1467 717 c 0xde
EndSplineSet
EndChar

StartChar: Ohorntilde
Encoding: 7904 7904 180
Width: 1593
Flags: MW
HStem: -25 253<652.5 889 652.5 983> 1143 183<1213.5 1483.5> 1216 252<653 889> 1541 153<866 923.5 866 971.5> 1677 152<630.5 690>
VStem: 75 308<570 872.5 570 950.5> 426 158<1558 1644> 967 158<1731 1816> 1158 309<570 797.5 490.5 872.5> 1370 231<1454 1635>
LayerCount: 2
Fore
SplineSet
771 1216 m 0xac40
 535 1216 383 1024 383 721 c 0
 383 419 534 228 771 228 c 0
 1007 228 1158 419 1158 721 c 0xac80
 1158 1024 1007 1216 771 1216 c 0xac40
1467 717 m 0xcc80
 1467 264 1196 -25 770 -25 c 0
 344 -25 75 264 75 722 c 0
 75 1179 342 1468 764 1468 c 0xac40
 1049 1468 1150 1326 1277 1326 c 0
 1340 1326 1370 1368 1370 1454 c 2
 1370 1635 l 1
 1601 1635 l 1
 1601 1365 l 2xcc40
 1601 1229 1535 1143 1432 1143 c 0
 1410 1143 1383 1147 1371 1153 c 1
 1367 1148 l 1
 1431 1030 1467 878 1467 717 c 0xcc80
911 1541 m 0xb540
 774 1541 727 1677 653 1677 c 0
 608 1677 585 1628 584 1558 c 1
 426 1558 l 1
 426 1730 518 1829 641 1829 c 0xae40
 783 1829 830 1694 902 1694 c 0
 945 1694 966 1739 967 1816 c 1
 1125 1816 l 1
 1125 1646 1032 1541 911 1541 c 0xb540
EndSplineSet
EndChar

StartChar: Ohorngrave
Encoding: 7900 7900 181
Width: 1593
Flags: MW
HStem: -25 253<652.5 889 652.5 983> 1143 183<1213.5 1483.5> 1216 252<653 889> 1558 310<383 661 383 888>
VStem: 75 308<570 872.5 570 950.5> 1158 309<570 797.5 490.5 872.5> 1370 231<1454 1635>
LayerCount: 2
Fore
SplineSet
661 1558 m 1xba
 383 1868 l 1
 656 1868 l 1
 888 1558 l 1
 661 1558 l 1xba
771 1216 m 0
 535 1216 383 1024 383 721 c 0
 383 419 534 228 771 228 c 0
 1007 228 1158 419 1158 721 c 0xbc
 1158 1024 1007 1216 771 1216 c 0
1467 717 m 0xdc
 1467 264 1196 -25 770 -25 c 0
 344 -25 75 264 75 722 c 0
 75 1179 342 1468 764 1468 c 0xba
 1049 1468 1150 1326 1277 1326 c 0
 1340 1326 1370 1368 1370 1454 c 2
 1370 1635 l 1
 1601 1635 l 1
 1601 1365 l 2xda
 1601 1229 1535 1143 1432 1143 c 0
 1410 1143 1383 1147 1371 1153 c 1
 1367 1148 l 1
 1431 1030 1467 878 1467 717 c 0xdc
EndSplineSet
EndChar

StartChar: Ohornacute
Encoding: 7898 7898 182
Width: 1593
Flags: MW
HStem: -25 253<652.5 889 652.5 983> 1143 183<1213.5 1483.5> 1216 252<653 889> 1553 310<652 1157 652 1157>
VStem: 75 308<570 872.5 570 950.5> 1158 309<570 797.5 490.5 872.5> 1370 231<1454 1635>
LayerCount: 2
Fore
SplineSet
880 1553 m 1xba
 652 1553 l 1
 884 1863 l 1
 1157 1863 l 1
 880 1553 l 1xba
771 1216 m 0
 535 1216 383 1024 383 721 c 0
 383 419 534 228 771 228 c 0
 1007 228 1158 419 1158 721 c 0xbc
 1158 1024 1007 1216 771 1216 c 0
1467 717 m 0xdc
 1467 264 1196 -25 770 -25 c 0
 344 -25 75 264 75 722 c 0
 75 1179 342 1468 764 1468 c 0xba
 1049 1468 1150 1326 1277 1326 c 0
 1340 1326 1370 1368 1370 1454 c 2
 1370 1635 l 1
 1601 1635 l 1
 1601 1365 l 2xda
 1601 1229 1535 1143 1432 1143 c 0
 1410 1143 1383 1147 1371 1153 c 1
 1367 1148 l 1
 1431 1030 1467 878 1467 717 c 0xdc
EndSplineSet
EndChar

StartChar: P
Encoding: 80 80 183
Width: 1280
Flags: MW
HStem: 0 21G<120 422 120 120> 455 236<422 641 641 707 422 641> 1204 239<422 422 422 642>
VStem: 120 302<0 455 0 691 691 1204> 915 307<865.5 1030>
LayerCount: 2
Fore
SplineSet
120 1443 m 1
 722 1443 l 2
 1018 1443 1222 1246 1222 949 c 0
 1222 653 1011 455 707 455 c 2
 422 455 l 1
 422 0 l 1
 120 0 l 1
 120 1443 l 1
422 1204 m 1
 422 691 l 1
 641 691 l 2
 814 691 915 783 915 948 c 0
 915 1112 815 1204 642 1204 c 2
 422 1204 l 1
EndSplineSet
EndChar

StartChar: Pdotaccent
Encoding: 7766 7766 184
Width: 1280
Flags: MW
HStem: 0 21G<120 422 120 120> 455 236<422 641 641 707 422 641> 1204 239<422 422 422 642> 1561 297<547 631>
VStem: 120 302<0 455 0 691 691 1204> 440 298<1669 1751> 915 307<865.5 1030>
LayerCount: 2
Fore
SplineSet
120 1443 m 1
 722 1443 l 2
 1018 1443 1222 1246 1222 949 c 0
 1222 653 1011 455 707 455 c 2
 422 455 l 1
 422 0 l 1
 120 0 l 1
 120 1443 l 1
422 1204 m 1
 422 691 l 1
 641 691 l 2
 814 691 915 783 915 948 c 0
 915 1112 815 1204 642 1204 c 2
 422 1204 l 1
589 1561 m 0xfe
 505 1561 440 1628 440 1710 c 0
 440 1792 505 1858 589 1858 c 0
 673 1858 738 1792 738 1710 c 0
 738 1628 673 1561 589 1561 c 0xfe
EndSplineSet
EndChar

StartChar: Pacute
Encoding: 7764 7764 185
Width: 1280
Flags: MW
HStem: 0 21G<120 422 120 120> 455 236<422 641 641 707 422 641> 1204 239<422 422 422 642> 1553 310<470 975 470 975>
VStem: 120 302<0 455 0 691 691 1204> 915 307<865.5 1030>
LayerCount: 2
Fore
SplineSet
698 1553 m 1
 470 1553 l 1
 702 1863 l 1
 975 1863 l 1
 698 1553 l 1
120 1443 m 1
 722 1443 l 2
 1018 1443 1222 1246 1222 949 c 0
 1222 653 1011 455 707 455 c 2
 422 455 l 1
 422 0 l 1
 120 0 l 1
 120 1443 l 1
422 1204 m 1
 422 691 l 1
 641 691 l 2
 814 691 915 783 915 948 c 0
 915 1112 815 1204 642 1204 c 2
 422 1204 l 1
EndSplineSet
EndChar

StartChar: Q
Encoding: 81 81 186
Width: 1541
Flags: MW
HStem: -25 250<652.5 789.5 652.5 816.5> 1219 249<652.5 889>
VStem: 75 308<570 872.5 570 950.5> 1158 308<651.5 872.5>
LayerCount: 2
Fore
SplineSet
1419 -136 m 1
 1126 -136 l 1
 1023 15 l 1
 946 -12 862 -25 771 -25 c 0
 343 -25 75 258 75 721 c 0
 75 1180 343 1468 771 1468 c 0
 1198 1468 1466 1180 1466 721 c 0
 1466 467 1385 263 1236 140 c 1
 1419 -136 l 1
771 225 m 0
 808 225 842 230 874 239 c 1
 716 475 l 1
 989 475 l 1
 1052 389 l 1
 1120 467 1158 582 1158 721 c 0
 1158 1024 1007 1219 771 1219 c 0
 534 1219 383 1024 383 721 c 0
 383 419 534 225 771 225 c 0
EndSplineSet
EndChar

StartChar: R
Encoding: 82 82 187
Width: 1316
Flags: MW
HStem: 0 21G<120 422 120 120 938 938 938 1280> 528 219<422 687 422 669> 1207 236<422 422 422 684>
VStem: 120 302<0 528 747 1207> 928 310<905.5 1047>
LayerCount: 2
Fore
SplineSet
422 1207 m 1
 422 747 l 1
 687 747 l 2
 839 747 928 834 928 977 c 0
 928 1117 834 1207 684 1207 c 2
 422 1207 l 1
422 528 m 1
 422 0 l 1
 120 0 l 1
 120 1443 l 1
 716 1443 l 2
 1048 1443 1238 1268 1238 983 c 0
 1238 798 1142 638 976 573 c 1
 1280 0 l 1
 938 0 l 1
 669 528 l 1
 422 528 l 1
EndSplineSet
EndChar

StartChar: Rcaron
Encoding: 344 344 188
Width: 1316
Flags: MW
HStem: 0 21G<120 422 120 120 938 938 938 1280> 528 219<422 687 422 669> 1207 236<422 422 422 684> 1543 318<228 502 228 730>
VStem: 120 302<0 528 747 1207> 928 310<905.5 1047>
LayerCount: 2
Fore
SplineSet
422 1207 m 1
 422 747 l 1
 687 747 l 2
 839 747 928 834 928 977 c 0
 928 1117 834 1207 684 1207 c 2
 422 1207 l 1
422 528 m 1
 422 0 l 1
 120 0 l 1
 120 1443 l 1
 716 1443 l 2
 1048 1443 1238 1268 1238 983 c 0
 1238 798 1142 638 976 573 c 1
 1280 0 l 1
 938 0 l 1
 669 528 l 1
 422 528 l 1
502 1543 m 1
 228 1861 l 1
 450 1861 l 1
 613 1664 l 1
 619 1664 l 1
 782 1861 l 1
 1004 1861 l 1
 730 1543 l 1
 502 1543 l 1
EndSplineSet
EndChar

StartChar: Rlinebelow
Encoding: 7774 7774 189
Width: 1316
Flags: MW
HStem: -373 143<270 962 270 962> 0 21G<120 422 120 120 938 938 938 1280> 528 219<422 687 422 669> 1207 236<422 422 422 684>
VStem: 120 302<0 528 747 1207> 928 310<905.5 1047>
LayerCount: 2
Fore
SplineSet
422 1207 m 1
 422 747 l 1
 687 747 l 2
 839 747 928 834 928 977 c 0
 928 1117 834 1207 684 1207 c 2
 422 1207 l 1
422 528 m 1
 422 0 l 1
 120 0 l 1
 120 1443 l 1
 716 1443 l 2
 1048 1443 1238 1268 1238 983 c 0
 1238 798 1142 638 976 573 c 1
 1280 0 l 1
 938 0 l 1
 669 528 l 1
 422 528 l 1
962 -230 m 1
 962 -373 l 1
 270 -373 l 1
 270 -230 l 1
 962 -230 l 1
EndSplineSet
EndChar

StartChar: Rdotbelowmacron
Encoding: 7772 7772 190
Width: 1316
Flags: MW
HStem: -458 297<574 658> 0 21G<120 422 120 120 938 938 938 1280> 528 219<422 687 422 669> 1207 236<422 422 422 684> 1624 143<270 962 270 962>
VStem: 120 302<0 528 747 1207> 270 495 467 495 928 310<905.5 1047>
LayerCount: 2
Fore
SplineSet
616 -458 m 0xfd
 532 -458 467 -391 467 -309 c 0xfd
 467 -227 532 -161 616 -161 c 0
 700 -161 765 -227 765 -309 c 0xfa
 765 -391 700 -458 616 -458 c 0xfd
422 1207 m 1
 422 747 l 1
 687 747 l 2
 839 747 928 834 928 977 c 0xfc80
 928 1117 834 1207 684 1207 c 2
 422 1207 l 1
422 528 m 1
 422 0 l 1
 120 0 l 1
 120 1443 l 1
 716 1443 l 2
 1048 1443 1238 1268 1238 983 c 0
 1238 798 1142 638 976 573 c 1
 1280 0 l 1
 938 0 l 1
 669 528 l 1
 422 528 l 1
962 1767 m 1xfd
 962 1624 l 1xfd
 270 1624 l 1
 270 1767 l 1xfa
 962 1767 l 1xfd
EndSplineSet
EndChar

StartChar: Rdblgrave
Encoding: 528 528 191
Width: 1316
Flags: MW
HStem: 0 21G<120 422 120 120 938 938 938 1280> 528 219<422 687 422 669> 1207 236<422 422 422 684> 1553 310<33 311 428 533>
VStem: 120 302<0 528 747 1207> 928 310<905.5 1047>
LayerCount: 2
Fore
SplineSet
706 1553 m 1
 428 1863 l 1
 697 1863 l 1
 928 1553 l 1
 706 1553 l 1
311 1553 m 1
 33 1863 l 1
 301 1863 l 1
 533 1553 l 1
 311 1553 l 1
422 1207 m 1
 422 747 l 1
 687 747 l 2
 839 747 928 834 928 977 c 0
 928 1117 834 1207 684 1207 c 2
 422 1207 l 1
422 528 m 1
 422 0 l 1
 120 0 l 1
 120 1443 l 1
 716 1443 l 2
 1048 1443 1238 1268 1238 983 c 0
 1238 798 1142 638 976 573 c 1
 1280 0 l 1
 938 0 l 1
 669 528 l 1
 422 528 l 1
EndSplineSet
EndChar

StartChar: Rinvertedbreve
Encoding: 530 530 192
Width: 1316
Flags: MW
HStem: 0 21G<120 422 120 120 938 938 938 1280> 528 219<422 687 422 669> 1207 236<422 422 422 684> 1715 145<564 668>
VStem: 120 302<0 528 747 1207> 928 310<905.5 1047>
LayerCount: 2
Fore
SplineSet
422 1207 m 1
 422 747 l 1
 687 747 l 2
 839 747 928 834 928 977 c 0
 928 1117 834 1207 684 1207 c 2
 422 1207 l 1
422 528 m 1
 422 0 l 1
 120 0 l 1
 120 1443 l 1
 716 1443 l 2
 1048 1443 1238 1268 1238 983 c 0
 1238 798 1142 638 976 573 c 1
 1280 0 l 1
 938 0 l 1
 669 528 l 1
 422 528 l 1
263 1543 m 1
 266 1721 398 1860 616 1860 c 0
 834 1860 966 1721 969 1543 c 1
 791 1543 l 1
 789 1641 720 1715 616 1715 c 0
 512 1715 443 1641 441 1543 c 1
 263 1543 l 1
EndSplineSet
EndChar

StartChar: Racute
Encoding: 340 340 193
Width: 1316
Flags: MW
HStem: 0 21G<120 422 120 120 938 938 938 1280> 528 219<422 687 422 669> 1207 236<422 422 422 684> 1553 310<497 1002 497 1002>
VStem: 120 302<0 528 747 1207> 928 310<905.5 1047>
LayerCount: 2
Fore
SplineSet
725 1553 m 1
 497 1553 l 1
 729 1863 l 1
 1002 1863 l 1
 725 1553 l 1
422 1207 m 1
 422 747 l 1
 687 747 l 2
 839 747 928 834 928 977 c 0
 928 1117 834 1207 684 1207 c 2
 422 1207 l 1
422 528 m 1
 422 0 l 1
 120 0 l 1
 120 1443 l 1
 716 1443 l 2
 1048 1443 1238 1268 1238 983 c 0
 1238 798 1142 638 976 573 c 1
 1280 0 l 1
 938 0 l 1
 669 528 l 1
 422 528 l 1
EndSplineSet
EndChar

StartChar: Rdotbelow
Encoding: 7770 7770 194
Width: 1316
Flags: MW
HStem: -458 297<574 658> 0 21G<120 422 120 120 938 938 938 1280> 528 219<422 687 422 669> 1207 236<422 422 422 684>
VStem: 120 302<0 528 747 1207> 467 298<-350 -268> 928 310<905.5 1047>
LayerCount: 2
Fore
SplineSet
616 -458 m 0
 532 -458 467 -391 467 -309 c 0
 467 -227 532 -161 616 -161 c 0
 700 -161 765 -227 765 -309 c 0
 765 -391 700 -458 616 -458 c 0
422 1207 m 1
 422 747 l 1
 687 747 l 2
 839 747 928 834 928 977 c 0
 928 1117 834 1207 684 1207 c 2
 422 1207 l 1
422 528 m 1
 422 0 l 1
 120 0 l 1
 120 1443 l 1
 716 1443 l 2
 1048 1443 1238 1268 1238 983 c 0
 1238 798 1142 638 976 573 c 1
 1280 0 l 1
 938 0 l 1
 669 528 l 1
 422 528 l 1
EndSplineSet
EndChar

StartChar: Rdotaccent
Encoding: 7768 7768 195
Width: 1316
Flags: MW
HStem: 0 21G<120 422 120 120 938 938 938 1280> 528 219<422 687 422 669> 1207 236<422 422 422 684> 1561 297<574 658>
VStem: 120 302<0 528 747 1207> 467 298<1669 1751> 928 310<905.5 1047>
LayerCount: 2
Fore
SplineSet
616 1561 m 0
 532 1561 467 1628 467 1710 c 0
 467 1792 532 1858 616 1858 c 0
 700 1858 765 1792 765 1710 c 0
 765 1628 700 1561 616 1561 c 0
422 1207 m 1
 422 747 l 1
 687 747 l 2
 839 747 928 834 928 977 c 0
 928 1117 834 1207 684 1207 c 2
 422 1207 l 1
422 528 m 1
 422 0 l 1
 120 0 l 1
 120 1443 l 1
 716 1443 l 2
 1048 1443 1238 1268 1238 983 c 0
 1238 798 1142 638 976 573 c 1
 1280 0 l 1
 938 0 l 1
 669 528 l 1
 422 528 l 1
EndSplineSet
EndChar

StartChar: Rcommaaccent
Encoding: 342 342 196
Width: 1316
Flags: MW
HStem: -500 345<498 594 377 754> 0 21G<120 422 120 120 938 938 938 1280> 528 219<422 687 422 669> 1207 236<422 422 422 684>
VStem: 120 302<0 528 747 1207> 928 310<905.5 1047>
LayerCount: 2
Fore
SplineSet
422 1207 m 1
 422 747 l 1
 687 747 l 2
 839 747 928 834 928 977 c 0
 928 1117 834 1207 684 1207 c 2
 422 1207 l 1
422 528 m 1
 422 0 l 1
 120 0 l 1
 120 1443 l 1
 716 1443 l 2
 1048 1443 1238 1268 1238 983 c 0
 1238 798 1142 638 976 573 c 1
 1280 0 l 1
 938 0 l 1
 669 528 l 1
 422 528 l 1
594 -500 m 1
 377 -500 l 1
 498 -155 l 1
 754 -155 l 1
 594 -500 l 1
EndSplineSet
EndChar

StartChar: S
Encoding: 83 83 197
Width: 1293
Flags: MW
HStem: -25 239<575 735.5 575 822> 1230 238<576.5 726.5>
VStem: 98 304<1007.5 1105.5 1007.5 1159> 926 302<344 444>
LayerCount: 2
Fore
SplineSet
66 411 m 1
 357 411 l 1
 371 292 495 214 655 214 c 0
 816 214 926 291 926 397 c 0
 926 491 857 543 683 582 c 2
 495 623 l 2
 229 680 98 815 98 1026 c 0
 98 1292 328 1468 650 1468 c 0
 986 1468 1197 1295 1202 1034 c 1
 919 1034 l 1
 909 1156 802 1230 651 1230 c 0
 502 1230 402 1159 402 1052 c 0
 402 963 472 913 638 875 c 2
 813 838 l 2
 1102 776 1228 652 1228 432 c 0
 1228 152 1001 -25 643 -25 c 0
 296 -25 75 140 66 411 c 1
EndSplineSet
EndChar

StartChar: Scaron
Encoding: 352 352 198
Width: 1293
Flags: MW
HStem: -25 239<575 735.5 575 822> 1230 238<576.5 726.5> 1543 318<266 540 266 768>
VStem: 98 304<1007.5 1105.5 1007.5 1159> 926 302<344 444>
LayerCount: 2
Fore
SplineSet
66 411 m 1
 357 411 l 1
 371 292 495 214 655 214 c 0
 816 214 926 291 926 397 c 0
 926 491 857 543 683 582 c 2
 495 623 l 2
 229 680 98 815 98 1026 c 0
 98 1292 328 1468 650 1468 c 0
 986 1468 1197 1295 1202 1034 c 1
 919 1034 l 1
 909 1156 802 1230 651 1230 c 0
 502 1230 402 1159 402 1052 c 0
 402 963 472 913 638 875 c 2
 813 838 l 2
 1102 776 1228 652 1228 432 c 0
 1228 152 1001 -25 643 -25 c 0
 296 -25 75 140 66 411 c 1
540 1543 m 1
 266 1861 l 1
 488 1861 l 1
 651 1664 l 1
 657 1664 l 1
 820 1861 l 1
 1042 1861 l 1
 768 1543 l 1
 540 1543 l 1
EndSplineSet
EndChar

StartChar: Scedilla
Encoding: 350 350 199
Width: 1293
Flags: MW
HStem: -461 122<605.5 633> -228 112<530 747.5> -23 21G<577 577> 1230 238<576.5 726.5>
VStem: 98 304<1007.5 1105.5 1007.5 1159> 711 163<-302.5 -263.5> 926 302<344 444>
LayerCount: 2
Fore
SplineSet
638 875 m 2
 813 838 l 2
 1102 776 1228 652 1228 432 c 0
 1228 175 1037 5 729 -21 c 1
 689 -116 l 1
 806 -116 874 -174 874 -275 c 0
 874 -390 784 -460 633 -461 c 0
 578 -461 529 -456 493 -445 c 1
 493 -325 l 1
 516 -333 564 -339 604 -339 c 0
 676 -339 711 -321 711 -284 c 0
 711 -243 676 -228 586 -228 c 2
 530 -228 l 1
 530 -127 l 1
 577 -23 l 1
 268 -3 74 158 66 411 c 1
 357 411 l 1
 371 292 495 214 655 214 c 0
 816 214 926 291 926 397 c 0
 926 491 857 543 683 582 c 2
 495 623 l 2
 229 680 98 815 98 1026 c 0
 98 1292 328 1468 650 1468 c 0
 986 1468 1197 1295 1202 1034 c 1
 919 1034 l 1
 909 1156 802 1230 651 1230 c 0
 502 1230 402 1159 402 1052 c 0
 402 963 472 913 638 875 c 2
EndSplineSet
Substitution2: "'locl' Localized Forms in Latin lookup 0 subtable" Scommaaccent
EndChar

StartChar: Sdotaccent
Encoding: 7776 7776 200
Width: 1293
Flags: MW
HStem: -25 239<575 735.5 575 822> 1230 238<576.5 726.5> 1561 297<612 696>
VStem: 98 304<1007.5 1105.5 1007.5 1159> 505 298<1669 1751> 926 302<344 444>
LayerCount: 2
Fore
SplineSet
654 1561 m 0
 570 1561 505 1628 505 1710 c 0
 505 1792 570 1858 654 1858 c 0
 738 1858 803 1792 803 1710 c 0
 803 1628 738 1561 654 1561 c 0
66 411 m 1
 357 411 l 1
 371 292 495 214 655 214 c 0
 816 214 926 291 926 397 c 0
 926 491 857 543 683 582 c 2
 495 623 l 2
 229 680 98 815 98 1026 c 0
 98 1292 328 1468 650 1468 c 0
 986 1468 1197 1295 1202 1034 c 1
 919 1034 l 1
 909 1156 802 1230 651 1230 c 0
 502 1230 402 1159 402 1052 c 0
 402 963 472 913 638 875 c 2
 813 838 l 2
 1102 776 1228 652 1228 432 c 0
 1228 152 1001 -25 643 -25 c 0
 296 -25 75 140 66 411 c 1
EndSplineSet
EndChar

StartChar: Sdotbelow
Encoding: 7778 7778 201
Width: 1293
Flags: MW
HStem: -458 297<604 688> -25 239<575 735.5 575 822> 1230 238<576.5 726.5>
VStem: 98 304<1007.5 1105.5 1007.5 1159> 497 298<-350 -268> 926 302<344 444>
LayerCount: 2
Fore
SplineSet
646 -458 m 0
 562 -458 497 -391 497 -309 c 0
 497 -227 562 -161 646 -161 c 0
 730 -161 795 -227 795 -309 c 0
 795 -391 730 -458 646 -458 c 0
66 411 m 1
 357 411 l 1
 371 292 495 214 655 214 c 0
 816 214 926 291 926 397 c 0
 926 491 857 543 683 582 c 2
 495 623 l 2
 229 680 98 815 98 1026 c 0
 98 1292 328 1468 650 1468 c 0
 986 1468 1197 1295 1202 1034 c 1
 919 1034 l 1
 909 1156 802 1230 651 1230 c 0
 502 1230 402 1159 402 1052 c 0
 402 963 472 913 638 875 c 2
 813 838 l 2
 1102 776 1228 652 1228 432 c 0
 1228 152 1001 -25 643 -25 c 0
 296 -25 75 140 66 411 c 1
EndSplineSet
EndChar

StartChar: Scommaaccent
Encoding: 536 536 202
Width: 1293
Flags: MW
HStem: -500 345<528 624 407 784> -25 239<575 735.5 575 822> 1230 238<576.5 726.5>
VStem: 98 304<1007.5 1105.5 1007.5 1159> 926 302<344 444>
LayerCount: 2
Fore
SplineSet
66 411 m 1
 357 411 l 1
 371 292 495 214 655 214 c 0
 816 214 926 291 926 397 c 0
 926 491 857 543 683 582 c 2
 495 623 l 2
 229 680 98 815 98 1026 c 0
 98 1292 328 1468 650 1468 c 0
 986 1468 1197 1295 1202 1034 c 1
 919 1034 l 1
 909 1156 802 1230 651 1230 c 0
 502 1230 402 1159 402 1052 c 0
 402 963 472 913 638 875 c 2
 813 838 l 2
 1102 776 1228 652 1228 432 c 0
 1228 152 1001 -25 643 -25 c 0
 296 -25 75 140 66 411 c 1
624 -500 m 1
 407 -500 l 1
 528 -155 l 1
 784 -155 l 1
 624 -500 l 1
EndSplineSet
EndChar

StartChar: Sdotbelowdotaccent
Encoding: 7784 7784 203
Width: 1293
Flags: MW
HStem: -458 297<604 688> -25 239<575 735.5 575 822> 1230 238<576.5 726.5> 1561 297<612 696>
VStem: 98 304<1007.5 1105.5 1007.5 1159> 497 306 505 290 926 302<344 444>
LayerCount: 2
Fore
SplineSet
646 -458 m 0xe4
 562 -458 497 -391 497 -309 c 0xe4
 497 -227 562 -161 646 -161 c 0
 730 -161 795 -227 795 -309 c 0xe2
 795 -391 730 -458 646 -458 c 0xe4
66 411 m 1
 357 411 l 1
 371 292 495 214 655 214 c 0
 816 214 926 291 926 397 c 0
 926 491 857 543 683 582 c 2
 495 623 l 2
 229 680 98 815 98 1026 c 0
 98 1292 328 1468 650 1468 c 0
 986 1468 1197 1295 1202 1034 c 1
 919 1034 l 1
 909 1156 802 1230 651 1230 c 0
 502 1230 402 1159 402 1052 c 0
 402 963 472 913 638 875 c 2
 813 838 l 2
 1102 776 1228 652 1228 432 c 0xfb
 1228 152 1001 -25 643 -25 c 0
 296 -25 75 140 66 411 c 1
654 1561 m 0
 570 1561 505 1628 505 1710 c 0xf2
 505 1792 570 1858 654 1858 c 0
 738 1858 803 1792 803 1710 c 0xf4
 803 1628 738 1561 654 1561 c 0
EndSplineSet
EndChar

StartChar: Scarondotaccent
Encoding: 7782 7782 204
Width: 1293
Flags: MW
HStem: -25 239<575 735.5 575 822> 1230 238<576.5 726.5> 1556 264<277 538 277 770> 1852 260<615.5 692.5>
VStem: 98 304<1007.5 1105.5 1007.5 1159> 520 268<1946.5 2018> 926 302<344 444>
LayerCount: 2
Fore
SplineSet
538 1556 m 1
 277 1820 l 1
 508 1820 l 1
 648 1670 l 1
 660 1670 l 1
 800 1820 l 1
 1031 1820 l 1
 770 1556 l 1
 538 1556 l 1
654 1852 m 0
 577 1852 520 1911 520 1982 c 0
 520 2054 577 2112 654 2112 c 0
 731 2112 788 2054 788 1982 c 0
 788 1911 731 1852 654 1852 c 0
66 411 m 1
 357 411 l 1
 371 292 495 214 655 214 c 0
 816 214 926 291 926 397 c 0
 926 491 857 543 683 582 c 2
 495 623 l 2
 229 680 98 815 98 1026 c 0
 98 1292 328 1468 650 1468 c 0
 986 1468 1197 1295 1202 1034 c 1
 919 1034 l 1
 909 1156 802 1230 651 1230 c 0
 502 1230 402 1159 402 1052 c 0
 402 963 472 913 638 875 c 2
 813 838 l 2
 1102 776 1228 652 1228 432 c 0
 1228 152 1001 -25 643 -25 c 0
 296 -25 75 140 66 411 c 1
EndSplineSet
EndChar

StartChar: Scircumflex
Encoding: 348 348 205
Width: 1293
Flags: MW
HStem: -25 239<575 735.5 575 822> 1230 238<576.5 726.5> 1543 318<266 768 266 768 540 1042 540 820>
VStem: 98 304<1007.5 1105.5 1007.5 1159> 926 302<344 444>
LayerCount: 2
Fore
SplineSet
66 411 m 1
 357 411 l 1
 371 292 495 214 655 214 c 0
 816 214 926 291 926 397 c 0
 926 491 857 543 683 582 c 2
 495 623 l 2
 229 680 98 815 98 1026 c 0
 98 1292 328 1468 650 1468 c 0
 986 1468 1197 1295 1202 1034 c 1
 919 1034 l 1
 909 1156 802 1230 651 1230 c 0
 502 1230 402 1159 402 1052 c 0
 402 963 472 913 638 875 c 2
 813 838 l 2
 1102 776 1228 652 1228 432 c 0
 1228 152 1001 -25 643 -25 c 0
 296 -25 75 140 66 411 c 1
540 1861 m 1
 768 1861 l 1
 1042 1543 l 1
 820 1543 l 1
 657 1740 l 1
 651 1740 l 1
 488 1543 l 1
 266 1543 l 1
 540 1861 l 1
EndSplineSet
EndChar

StartChar: Sacutedotaccent
Encoding: 7780 7780 206
Width: 1293
Flags: MW
HStem: -25 239<575 735.5 575 822> 1230 238<576.5 726.5> 1553 310<654 1159 654 1159> 1569 297<385 469>
VStem: 98 304<1007.5 1105.5 1007.5 1159> 278 298<1677 1759> 926 302<344 444>
LayerCount: 2
Fore
SplineSet
882 1553 m 1xea
 654 1553 l 1
 886 1863 l 1
 1159 1863 l 1
 882 1553 l 1xea
427 1569 m 0xd6
 343 1569 278 1636 278 1718 c 0
 278 1800 343 1866 427 1866 c 0
 511 1866 576 1800 576 1718 c 0
 576 1636 511 1569 427 1569 c 0xd6
66 411 m 1
 357 411 l 1
 371 292 495 214 655 214 c 0
 816 214 926 291 926 397 c 0
 926 491 857 543 683 582 c 2
 495 623 l 2
 229 680 98 815 98 1026 c 0
 98 1292 328 1468 650 1468 c 0
 986 1468 1197 1295 1202 1034 c 1
 919 1034 l 1
 909 1156 802 1230 651 1230 c 0
 502 1230 402 1159 402 1052 c 0xea
 402 963 472 913 638 875 c 2
 813 838 l 2
 1102 776 1228 652 1228 432 c 0
 1228 152 1001 -25 643 -25 c 0
 296 -25 75 140 66 411 c 1
EndSplineSet
EndChar

StartChar: Sacute
Encoding: 346 346 207
Width: 1293
Flags: MW
HStem: -25 239<575 735.5 575 822> 1230 238<576.5 726.5> 1553 310<535 1040 535 1040>
VStem: 98 304<1007.5 1105.5 1007.5 1159> 926 302<344 444>
LayerCount: 2
Fore
SplineSet
763 1553 m 1
 535 1553 l 1
 767 1863 l 1
 1040 1863 l 1
 763 1553 l 1
66 411 m 1
 357 411 l 1
 371 292 495 214 655 214 c 0
 816 214 926 291 926 397 c 0
 926 491 857 543 683 582 c 2
 495 623 l 2
 229 680 98 815 98 1026 c 0
 98 1292 328 1468 650 1468 c 0
 986 1468 1197 1295 1202 1034 c 1
 919 1034 l 1
 909 1156 802 1230 651 1230 c 0
 502 1230 402 1159 402 1052 c 0
 402 963 472 913 638 875 c 2
 813 838 l 2
 1102 776 1228 652 1228 432 c 0
 1228 152 1001 -25 643 -25 c 0
 296 -25 75 140 66 411 c 1
EndSplineSet
EndChar

StartChar: T
Encoding: 84 84 208
Width: 1242
Flags: MW
HStem: 0 21G<470 772 470 470> 1194 249<48 470 48 1195 772 772 772 1195>
VStem: 470 302<0 1194>
LayerCount: 2
Fore
SplineSet
772 0 m 1
 470 0 l 1
 470 1194 l 1
 48 1194 l 1
 48 1443 l 1
 1195 1443 l 1
 1195 1194 l 1
 772 1194 l 1
 772 0 l 1
EndSplineSet
EndChar

StartChar: Tcircumflexbelow
Encoding: 7792 7792 209
Width: 1242
Flags: MW
HStem: -478 318<233 735 233 735 507 1009 507 787> 0 21G<470 772 470 470> 1194 249<48 470 48 1195 772 772 772 1195>
VStem: 48 407 470 302<0 1194> 787 408
LayerCount: 2
Fore
SplineSet
772 0 m 1
 470 0 l 1
 470 1194 l 1xe8
 48 1194 l 1
 48 1443 l 1
 1195 1443 l 1
 1195 1194 l 1xfc
 772 1194 l 1
 772 0 l 1
507 -160 m 1
 735 -160 l 1
 1009 -478 l 1
 787 -478 l 1
 624 -281 l 1
 618 -281 l 1
 455 -478 l 1xfc
 233 -478 l 1
 507 -160 l 1
EndSplineSet
EndChar

StartChar: Tdotbelow
Encoding: 7788 7788 210
Width: 1242
Flags: MW
HStem: -458 297<579 663> 0 21G<470 772 470 470> 1194 249<48 470 48 1195 772 772 772 1195>
VStem: 470 302<0 1194>
LayerCount: 2
Fore
SplineSet
621 -458 m 0
 537 -458 472 -391 472 -309 c 0
 472 -227 537 -161 621 -161 c 0
 705 -161 770 -227 770 -309 c 0
 770 -391 705 -458 621 -458 c 0
772 0 m 1
 470 0 l 1
 470 1194 l 1
 48 1194 l 1
 48 1443 l 1
 1195 1443 l 1
 1195 1194 l 1
 772 1194 l 1
 772 0 l 1
EndSplineSet
EndChar

StartChar: Tcommaaccent
Encoding: 538 538 211
Width: 1242
Flags: MW
HStem: -500 345<503 599 382 759> 0 21G<470 772 470 470> 1194 249<48 470 48 1195 772 772 772 1195>
VStem: 48 551 470 302<0 1194>
LayerCount: 2
Fore
SplineSet
599 -500 m 1xf0
 382 -500 l 1
 503 -155 l 1
 759 -155 l 1
 599 -500 l 1xf0
772 0 m 1xe8
 470 0 l 1
 470 1194 l 1xe8
 48 1194 l 1
 48 1443 l 1xf0
 1195 1443 l 1
 1195 1194 l 1
 772 1194 l 1
 772 0 l 1xe8
EndSplineSet
EndChar

StartChar: Tdotaccent
Encoding: 7786 7786 212
Width: 1242
Flags: MW
HStem: 0 21G<470 772 470 470> 1194 249<48 470 48 1195 772 772 772 1195> 1561 297<579 663>
VStem: 470 302<0 1194>
LayerCount: 2
Fore
SplineSet
621 1561 m 0
 537 1561 472 1628 472 1710 c 0
 472 1792 537 1858 621 1858 c 0
 705 1858 770 1792 770 1710 c 0
 770 1628 705 1561 621 1561 c 0
772 0 m 1
 470 0 l 1
 470 1194 l 1
 48 1194 l 1
 48 1443 l 1
 1195 1443 l 1
 1195 1194 l 1
 772 1194 l 1
 772 0 l 1
EndSplineSet
EndChar

StartChar: Tcedilla
Encoding: 354 354 213
Width: 1242
Flags: MW
HStem: -461 122<580.5 608> -228 112<505 722.5> 0 21G<470 563 470 470 713 772 713 713> 1194 249<48 470 48 1195 772 772 772 1195>
VStem: 470 302<0 1194> 686 163<-302.5 -263.5>
LayerCount: 2
Fore
SplineSet
772 0 m 1xf8
 713 0 l 1xf8
 664 -116 l 1
 781 -116 849 -174 849 -275 c 0
 849 -390 759 -460 608 -461 c 0
 553 -461 504 -456 468 -445 c 1
 468 -325 l 1
 491 -333 539 -339 579 -339 c 0
 651 -339 686 -321 686 -284 c 0xf4
 686 -243 651 -228 561 -228 c 2
 505 -228 l 1
 505 -127 l 1
 563 0 l 1
 470 0 l 1
 470 1194 l 1
 48 1194 l 1
 48 1443 l 1
 1195 1443 l 1
 1195 1194 l 1
 772 1194 l 1
 772 0 l 1xf8
EndSplineSet
Substitution2: "'locl' Localized Forms in Latin lookup 0 subtable" Tcommaaccent
EndChar

StartChar: Tlinebelow
Encoding: 7790 7790 214
Width: 1242
Flags: MW
HStem: -373 143<275 967 275 967> 0 21G<470 772 470 470> 1194 249<48 470 48 1195 772 772 772 1195>
VStem: 470 302<0 1194>
LayerCount: 2
Fore
SplineSet
967 -230 m 1
 967 -373 l 1
 275 -373 l 1
 275 -230 l 1
 967 -230 l 1
772 0 m 1
 470 0 l 1
 470 1194 l 1
 48 1194 l 1
 48 1443 l 1
 1195 1443 l 1
 1195 1194 l 1
 772 1194 l 1
 772 0 l 1
EndSplineSet
EndChar

StartChar: Tcaron
Encoding: 356 356 215
Width: 1242
Flags: MW
HStem: 0 21G<470 772 470 470> 1194 249<48 470 48 1195 772 772 772 1195> 1543 318<233 507 233 735>
VStem: 470 302<0 1194>
LayerCount: 2
Fore
SplineSet
507 1543 m 1
 233 1861 l 1
 455 1861 l 1
 618 1664 l 1
 624 1664 l 1
 787 1861 l 1
 1009 1861 l 1
 735 1543 l 1
 507 1543 l 1
772 0 m 1
 470 0 l 1
 470 1194 l 1
 48 1194 l 1
 48 1443 l 1
 1195 1443 l 1
 1195 1194 l 1
 772 1194 l 1
 772 0 l 1
EndSplineSet
EndChar

StartChar: Tbar
Encoding: 358 358 216
Width: 1298
Flags: MW
HStem: 0 21G<480 782 480 480> 589 211<215 480 215 480 782 1083> 1194 249<58 480 58 1205 782 1205 782 782>
VStem: 480 302<0 589 0 589 800 1194>
LayerCount: 2
Fore
SplineSet
1205 1194 m 1
 782 1194 l 1
 782 800 l 1
 1083 800 l 1
 1083 589 l 1
 782 589 l 1
 782 0 l 1
 480 0 l 1
 480 589 l 1
 215 589 l 1
 215 800 l 1
 480 800 l 1
 480 1194 l 1
 58 1194 l 1
 58 1443 l 1
 1205 1443 l 1
 1205 1194 l 1
EndSplineSet
EndChar

StartChar: U
Encoding: 85 85 217
Width: 1449
Flags: MW
HStem: -25 259<628 821.5 628 909.5> 1423 20G<120 422 422 422 1027 1329 1329 1329>
VStem: 120 302<510 540 540 1443> 1027 302<540 1443>
LayerCount: 2
Fore
SplineSet
422 1443 m 1
 422 540 l 2
 422 355 531 234 725 234 c 0
 918 234 1027 355 1027 540 c 2
 1027 1443 l 1
 1329 1443 l 1
 1329 510 l 2
 1329 192 1094 -25 725 -25 c 0
 355 -25 120 192 120 510 c 2
 120 1443 l 1
 422 1443 l 1
EndSplineSet
EndChar

StartChar: Ugrave
Encoding: 217 217 218
Width: 1449
Flags: MW
HStem: -25 259<628 821.5 628 909.5> 1423 20G<120 422 422 422 1027 1329 1329 1329> 1558 310<337 615 337 842>
VStem: 120 302<510 540 540 1443> 1027 302<540 1443>
LayerCount: 2
Fore
SplineSet
615 1558 m 1
 337 1868 l 1
 610 1868 l 1
 842 1558 l 1
 615 1558 l 1
422 1443 m 1
 422 540 l 2
 422 355 531 234 725 234 c 0
 918 234 1027 355 1027 540 c 2
 1027 1443 l 1
 1329 1443 l 1
 1329 510 l 2
 1329 192 1094 -25 725 -25 c 0
 355 -25 120 192 120 510 c 2
 120 1443 l 1
 422 1443 l 1
EndSplineSet
EndChar

StartChar: Udblgrave
Encoding: 532 532 219
Width: 1449
Flags: MW
HStem: -25 259<628 821.5 628 909.5> 1423 20G<120 422 422 422 1027 1329 1329 1329> 1553 310<142 420 537 642>
VStem: 120 302<510 540 540 1443> 1027 302<540 1443>
LayerCount: 2
Fore
SplineSet
815 1553 m 1
 537 1863 l 1
 806 1863 l 1
 1037 1553 l 1
 815 1553 l 1
420 1553 m 1
 142 1863 l 1
 410 1863 l 1
 642 1553 l 1
 420 1553 l 1
422 1443 m 1
 422 540 l 2
 422 355 531 234 725 234 c 0
 918 234 1027 355 1027 540 c 2
 1027 1443 l 1
 1329 1443 l 1
 1329 510 l 2
 1329 192 1094 -25 725 -25 c 0
 355 -25 120 192 120 510 c 2
 120 1443 l 1
 422 1443 l 1
EndSplineSet
EndChar

StartChar: Uacute
Encoding: 218 218 220
Width: 1449
Flags: MW
HStem: -25 259<628 821.5 628 909.5> 1423 20G<120 422 422 422 1027 1329 1329 1329> 1553 310<606 1111 606 1111>
VStem: 120 302<510 540 540 1443> 1027 302<540 1443>
LayerCount: 2
Fore
SplineSet
834 1553 m 1
 606 1553 l 1
 838 1863 l 1
 1111 1863 l 1
 834 1553 l 1
422 1443 m 1
 422 540 l 2
 422 355 531 234 725 234 c 0
 918 234 1027 355 1027 540 c 2
 1027 1443 l 1
 1329 1443 l 1
 1329 510 l 2
 1329 192 1094 -25 725 -25 c 0
 355 -25 120 192 120 510 c 2
 120 1443 l 1
 422 1443 l 1
EndSplineSet
EndChar

StartChar: Uhungarumlaut
Encoding: 368 368 221
Width: 1449
Flags: MW
HStem: -25 259<628 821.5 628 909.5> 1423 20G<120 422 422 422 1027 1329 1329 1329> 1553 310<413 913 413 913 808 913 644 1030 808 808>
VStem: 120 302<510 540 540 1443> 1027 302<540 1443>
LayerCount: 2
Fore
SplineSet
422 1443 m 1
 422 540 l 2
 422 355 531 234 725 234 c 0
 918 234 1027 355 1027 540 c 2
 1027 1443 l 1
 1329 1443 l 1
 1329 510 l 2
 1329 192 1094 -25 725 -25 c 0
 355 -25 120 192 120 510 c 2
 120 1443 l 1
 422 1443 l 1
1030 1553 m 1
 808 1553 l 1
 1040 1863 l 1
 1308 1863 l 1
 1030 1553 l 1
635 1553 m 1
 413 1553 l 1
 644 1863 l 1
 913 1863 l 1
 635 1553 l 1
EndSplineSet
EndChar

StartChar: Ucircumflex
Encoding: 219 219 222
Width: 1449
Flags: MW
HStem: -25 259<628 821.5 628 909.5> 1423 20G<120 422 422 422 1027 1329 1329 1329> 1543 318<337 839 337 839 611 1113 611 891>
VStem: 120 302<510 540 540 1443> 1027 302<540 1443>
LayerCount: 2
Fore
SplineSet
611 1861 m 1
 839 1861 l 1
 1113 1543 l 1
 891 1543 l 1
 728 1740 l 1
 722 1740 l 1
 559 1543 l 1
 337 1543 l 1
 611 1861 l 1
422 1443 m 1
 422 540 l 2
 422 355 531 234 725 234 c 0
 918 234 1027 355 1027 540 c 2
 1027 1443 l 1
 1329 1443 l 1
 1329 510 l 2
 1329 192 1094 -25 725 -25 c 0
 355 -25 120 192 120 510 c 2
 120 1443 l 1
 422 1443 l 1
EndSplineSet
EndChar

StartChar: Ucaron
Encoding: 467 467 223
Width: 1449
Flags: MW
HStem: -25 259<628 821.5 628 909.5> 1423 20G<120 422 422 422 1027 1329 1329 1329> 1543 318<337 611 337 839>
VStem: 120 302<510 540 540 1443> 1027 302<540 1443>
LayerCount: 2
Fore
SplineSet
611 1543 m 1
 337 1861 l 1
 559 1861 l 1
 722 1664 l 1
 728 1664 l 1
 891 1861 l 1
 1113 1861 l 1
 839 1543 l 1
 611 1543 l 1
422 1443 m 1
 422 540 l 2
 422 355 531 234 725 234 c 0
 918 234 1027 355 1027 540 c 2
 1027 1443 l 1
 1329 1443 l 1
 1329 510 l 2
 1329 192 1094 -25 725 -25 c 0
 355 -25 120 192 120 510 c 2
 120 1443 l 1
 422 1443 l 1
EndSplineSet
EndChar

StartChar: Ucircumflexbelow
Encoding: 7798 7798 224
Width: 1449
Flags: MW
HStem: -478 318<337 839 337 839 611 1113 611 891> -25 259<628 821.5 628 909.5> 1423 20G<120 422 422 422 1027 1329 1329 1329>
VStem: 120 302<510 540 540 1443> 1027 302<540 1443>
LayerCount: 2
Fore
SplineSet
422 1443 m 1
 422 540 l 2
 422 355 531 234 725 234 c 0
 918 234 1027 355 1027 540 c 2
 1027 1443 l 1
 1329 1443 l 1
 1329 510 l 2
 1329 192 1094 -25 725 -25 c 0
 355 -25 120 192 120 510 c 2
 120 1443 l 1
 422 1443 l 1
611 -160 m 1
 839 -160 l 1
 1113 -478 l 1
 891 -478 l 1
 728 -281 l 1
 722 -281 l 1
 559 -478 l 1
 337 -478 l 1
 611 -160 l 1
EndSplineSet
EndChar

StartChar: Udieresis
Encoding: 220 220 225
Width: 1449
Flags: MW
HStem: -25 259<628 821.5 628 909.5> 1423 20G<120 422 422 422 1027 1329 1329 1329> 1561 262<477.5 554.5 896.5 973.5>
VStem: 120 302<510 540 540 1443> 381 270<1656 1728> 800 270<1656 1728> 1027 302<540 1443>
LayerCount: 2
Fore
SplineSet
516 1561 m 0xec
 439 1561 381 1620 381 1692 c 0
 381 1764 439 1823 516 1823 c 0
 593 1823 651 1764 651 1692 c 0
 651 1620 593 1561 516 1561 c 0xec
935 1561 m 0
 858 1561 800 1620 800 1692 c 0
 800 1764 858 1823 935 1823 c 0
 1012 1823 1070 1764 1070 1692 c 0
 1070 1620 1012 1561 935 1561 c 0
422 1443 m 1xf2
 422 540 l 2
 422 355 531 234 725 234 c 0
 918 234 1027 355 1027 540 c 2
 1027 1443 l 1
 1329 1443 l 1
 1329 510 l 2
 1329 192 1094 -25 725 -25 c 0
 355 -25 120 192 120 510 c 2
 120 1443 l 1
 422 1443 l 1xf2
EndSplineSet
EndChar

StartChar: Udieresisgrave
Encoding: 475 475 226
Width: 1449
Flags: MW
HStem: -25 259<628 821.5 628 909.5> 1423 20G<120 422 422 422 1027 1329 1329 1329> 1564 249<484 557 893 966> 1887 243<626 643 389 837 626 626>
VStem: 120 302<510 540 540 1443> 392 257<1654.5 1723> 801 257<1654.5 1723> 1027 302<540 1443>
LayerCount: 2
Fore
SplineSet
837 1887 m 1xf9
 626 1887 l 1
 389 2130 l 1
 643 2130 l 1
 837 1887 l 1xf9
521 1564 m 0xf6
 447 1564 392 1620 392 1689 c 0
 392 1757 447 1813 521 1813 c 0
 593 1813 649 1757 649 1689 c 0
 649 1620 593 1564 521 1564 c 0xf6
929 1564 m 0
 857 1564 801 1620 801 1689 c 0
 801 1757 857 1813 929 1813 c 0
 1003 1813 1058 1757 1058 1689 c 0
 1058 1620 1003 1564 929 1564 c 0
422 1443 m 1xf9
 422 540 l 2
 422 355 531 234 725 234 c 0
 918 234 1027 355 1027 540 c 2
 1027 1443 l 1
 1329 1443 l 1
 1329 510 l 2
 1329 192 1094 -25 725 -25 c 0
 355 -25 120 192 120 510 c 2
 120 1443 l 1
 422 1443 l 1xf9
EndSplineSet
EndChar

StartChar: Udieresisacute
Encoding: 471 471 227
Width: 1449
Flags: MW
HStem: -25 259<628 821.5 628 909.5> 1423 20G<120 422 422 422 1027 1329 1329 1329> 1564 249<484 557 893 966> 1887 243<613 1061 807 824>
VStem: 120 302<510 540 540 1443> 392 257<1654.5 1723> 801 257<1654.5 1723> 1027 302<540 1443>
LayerCount: 2
Fore
SplineSet
613 1887 m 1xf9
 807 2130 l 1
 1061 2130 l 1
 824 1887 l 1
 613 1887 l 1xf9
521 1564 m 0xf6
 447 1564 392 1620 392 1689 c 0
 392 1757 447 1813 521 1813 c 0
 593 1813 649 1757 649 1689 c 0
 649 1620 593 1564 521 1564 c 0xf6
929 1564 m 0
 857 1564 801 1620 801 1689 c 0
 801 1757 857 1813 929 1813 c 0
 1003 1813 1058 1757 1058 1689 c 0
 1058 1620 1003 1564 929 1564 c 0
422 1443 m 1xf9
 422 540 l 2
 422 355 531 234 725 234 c 0
 918 234 1027 355 1027 540 c 2
 1027 1443 l 1
 1329 1443 l 1
 1329 510 l 2
 1329 192 1094 -25 725 -25 c 0
 355 -25 120 192 120 510 c 2
 120 1443 l 1
 422 1443 l 1xf9
EndSplineSet
EndChar

StartChar: Udieresismacron
Encoding: 469 469 228
Width: 1449
Flags: MW
HStem: -25 259<628 821.5 628 909.5> 1423 20G<120 422 422 422 1027 1329 1329 1329> 1564 249<484 557 893 966> 1930 143<379 1071 379 1071>
VStem: 120 302<510 540 540 1443> 392 257<1654.5 1723> 801 257<1654.5 1723> 1027 302<540 1443>
LayerCount: 2
Fore
SplineSet
422 1443 m 1xf9
 422 540 l 2
 422 355 531 234 725 234 c 0
 918 234 1027 355 1027 540 c 2
 1027 1443 l 1
 1329 1443 l 1
 1329 510 l 2
 1329 192 1094 -25 725 -25 c 0
 355 -25 120 192 120 510 c 2
 120 1443 l 1
 422 1443 l 1xf9
521 1813 m 0xf6
 593 1813 649 1757 649 1689 c 0
 649 1620 593 1564 521 1564 c 0
 447 1564 392 1620 392 1689 c 0
 392 1757 447 1813 521 1813 c 0xf6
379 2073 m 1
 1071 2073 l 1
 1071 1930 l 1
 379 1930 l 1
 379 2073 l 1
929 1813 m 0
 1003 1813 1058 1757 1058 1689 c 0
 1058 1620 1003 1564 929 1564 c 0
 857 1564 801 1620 801 1689 c 0
 801 1757 857 1813 929 1813 c 0
EndSplineSet
EndChar

StartChar: Udieresiscaron
Encoding: 473 473 229
Width: 1449
Flags: MW
HStem: -25 259<628 821.5 628 909.5> 1423 20G<120 422 422 422 1027 1329 1329 1329> 1564 249<484 557 893 966> 1888 254<358 615 358 835>
VStem: 120 302<510 540 540 1443> 392 257<1654.5 1723> 801 257<1654.5 1723> 1027 302<540 1443>
LayerCount: 2
Fore
SplineSet
615 1888 m 1xf9
 358 2142 l 1
 583 2142 l 1
 716 2006 l 1
 734 2006 l 1
 867 2142 l 1
 1092 2142 l 1
 835 1888 l 1
 615 1888 l 1xf9
521 1813 m 0xf6
 593 1813 649 1757 649 1689 c 0
 649 1620 593 1564 521 1564 c 0
 447 1564 392 1620 392 1689 c 0
 392 1757 447 1813 521 1813 c 0xf6
929 1813 m 0
 1003 1813 1058 1757 1058 1689 c 0
 1058 1620 1003 1564 929 1564 c 0
 857 1564 801 1620 801 1689 c 0
 801 1757 857 1813 929 1813 c 0
422 1443 m 1xf9
 422 540 l 2
 422 355 531 234 725 234 c 0
 918 234 1027 355 1027 540 c 2
 1027 1443 l 1
 1329 1443 l 1
 1329 510 l 2
 1329 192 1094 -25 725 -25 c 0
 355 -25 120 192 120 510 c 2
 120 1443 l 1
 422 1443 l 1xf9
EndSplineSet
EndChar

StartChar: Udieresisbelow
Encoding: 7794 7794 230
Width: 1449
Flags: MW
HStem: -430 262<477.5 554.5 896.5 973.5> -25 259<628 821.5 628 909.5> 1423 20G<120 422 422 422 1027 1329 1329 1329>
VStem: 120 302<510 540 540 1443> 381 270<-335 -263> 800 270<-335 -263> 1027 302<540 1443>
LayerCount: 2
Fore
SplineSet
422 1443 m 1xf2
 422 540 l 2
 422 355 531 234 725 234 c 0
 918 234 1027 355 1027 540 c 2
 1027 1443 l 1
 1329 1443 l 1
 1329 510 l 2
 1329 192 1094 -25 725 -25 c 0
 355 -25 120 192 120 510 c 2
 120 1443 l 1
 422 1443 l 1xf2
516 -430 m 0xec
 439 -430 381 -371 381 -299 c 0
 381 -227 439 -168 516 -168 c 0
 593 -168 651 -227 651 -299 c 0
 651 -371 593 -430 516 -430 c 0xec
935 -430 m 0
 858 -430 800 -371 800 -299 c 0
 800 -227 858 -168 935 -168 c 0
 1012 -168 1070 -227 1070 -299 c 0
 1070 -371 1012 -430 935 -430 c 0
EndSplineSet
EndChar

StartChar: Utildebelow
Encoding: 7796 7796 231
Width: 1449
Flags: MW
HStem: -435 153<820 877.5 820 925.5> -299 152<584.5 644> -25 259<628 821.5 628 909.5> 1423 20G<120 422 422 422 1027 1329 1329 1329>
VStem: 120 302<510 540 540 1443> 380 158<-418 -332> 921 158<-245 -160> 1027 302<540 1443>
LayerCount: 2
Fore
SplineSet
865 -435 m 0xba
 728 -435 681 -299 607 -299 c 0
 562 -299 539 -348 538 -418 c 1
 380 -418 l 1
 380 -246 472 -147 595 -147 c 0x75
 737 -147 784 -282 856 -282 c 0
 899 -282 920 -237 921 -160 c 1
 1079 -160 l 1
 1079 -330 986 -435 865 -435 c 0xba
422 1443 m 1x79
 422 540 l 2
 422 355 531 234 725 234 c 0
 918 234 1027 355 1027 540 c 2
 1027 1443 l 1
 1329 1443 l 1
 1329 510 l 2
 1329 192 1094 -25 725 -25 c 0
 355 -25 120 192 120 510 c 2
 120 1443 l 1
 422 1443 l 1x79
EndSplineSet
EndChar

StartChar: Uhookabove
Encoding: 7910 7910 232
Width: 1449
Flags: MW
HStem: -25 259<628 821.5 628 909.5> 1423 20G<120 422 422 422 1027 1329 1329 1329> 1809 138<656.5 675>
VStem: 120 302<510 540 540 1443> 743 177<1714 1757.5> 1027 302<540 1443>
LayerCount: 2
Fore
SplineSet
422 1443 m 1
 422 540 l 2
 422 355 531 234 725 234 c 0
 918 234 1027 355 1027 540 c 2
 1027 1443 l 1
 1329 1443 l 1
 1329 510 l 2
 1329 192 1094 -25 725 -25 c 0
 355 -25 120 192 120 510 c 2
 120 1443 l 1
 422 1443 l 1
540 1790 m 1
 540 1922 l 1
 575 1938 630 1947 683 1947 c 0
 827 1947 920 1873 920 1752 c 0
 920 1655 842 1567 732 1524 c 1
 646 1629 l 1
 703 1649 743 1692 743 1736 c 0
 743 1779 704 1809 646 1809 c 0
 613 1809 569 1802 540 1790 c 1
EndSplineSet
EndChar

StartChar: Ubreve
Encoding: 364 364 233
Width: 1449
Flags: MW
HStem: -25 259<628 821.5 628 909.5> 1423 20G<120 422 422 422 1027 1329 1329 1329> 1543 145<673 777 673 834>
VStem: 120 302<510 540 540 1443> 1027 302<540 1443>
LayerCount: 2
Fore
SplineSet
422 1443 m 1
 422 540 l 2
 422 355 531 234 725 234 c 0
 918 234 1027 355 1027 540 c 2
 1027 1443 l 1
 1329 1443 l 1
 1329 510 l 2
 1329 192 1094 -25 725 -25 c 0
 355 -25 120 192 120 510 c 2
 120 1443 l 1
 422 1443 l 1
372 1860 m 1
 550 1860 l 1
 552 1762 621 1688 725 1688 c 0
 829 1688 898 1762 900 1860 c 1
 1078 1860 l 1
 1075 1682 943 1543 725 1543 c 0
 507 1543 375 1682 372 1860 c 1
EndSplineSet
EndChar

StartChar: Uinvertedbreve
Encoding: 534 534 234
Width: 1449
Flags: MW
HStem: -25 259<628 821.5 628 909.5> 1423 20G<120 422 422 422 1027 1329 1329 1329> 1715 145<673 777>
VStem: 120 302<510 540 540 1443> 1027 302<540 1443>
LayerCount: 2
Fore
SplineSet
422 1443 m 1
 422 540 l 2
 422 355 531 234 725 234 c 0
 918 234 1027 355 1027 540 c 2
 1027 1443 l 1
 1329 1443 l 1
 1329 510 l 2
 1329 192 1094 -25 725 -25 c 0
 355 -25 120 192 120 510 c 2
 120 1443 l 1
 422 1443 l 1
372 1543 m 1
 375 1721 507 1860 725 1860 c 0
 943 1860 1075 1721 1078 1543 c 1
 900 1543 l 1
 898 1641 829 1715 725 1715 c 0
 621 1715 552 1641 550 1543 c 1
 372 1543 l 1
EndSplineSet
EndChar

StartChar: Utildeacute
Encoding: 7800 7800 235
Width: 1449
Flags: MW
HStem: -25 259<628 821.5 628 909.5> 1423 20G<120 422 422 422 1027 1329 1329 1329> 1536 152<815 872.5 815 922> 1672 153<578.5 638> 1887 243<614 1062 808 825>
VStem: 120 302<510 540 540 1443> 374 158<1553 1639> 916 158<1725 1810> 1027 302<540 1443>
LayerCount: 2
Fore
SplineSet
422 1443 m 1xdc80
 422 540 l 2
 422 355 531 234 725 234 c 0
 918 234 1027 355 1027 540 c 2
 1027 1443 l 1
 1329 1443 l 1
 1329 510 l 2
 1329 192 1094 -25 725 -25 c 0
 355 -25 120 192 120 510 c 2
 120 1443 l 1
 422 1443 l 1xdc80
861 1536 m 0xed
 723 1536 675 1672 601 1672 c 0
 556 1672 533 1624 532 1553 c 1xda80
 374 1553 l 1
 374 1725 464 1825 588 1825 c 0xdc80
 730 1825 779 1688 851 1688 c 0
 894 1688 915 1734 916 1810 c 1
 1074 1810 l 1
 1074 1640 983 1536 861 1536 c 0xed
614 1887 m 1xdc80
 808 2130 l 1
 1062 2130 l 1
 825 1887 l 1
 614 1887 l 1xdc80
EndSplineSet
EndChar

StartChar: Udotbelow
Encoding: 7908 7908 236
Width: 1449
Flags: MW
HStem: -458 297<683 767> -25 259<628 821.5 628 909.5> 1423 20G<120 422 422 422 1027 1329 1329 1329>
VStem: 120 302<510 540 540 1443> 576 298<-350 -268> 1027 302<540 1443>
LayerCount: 2
Fore
SplineSet
725 -458 m 0
 641 -458 576 -391 576 -309 c 0
 576 -227 641 -161 725 -161 c 0
 809 -161 874 -227 874 -309 c 0
 874 -391 809 -458 725 -458 c 0
422 1443 m 1
 422 540 l 2
 422 355 531 234 725 234 c 0
 918 234 1027 355 1027 540 c 2
 1027 1443 l 1
 1329 1443 l 1
 1329 510 l 2
 1329 192 1094 -25 725 -25 c 0
 355 -25 120 192 120 510 c 2
 120 1443 l 1
 422 1443 l 1
EndSplineSet
EndChar

StartChar: Utilde
Encoding: 360 360 237
Width: 1449
Flags: MW
HStem: -25 259<628 821.5 628 909.5> 1423 20G<120 422 422 422 1027 1329 1329 1329> 1541 153<820 877.5 820 925.5> 1677 152<584.5 644>
VStem: 120 302<510 540 540 1443> 380 158<1558 1644> 921 158<1731 1816> 1027 302<540 1443>
LayerCount: 2
Fore
SplineSet
422 1443 m 1xd9
 422 540 l 2
 422 355 531 234 725 234 c 0
 918 234 1027 355 1027 540 c 2
 1027 1443 l 1
 1329 1443 l 1
 1329 510 l 2
 1329 192 1094 -25 725 -25 c 0
 355 -25 120 192 120 510 c 2
 120 1443 l 1
 422 1443 l 1xd9
865 1541 m 0xea
 728 1541 681 1677 607 1677 c 0
 562 1677 539 1628 538 1558 c 1xd5
 380 1558 l 1
 380 1730 472 1829 595 1829 c 0xd9
 737 1829 784 1694 856 1694 c 0
 899 1694 920 1739 921 1816 c 1
 1079 1816 l 1
 1079 1646 986 1541 865 1541 c 0xea
EndSplineSet
EndChar

StartChar: Umacron
Encoding: 362 362 238
Width: 1449
Flags: MW
HStem: -25 259<628 821.5 628 909.5> 1423 20G<120 422 422 422 1027 1329 1329 1329> 1624 143<379 1071 379 1071>
VStem: 120 302<510 540 540 1443> 1027 302<540 1443>
LayerCount: 2
Fore
SplineSet
422 1443 m 1
 422 540 l 2
 422 355 531 234 725 234 c 0
 918 234 1027 355 1027 540 c 2
 1027 1443 l 1
 1329 1443 l 1
 1329 510 l 2
 1329 192 1094 -25 725 -25 c 0
 355 -25 120 192 120 510 c 2
 120 1443 l 1
 422 1443 l 1
1071 1767 m 1
 1071 1624 l 1
 379 1624 l 1
 379 1767 l 1
 1071 1767 l 1
EndSplineSet
EndChar

StartChar: Umacrondieresis
Encoding: 7802 7802 239
Width: 1449
Flags: MW
HStem: -25 259<628 821.5 628 909.5> 1423 20G<120 422 422 422 1027 1329 1329 1329> 1624 143<379 1071 379 1071> 1904 249<484 557 893 966>
VStem: 120 302<510 540 540 1443> 392 257<1995 2063.5> 801 257<1995 2063.5> 1027 302<540 1443>
LayerCount: 2
Fore
SplineSet
1071 1624 m 1xf9
 379 1624 l 1
 379 1767 l 1
 1071 1767 l 1
 1071 1624 l 1xf9
521 1904 m 0xf6
 447 1904 392 1961 392 2029 c 0
 392 2098 447 2153 521 2153 c 0
 593 2153 649 2098 649 2029 c 0
 649 1961 593 1904 521 1904 c 0xf6
929 1904 m 0
 857 1904 801 1961 801 2029 c 0
 801 2098 857 2153 929 2153 c 0
 1003 2153 1058 2098 1058 2029 c 0
 1058 1961 1003 1904 929 1904 c 0
422 1443 m 1xf9
 422 540 l 2
 422 355 531 234 725 234 c 0
 918 234 1027 355 1027 540 c 2
 1027 1443 l 1
 1329 1443 l 1
 1329 510 l 2
 1329 192 1094 -25 725 -25 c 0
 355 -25 120 192 120 510 c 2
 120 1443 l 1
 422 1443 l 1xf9
EndSplineSet
EndChar

StartChar: Uring
Encoding: 366 366 240
Width: 1449
Flags: MW
HStem: -25 259<628 821.5 628 909.5> 1423 20G<120 422 422 422 1027 1329 1329 1329> 1513 117<697.5 753 697.5 785.5> 1831 116<697.5 753>
VStem: 120 302<510 540 540 1443> 504 119<1702.5 1757.5 1702.5 1789.5> 827 119<1702.5 1757.5> 1027 302<540 1443>
LayerCount: 2
Fore
SplineSet
725 1513 m 0
 605 1513 504 1611 504 1730 c 0
 504 1849 605 1947 725 1947 c 0
 846 1947 946 1849 946 1730 c 0
 946 1611 846 1513 725 1513 c 0
725 1630 m 0
 781 1630 827 1675 827 1730 c 0
 827 1785 781 1831 725 1831 c 0
 670 1831 623 1785 623 1730 c 0
 623 1675 670 1630 725 1630 c 0
422 1443 m 1
 422 540 l 2
 422 355 531 234 725 234 c 0
 918 234 1027 355 1027 540 c 2
 1027 1443 l 1
 1329 1443 l 1
 1329 510 l 2
 1329 192 1094 -25 725 -25 c 0
 355 -25 120 192 120 510 c 2
 120 1443 l 1
 422 1443 l 1
EndSplineSet
EndChar

StartChar: Uogonek
Encoding: 370 370 241
Width: 1449
Flags: MW
HStem: -456 168<873.5 1024> -25 259<631 744.5> 1423 20G<120 422 422 422 1027 1329 1329 1329>
VStem: 120 302<510 540 540 1443> 698 197<-215 -202.5> 1027 302<540 1443>
LayerCount: 2
Fore
SplineSet
948 -456 m 0
 799 -456 698 -371 698 -247 c 0
 698 -158 739 -81 822 -16 c 1
 822 -14 l 1
 801 -20 764 -25 725 -25 c 0
 360 -25 120 187 120 510 c 2
 120 1443 l 1
 422 1443 l 1
 422 540 l 2
 422 349 537 234 725 234 c 0
 913 234 1027 349 1027 540 c 2
 1027 1443 l 1
 1329 1443 l 1
 1329 510 l 2
 1329 283 1220 164 1112 75 c 0
 1003 -14 895 -74 895 -185 c 0
 895 -245 944 -288 1013 -288 c 0
 1035 -288 1057 -286 1082 -281 c 1
 1082 -436 l 1
 1049 -448 999 -456 948 -456 c 0
EndSplineSet
EndChar

StartChar: Uhorn
Encoding: 431 431 242
Width: 1657
Flags: MW
HStem: -25 260<631 819 631 907.5> 1162 211 1162 281
VStem: 120 302<510 540 540 1443> 1027 302<540 1184> 1481 223<1496 1643 1352.5 1643>
LayerCount: 2
Fore
SplineSet
1331 1389 m 1xbc
 1358 1375 1385 1369 1411 1373 c 0xdc
 1461 1377 1481 1412 1481 1496 c 2
 1481 1643 l 1
 1704 1643 l 1
 1704 1439 l 2
 1704 1266 1604 1162 1437 1162 c 0
 1411 1162 1347 1170 1329 1184 c 1
 1329 510 l 2
 1329 187 1090 -25 725 -25 c 0
 360 -25 120 187 120 510 c 2
 120 1443 l 1
 422 1443 l 1
 422 540 l 2
 422 350 537 235 725 235 c 0
 913 235 1027 349 1027 540 c 2
 1027 1443 l 1
 1331 1443 l 1
 1331 1389 l 1xbc
EndSplineSet
EndChar

StartChar: Uhorngrave
Encoding: 7914 7914 243
Width: 1657
Flags: MW
HStem: -25 260<631 819 631 907.5> 1162 211 1162 281 1558 310<337 615 337 842>
VStem: 120 302<510 540 540 1443> 1027 302<540 1184> 1481 223<1496 1643 1352.5 1643>
LayerCount: 2
Fore
SplineSet
615 1558 m 1xbe
 337 1868 l 1
 610 1868 l 1
 842 1558 l 1
 615 1558 l 1xbe
1331 1389 m 1
 1358 1375 1385 1369 1411 1373 c 0xde
 1461 1377 1481 1412 1481 1496 c 2
 1481 1643 l 1
 1704 1643 l 1
 1704 1439 l 2
 1704 1266 1604 1162 1437 1162 c 0
 1411 1162 1347 1170 1329 1184 c 1
 1329 510 l 2
 1329 187 1090 -25 725 -25 c 0
 360 -25 120 187 120 510 c 2
 120 1443 l 1
 422 1443 l 1
 422 540 l 2
 422 350 537 235 725 235 c 0
 913 235 1027 349 1027 540 c 2
 1027 1443 l 1
 1331 1443 l 1
 1331 1389 l 1
EndSplineSet
EndChar

StartChar: Uhornacute
Encoding: 7912 7912 244
Width: 1657
Flags: MW
HStem: -25 260<631 819 631 907.5> 1162 211 1162 281 1553 310<606 1111 606 1111>
VStem: 120 302<510 540 540 1443> 1027 302<540 1184> 1481 223<1496 1643 1352.5 1643>
LayerCount: 2
Fore
SplineSet
834 1553 m 1xbe
 606 1553 l 1
 838 1863 l 1
 1111 1863 l 1
 834 1553 l 1xbe
1331 1389 m 1
 1358 1375 1385 1369 1411 1373 c 0xde
 1461 1377 1481 1412 1481 1496 c 2
 1481 1643 l 1
 1704 1643 l 1
 1704 1439 l 2
 1704 1266 1604 1162 1437 1162 c 0
 1411 1162 1347 1170 1329 1184 c 1
 1329 510 l 2
 1329 187 1090 -25 725 -25 c 0
 360 -25 120 187 120 510 c 2
 120 1443 l 1
 422 1443 l 1
 422 540 l 2
 422 350 537 235 725 235 c 0
 913 235 1027 349 1027 540 c 2
 1027 1443 l 1
 1331 1443 l 1
 1331 1389 l 1
EndSplineSet
EndChar

StartChar: Uhorndotbelow
Encoding: 7920 7920 245
Width: 1657
Flags: MW
HStem: -458 297<683 767> -25 260<631 819 631 907.5> 1162 211 1162 281
VStem: 120 302<510 540 540 1443> 576 298<-350 -268> 1027 302<540 1184> 1481 223<1496 1643 1352.5 1643>
LayerCount: 2
Fore
SplineSet
725 -458 m 0xdf
 641 -458 576 -391 576 -309 c 0
 576 -227 641 -161 725 -161 c 0
 809 -161 874 -227 874 -309 c 0
 874 -391 809 -458 725 -458 c 0xdf
1331 1389 m 1
 1358 1375 1385 1369 1411 1373 c 0xef
 1461 1377 1481 1412 1481 1496 c 2
 1481 1643 l 1
 1704 1643 l 1
 1704 1439 l 2
 1704 1266 1604 1162 1437 1162 c 0
 1411 1162 1347 1170 1329 1184 c 1
 1329 510 l 2
 1329 187 1090 -25 725 -25 c 0
 360 -25 120 187 120 510 c 2
 120 1443 l 1
 422 1443 l 1
 422 540 l 2
 422 350 537 235 725 235 c 0
 913 235 1027 349 1027 540 c 2
 1027 1443 l 1
 1331 1443 l 1
 1331 1389 l 1
EndSplineSet
EndChar

StartChar: Uhornhookabove
Encoding: 7916 7916 246
Width: 1657
Flags: MW
HStem: -25 260<631 819 631 907.5> 1162 211 1162 281 1809 138<656.5 675>
VStem: 120 302<510 540 540 1443> 743 177<1714 1757.5> 1027 302<540 1184> 1481 223<1496 1643 1352.5 1643>
LayerCount: 2
Fore
SplineSet
540 1790 m 1xbf
 540 1922 l 1
 575 1938 630 1947 683 1947 c 0
 827 1947 920 1873 920 1752 c 0
 920 1655 842 1567 732 1524 c 1
 646 1629 l 1
 703 1649 743 1692 743 1736 c 0
 743 1779 704 1809 646 1809 c 0
 613 1809 569 1802 540 1790 c 1xbf
1331 1389 m 1
 1358 1375 1385 1369 1411 1373 c 0xdf
 1461 1377 1481 1412 1481 1496 c 2
 1481 1643 l 1
 1704 1643 l 1
 1704 1439 l 2
 1704 1266 1604 1162 1437 1162 c 0
 1411 1162 1347 1170 1329 1184 c 1
 1329 510 l 2
 1329 187 1090 -25 725 -25 c 0
 360 -25 120 187 120 510 c 2
 120 1443 l 1
 422 1443 l 1
 422 540 l 2
 422 350 537 235 725 235 c 0
 913 235 1027 349 1027 540 c 2
 1027 1443 l 1
 1331 1443 l 1
 1331 1389 l 1
EndSplineSet
EndChar

StartChar: Uhorntilde
Encoding: 7918 7918 247
Width: 1657
Flags: MW
HStem: -25 260<631 819 631 907.5> 1162 211 1162 281 1541 153<820 877.5 820 925.5> 1677 152<584.5 644>
VStem: 120 302<510 540 540 1443> 380 158<1558 1644> 921 158<1731 1816> 1027 302<540 1184> 1481 223<1496 1643 1352.5 1643>
LayerCount: 2
Fore
SplineSet
865 1541 m 0xb540
 728 1541 681 1677 607 1677 c 0
 562 1677 539 1628 538 1558 c 1xaac0
 380 1558 l 1
 380 1730 472 1829 595 1829 c 0xacc0
 737 1829 784 1694 856 1694 c 0
 899 1694 920 1739 921 1816 c 1
 1079 1816 l 1
 1079 1646 986 1541 865 1541 c 0xb540
1331 1389 m 1xacc0
 1358 1375 1385 1369 1411 1373 c 0xccc0
 1461 1377 1481 1412 1481 1496 c 2
 1481 1643 l 1
 1704 1643 l 1
 1704 1439 l 2
 1704 1266 1604 1162 1437 1162 c 0
 1411 1162 1347 1170 1329 1184 c 1
 1329 510 l 2
 1329 187 1090 -25 725 -25 c 0
 360 -25 120 187 120 510 c 2
 120 1443 l 1
 422 1443 l 1
 422 540 l 2
 422 350 537 235 725 235 c 0
 913 235 1027 349 1027 540 c 2
 1027 1443 l 1
 1331 1443 l 1
 1331 1389 l 1xacc0
EndSplineSet
EndChar

StartChar: V
Encoding: 86 86 248
Width: 1389
Flags: MW
HStem: 0 21G<513 877 513 513> 0 311<696 703 696 877 513 703> 1423 20G<28 366 366 366 1033 1362 1362 1362>
VStem: 28 1334<1443 1443>
LayerCount: 2
Fore
SplineSet
877 0 m 1xb0
 513 0 l 1
 28 1443 l 1
 366 1443 l 1
 696 311 l 1
 703 311 l 1x70
 1033 1443 l 1
 1362 1443 l 1
 877 0 l 1xb0
EndSplineSet
EndChar

StartChar: Vtilde
Encoding: 7804 7804 249
Width: 1389
Flags: MW
HStem: 0 21G<513 877 513 513> 0 311<696 703 696 877 513 703> 1423 20G<28 366 366 366 1033 1362 1362 1362> 1541 153<790 847.5 790 895.5> 1677 152<554.5 614>
VStem: 350 158<1558 1644> 513 536
LayerCount: 2
Fore
SplineSet
835 1541 m 0xb2
 698 1541 651 1677 577 1677 c 0
 532 1677 509 1628 508 1558 c 1
 350 1558 l 1xac
 350 1730 442 1829 565 1829 c 0xaa
 707 1829 754 1694 826 1694 c 0
 869 1694 890 1739 891 1816 c 1
 1049 1816 l 1
 1049 1646 956 1541 835 1541 c 0xb2
877 0 m 1xaa
 513 0 l 1
 28 1443 l 1
 366 1443 l 1
 696 311 l 1
 703 311 l 1x6a
 1033 1443 l 1
 1362 1443 l 1
 877 0 l 1xaa
EndSplineSet
EndChar

StartChar: Vdotbelow
Encoding: 7806 7806 250
Width: 1389
Flags: MW
HStem: -458 297<653 737> 0 21G<513 877 513 513> 0 311<696 703 696 877 513 703> 1423 20G<28 366 366 366 1033 1362 1362 1362>
VStem: 546 298<-350 -268>
LayerCount: 2
Fore
SplineSet
695 -458 m 0xd8
 611 -458 546 -391 546 -309 c 0
 546 -227 611 -161 695 -161 c 0
 779 -161 844 -227 844 -309 c 0
 844 -391 779 -458 695 -458 c 0xd8
877 0 m 1
 513 0 l 1
 28 1443 l 1
 366 1443 l 1
 696 311 l 1
 703 311 l 1xb8
 1033 1443 l 1
 1362 1443 l 1
 877 0 l 1
EndSplineSet
EndChar

StartChar: W
Encoding: 87 87 251
Width: 1977
Flags: MW
HStem: 0 21G<425 710 425 425 1267 1267 1267 1552> 1423 20G<43 356 356 356 861 1116 1116 1116 1622 1935 1935 1935>
VStem: 43 1892<1443 1443>
LayerCount: 2
Fore
SplineSet
984 986 m 1
 710 0 l 1
 425 0 l 1
 43 1443 l 1
 356 1443 l 1
 583 398 l 1
 591 398 l 1
 861 1443 l 1
 1116 1443 l 1
 1386 398 l 1
 1394 398 l 1
 1622 1443 l 1
 1935 1443 l 1
 1552 0 l 1
 1267 0 l 1
 993 986 l 1
 984 986 l 1
EndSplineSet
EndChar

StartChar: Wgrave
Encoding: 7808 7808 252
Width: 1977
Flags: MW
HStem: 0 21G<425 710 425 425 1267 1267 1267 1552> 1423 20G<43 356 356 356 861 1116 1116 1116 1622 1935 1935 1935> 1558 310<601 879 601 1106>
VStem: 43 1892<1443 1443>
LayerCount: 2
Fore
SplineSet
879 1558 m 1
 601 1868 l 1
 874 1868 l 1
 1106 1558 l 1
 879 1558 l 1
984 986 m 1
 710 0 l 1
 425 0 l 1
 43 1443 l 1
 356 1443 l 1
 583 398 l 1
 591 398 l 1
 861 1443 l 1
 1116 1443 l 1
 1386 398 l 1
 1394 398 l 1
 1622 1443 l 1
 1935 1443 l 1
 1552 0 l 1
 1267 0 l 1
 993 986 l 1
 984 986 l 1
EndSplineSet
EndChar

StartChar: Wacute
Encoding: 7810 7810 253
Width: 1977
Flags: MW
HStem: 0 21G<425 710 425 425 1267 1267 1267 1552> 1423 20G<43 356 356 356 861 1116 1116 1116 1622 1935 1935 1935> 1553 310<870 1375 870 1375>
VStem: 43 1892<1443 1443>
LayerCount: 2
Fore
SplineSet
1098 1553 m 1
 870 1553 l 1
 1102 1863 l 1
 1375 1863 l 1
 1098 1553 l 1
984 986 m 1
 710 0 l 1
 425 0 l 1
 43 1443 l 1
 356 1443 l 1
 583 398 l 1
 591 398 l 1
 861 1443 l 1
 1116 1443 l 1
 1386 398 l 1
 1394 398 l 1
 1622 1443 l 1
 1935 1443 l 1
 1552 0 l 1
 1267 0 l 1
 993 986 l 1
 984 986 l 1
EndSplineSet
EndChar

StartChar: Wdotaccent
Encoding: 7814 7814 254
Width: 1977
Flags: MW
HStem: 0 21G<425 710 425 425 1267 1267 1267 1552> 1423 20G<43 356 356 356 861 1116 1116 1116 1622 1935 1935 1935> 1561 297<947 1031>
VStem: 840 298<1669 1751>
LayerCount: 2
Fore
SplineSet
989 1561 m 0
 905 1561 840 1628 840 1710 c 0
 840 1792 905 1858 989 1858 c 0
 1073 1858 1138 1792 1138 1710 c 0
 1138 1628 1073 1561 989 1561 c 0
984 986 m 1
 710 0 l 1
 425 0 l 1
 43 1443 l 1
 356 1443 l 1
 583 398 l 1
 591 398 l 1
 861 1443 l 1
 1116 1443 l 1
 1386 398 l 1
 1394 398 l 1
 1622 1443 l 1
 1935 1443 l 1
 1552 0 l 1
 1267 0 l 1
 993 986 l 1
 984 986 l 1
EndSplineSet
EndChar

StartChar: Wdotbelow
Encoding: 7816 7816 255
Width: 1977
Flags: MW
HStem: -458 297<947 1031> 0 21G<425 710 425 425 1267 1267 1267 1552> 1423 20G<43 356 356 356 861 1116 1116 1116 1622 1935 1935 1935>
VStem: 840 276 861 277
LayerCount: 2
Fore
SplineSet
989 -458 m 0xf0
 905 -458 840 -391 840 -309 c 0xf0
 840 -227 905 -161 989 -161 c 0
 1073 -161 1138 -227 1138 -309 c 0xe8
 1138 -391 1073 -458 989 -458 c 0xf0
984 986 m 1
 710 0 l 1
 425 0 l 1
 43 1443 l 1
 356 1443 l 1
 583 398 l 1
 591 398 l 1
 861 1443 l 1xe8
 1116 1443 l 1
 1386 398 l 1
 1394 398 l 1
 1622 1443 l 1
 1935 1443 l 1
 1552 0 l 1
 1267 0 l 1
 993 986 l 1
 984 986 l 1
EndSplineSet
EndChar

StartChar: Wdieresis
Encoding: 7812 7812 256
Width: 1977
Flags: MW
HStem: 0 21G<425 710 425 425 1267 1267 1267 1552> 1423 20G<43 356 356 356 861 1116 1116 1116 1622 1935 1935 1935> 1561 262<741.5 818.5 1160.5 1237.5>
VStem: 425 490 645 65 1064 488 1267 67
LayerCount: 2
Fore
SplineSet
780 1561 m 0xea
 703 1561 645 1620 645 1692 c 0xea
 645 1764 703 1823 780 1823 c 0
 857 1823 915 1764 915 1692 c 0xf2
 915 1620 857 1561 780 1561 c 0xea
1199 1561 m 0xec
 1122 1561 1064 1620 1064 1692 c 0xec
 1064 1764 1122 1823 1199 1823 c 0
 1276 1823 1334 1764 1334 1692 c 0xea
 1334 1620 1276 1561 1199 1561 c 0xec
984 986 m 1
 710 0 l 1xea
 425 0 l 1
 43 1443 l 1
 356 1443 l 1
 583 398 l 1
 591 398 l 1
 861 1443 l 1
 1116 1443 l 1
 1386 398 l 1
 1394 398 l 1
 1622 1443 l 1
 1935 1443 l 1
 1552 0 l 1xf4
 1267 0 l 1xea
 993 986 l 1
 984 986 l 1
EndSplineSet
EndChar

StartChar: Wcircumflex
Encoding: 372 372 257
Width: 1977
Flags: MW
HStem: 0 21G<425 710 425 425 1267 1267 1267 1552> 1423 20G<43 356 356 356 861 1116 1116 1116 1622 1935 1935 1935> 1543 318<601 1103 601 1103 875 1377 875 1155>
VStem: 43 1892<1443 1443>
LayerCount: 2
Fore
SplineSet
875 1861 m 1
 1103 1861 l 1
 1377 1543 l 1
 1155 1543 l 1
 992 1740 l 1
 986 1740 l 1
 823 1543 l 1
 601 1543 l 1
 875 1861 l 1
984 986 m 1
 710 0 l 1
 425 0 l 1
 43 1443 l 1
 356 1443 l 1
 583 398 l 1
 591 398 l 1
 861 1443 l 1
 1116 1443 l 1
 1386 398 l 1
 1394 398 l 1
 1622 1443 l 1
 1935 1443 l 1
 1552 0 l 1
 1267 0 l 1
 993 986 l 1
 984 986 l 1
EndSplineSet
EndChar

StartChar: X
Encoding: 88 88 258
Width: 1404
Flags: MW
HStem: 0 21G<43 43 43 369 1011 1011 1011 1355> 1423 20G<46 401 401 401 1024 1361 1361 1361>
VStem: 43 1318
LayerCount: 2
Fore
SplineSet
43 0 m 1
 501 723 l 1
 501 731 l 1
 46 1443 l 1
 401 1443 l 1
 707 923 l 1
 715 923 l 1
 1024 1443 l 1
 1361 1443 l 1
 889 725 l 1
 889 718 l 1
 1355 0 l 1
 1011 0 l 1
 695 505 l 1
 687 505 l 1
 369 0 l 1
 43 0 l 1
EndSplineSet
EndChar

StartChar: Xdotaccent
Encoding: 7818 7818 259
Width: 1404
Flags: MW
HStem: 0 21G<43 43 43 369 1011 1011 1011 1355> 1423 20G<46 401 401 401 1024 1361 1361 1361> 1561 297<660 744>
VStem: 553 298<1669 1751>
LayerCount: 2
Fore
SplineSet
43 0 m 1
 501 723 l 1
 501 731 l 1
 46 1443 l 1
 401 1443 l 1
 707 923 l 1
 715 923 l 1
 1024 1443 l 1
 1361 1443 l 1
 889 725 l 1
 889 718 l 1
 1355 0 l 1
 1011 0 l 1
 695 505 l 1
 687 505 l 1
 369 0 l 1
 43 0 l 1
702 1561 m 0
 618 1561 553 1628 553 1710 c 0
 553 1792 618 1858 702 1858 c 0
 786 1858 851 1792 851 1710 c 0
 851 1628 786 1561 702 1561 c 0
EndSplineSet
EndChar

StartChar: Xdieresis
Encoding: 7820 7820 260
Width: 1404
Flags: MW
HStem: 0 21G<43 43 43 369 1011 1011 1011 1355> 1423 20G<46 401 401 401 1024 1361 1361 1361> 1561 262<454.5 531.5 873.5 950.5>
VStem: 43 585 358 11 777 578 1011 36
LayerCount: 2
Fore
SplineSet
43 0 m 1xf2
 501 723 l 1
 501 731 l 1
 46 1443 l 1
 401 1443 l 1
 707 923 l 1
 715 923 l 1
 1024 1443 l 1
 1361 1443 l 1
 889 725 l 1
 889 718 l 1
 1355 0 l 1xec
 1011 0 l 1
 695 505 l 1
 687 505 l 1
 369 0 l 1xea
 43 0 l 1xf2
493 1561 m 0
 416 1561 358 1620 358 1692 c 0xea
 358 1764 416 1823 493 1823 c 0
 570 1823 628 1764 628 1692 c 0xf2
 628 1620 570 1561 493 1561 c 0
912 1561 m 0
 835 1561 777 1620 777 1692 c 0xec
 777 1764 835 1823 912 1823 c 0
 989 1823 1047 1764 1047 1692 c 0xea
 1047 1620 989 1561 912 1561 c 0
EndSplineSet
EndChar

StartChar: Y
Encoding: 89 89 261
Width: 1362
Flags: MW
HStem: 0 21G<530 832 530 530> 1423 20G<28 357 357 357 1011 1335 1335 1335>
VStem: 530 302<0 539>
LayerCount: 2
Fore
SplineSet
832 0 m 1
 530 0 l 1
 530 539 l 1
 28 1443 l 1
 357 1443 l 1
 680 827 l 1
 687 827 l 1
 1011 1443 l 1
 1335 1443 l 1
 832 539 l 1
 832 0 l 1
EndSplineSet
EndChar

StartChar: Ygrave
Encoding: 7922 7922 262
Width: 1362
Flags: MW
HStem: 0 21G<530 832 530 530> 1423 20G<28 357 357 357 1011 1335 1335 1335> 1558 310<293 571 293 798>
VStem: 530 302<0 539>
LayerCount: 2
Fore
SplineSet
832 0 m 1
 530 0 l 1
 530 539 l 1
 28 1443 l 1
 357 1443 l 1
 680 827 l 1
 687 827 l 1
 1011 1443 l 1
 1335 1443 l 1
 832 539 l 1
 832 0 l 1
571 1558 m 1
 293 1868 l 1
 566 1868 l 1
 798 1558 l 1
 571 1558 l 1
EndSplineSet
EndChar

StartChar: Yacute
Encoding: 221 221 263
Width: 1362
Flags: MW
HStem: 0 21G<530 832 530 530> 1423 20G<28 357 357 357 1011 1335 1335 1335> 1553 310<562 1067 562 1067>
VStem: 530 302<0 539>
LayerCount: 2
Fore
SplineSet
832 0 m 1
 530 0 l 1
 530 539 l 1
 28 1443 l 1
 357 1443 l 1
 680 827 l 1
 687 827 l 1
 1011 1443 l 1
 1335 1443 l 1
 832 539 l 1
 832 0 l 1
790 1553 m 1
 562 1553 l 1
 794 1863 l 1
 1067 1863 l 1
 790 1553 l 1
EndSplineSet
EndChar

StartChar: Ydotaccent
Encoding: 7822 7822 264
Width: 1362
Flags: MW
HStem: 0 21G<530 832 530 530> 1423 20G<28 357 357 357 1011 1335 1335 1335> 1561 297<639 723>
VStem: 530 302<0 539>
LayerCount: 2
Fore
SplineSet
832 0 m 1
 530 0 l 1
 530 539 l 1
 28 1443 l 1
 357 1443 l 1
 680 827 l 1
 687 827 l 1
 1011 1443 l 1
 1335 1443 l 1
 832 539 l 1
 832 0 l 1
681 1561 m 0
 597 1561 532 1628 532 1710 c 0
 532 1792 597 1858 681 1858 c 0
 765 1858 830 1792 830 1710 c 0
 830 1628 765 1561 681 1561 c 0
EndSplineSet
EndChar

StartChar: Ydotbelow
Encoding: 7924 7924 265
Width: 1362
Flags: MW
HStem: -458 297<639 723> 0 21G<530 832 530 530> 1423 20G<28 357 357 357 1011 1335 1335 1335>
VStem: 530 302<0 539>
LayerCount: 2
Fore
SplineSet
832 0 m 1
 530 0 l 1
 530 539 l 1
 28 1443 l 1
 357 1443 l 1
 680 827 l 1
 687 827 l 1
 1011 1443 l 1
 1335 1443 l 1
 832 539 l 1
 832 0 l 1
681 -458 m 0
 597 -458 532 -391 532 -309 c 0
 532 -227 597 -161 681 -161 c 0
 765 -161 830 -227 830 -309 c 0
 830 -391 765 -458 681 -458 c 0
EndSplineSet
EndChar

StartChar: Ydieresis
Encoding: 376 376 266
Width: 1362
Flags: MW
HStem: 0 21G<530 832 530 530> 1423 20G<28 357 357 357 1011 1335 1335 1335> 1561 262<433.5 510.5 852.5 929.5>
VStem: 337 270<1656 1728> 530 302<0 539> 756 270<1656 1728>
LayerCount: 2
Fore
SplineSet
832 0 m 1xe8
 530 0 l 1
 530 539 l 1
 28 1443 l 1
 357 1443 l 1
 680 827 l 1
 687 827 l 1
 1011 1443 l 1
 1335 1443 l 1
 832 539 l 1
 832 0 l 1xe8
472 1561 m 0xf4
 395 1561 337 1620 337 1692 c 0
 337 1764 395 1823 472 1823 c 0
 549 1823 607 1764 607 1692 c 0
 607 1620 549 1561 472 1561 c 0xf4
891 1561 m 0
 814 1561 756 1620 756 1692 c 0
 756 1764 814 1823 891 1823 c 0
 968 1823 1026 1764 1026 1692 c 0
 1026 1620 968 1561 891 1561 c 0
EndSplineSet
EndChar

StartChar: Ytilde
Encoding: 7928 7928 267
Width: 1362
Flags: MW
HStem: 0 21G<530 832 530 530> 1423 20G<28 357 357 357 1011 1335 1335 1335> 1541 153<776 833.5 776 881.5> 1677 152<540.5 600>
VStem: 336 158<1558 1644> 530 302<0 539> 877 158<1731 1816>
LayerCount: 2
Fore
SplineSet
832 0 m 1xd4
 530 0 l 1
 530 539 l 1
 28 1443 l 1
 357 1443 l 1
 680 827 l 1
 687 827 l 1
 1011 1443 l 1
 1335 1443 l 1
 832 539 l 1
 832 0 l 1xd4
821 1541 m 0xe6
 684 1541 637 1677 563 1677 c 0
 518 1677 495 1628 494 1558 c 1
 336 1558 l 1
 336 1730 428 1829 551 1829 c 0xdc
 693 1829 740 1694 812 1694 c 0
 855 1694 876 1739 877 1816 c 1
 1035 1816 l 1
 1035 1646 942 1541 821 1541 c 0xe6
EndSplineSet
EndChar

StartChar: Ycircumflex
Encoding: 374 374 268
Width: 1362
Flags: MW
HStem: 0 21G<530 832 530 530> 1423 20G<28 357 357 357 1011 1335 1335 1335> 1543 318<293 795 293 795 567 1069 567 847>
VStem: 530 302<0 539>
LayerCount: 2
Fore
SplineSet
832 0 m 1
 530 0 l 1
 530 539 l 1
 28 1443 l 1
 357 1443 l 1
 680 827 l 1
 687 827 l 1
 1011 1443 l 1
 1335 1443 l 1
 832 539 l 1
 832 0 l 1
567 1861 m 1
 795 1861 l 1
 1069 1543 l 1
 847 1543 l 1
 684 1740 l 1
 678 1740 l 1
 515 1543 l 1
 293 1543 l 1
 567 1861 l 1
EndSplineSet
EndChar

StartChar: Ymacron
Encoding: 562 562 269
Width: 1362
Flags: MW
HStem: 0 21G<530 832 530 530> 1423 20G<28 357 357 357 1011 1335 1335 1335> 1624 143<335 1027 335 1027>
VStem: 530 302<0 539>
LayerCount: 2
Fore
SplineSet
832 0 m 1
 530 0 l 1
 530 539 l 1
 28 1443 l 1
 357 1443 l 1
 680 827 l 1
 687 827 l 1
 1011 1443 l 1
 1335 1443 l 1
 832 539 l 1
 832 0 l 1
1027 1767 m 1
 1027 1624 l 1
 335 1624 l 1
 335 1767 l 1
 1027 1767 l 1
EndSplineSet
EndChar

StartChar: Yhookabove
Encoding: 7926 7926 270
Width: 1362
Flags: MW
HStem: 0 21G<530 832 530 530> 1423 20G<28 357 357 357 1011 1335 1335 1335> 1809 138<612.5 631>
VStem: 530 302<0 539> 699 177<1714 1757.5>
LayerCount: 2
Fore
SplineSet
832 0 m 1xf0
 530 0 l 1
 530 539 l 1
 28 1443 l 1
 357 1443 l 1
 680 827 l 1
 687 827 l 1
 1011 1443 l 1
 1335 1443 l 1
 832 539 l 1
 832 0 l 1xf0
496 1790 m 1xe8
 496 1922 l 1
 531 1938 586 1947 639 1947 c 0
 783 1947 876 1873 876 1752 c 0
 876 1655 798 1567 688 1524 c 1
 602 1629 l 1
 659 1649 699 1692 699 1736 c 0
 699 1779 660 1809 602 1809 c 0
 569 1809 525 1802 496 1790 c 1xe8
EndSplineSet
EndChar

StartChar: Z
Encoding: 90 90 271
Width: 1292
Flags: MW
HStem: 0 250<453 1203 453 1203> 1194 249<106 822 106 1183>
VStem: 89 1114<0 197 197 197>
LayerCount: 2
Fore
SplineSet
89 0 m 1
 89 197 l 1
 822 1186 l 1
 822 1194 l 1
 106 1194 l 1
 106 1443 l 1
 1183 1443 l 1
 1183 1247 l 1
 453 257 l 1
 453 250 l 1
 1203 250 l 1
 1203 0 l 1
 89 0 l 1
EndSplineSet
EndChar

StartChar: Zacute
Encoding: 377 377 272
Width: 1292
Flags: MW
HStem: 0 250<453 1203 453 1203> 1194 249<106 822 106 1183> 1553 310<527 1032 527 1032>
VStem: 89 1114<0 197 197 197>
LayerCount: 2
Fore
SplineSet
755 1553 m 1
 527 1553 l 1
 759 1863 l 1
 1032 1863 l 1
 755 1553 l 1
89 0 m 1
 89 197 l 1
 822 1186 l 1
 822 1194 l 1
 106 1194 l 1
 106 1443 l 1
 1183 1443 l 1
 1183 1247 l 1
 453 257 l 1
 453 250 l 1
 1203 250 l 1
 1203 0 l 1
 89 0 l 1
EndSplineSet
EndChar

StartChar: Zcaron
Encoding: 381 381 273
Width: 1292
Flags: MW
HStem: 0 250<453 1203 453 1203> 1194 249<106 822 106 1183> 1543 318<258 532 258 760>
VStem: 89 391
LayerCount: 2
Fore
SplineSet
89 0 m 1
 89 197 l 1
 822 1186 l 1
 822 1194 l 1
 106 1194 l 1
 106 1443 l 1
 1183 1443 l 1
 1183 1247 l 1
 453 257 l 1
 453 250 l 1
 1203 250 l 1
 1203 0 l 1
 89 0 l 1
532 1543 m 1
 258 1861 l 1
 480 1861 l 1
 643 1664 l 1
 649 1664 l 1
 812 1861 l 1
 1034 1861 l 1
 760 1543 l 1
 532 1543 l 1
EndSplineSet
EndChar

StartChar: Zcircumflex
Encoding: 7824 7824 274
Width: 1292
Flags: MW
HStem: 0 250<453 1203 453 1203> 1194 249<106 822 106 1183> 1543 318<258 760 258 760 532 1034 532 812>
VStem: 89 671
LayerCount: 2
Fore
SplineSet
89 0 m 1
 89 197 l 1
 822 1186 l 1
 822 1194 l 1
 106 1194 l 1
 106 1443 l 1
 1183 1443 l 1
 1183 1247 l 1
 453 257 l 1
 453 250 l 1
 1203 250 l 1
 1203 0 l 1
 89 0 l 1
532 1861 m 1
 760 1861 l 1
 1034 1543 l 1
 812 1543 l 1
 649 1740 l 1
 643 1740 l 1
 480 1543 l 1
 258 1543 l 1
 532 1861 l 1
EndSplineSet
EndChar

StartChar: Zlinebelow
Encoding: 7828 7828 275
Width: 1292
Flags: MW
HStem: -373 143<300 992 300 992> 0 250<453 1203 453 1203> 1194 249<106 822 106 1183>
VStem: 89 1114<0 197 197 197>
LayerCount: 2
Fore
SplineSet
89 0 m 1
 89 197 l 1
 822 1186 l 1
 822 1194 l 1
 106 1194 l 1
 106 1443 l 1
 1183 1443 l 1
 1183 1247 l 1
 453 257 l 1
 453 250 l 1
 1203 250 l 1
 1203 0 l 1
 89 0 l 1
992 -230 m 1
 992 -373 l 1
 300 -373 l 1
 300 -230 l 1
 992 -230 l 1
EndSplineSet
EndChar

StartChar: Zdotbelow
Encoding: 7826 7826 276
Width: 1292
Flags: MW
HStem: -458 297<604 688> 0 250<453 1203 453 1203> 1194 249<106 822 106 1183>
VStem: 497 298<-350 -268>
LayerCount: 2
Fore
SplineSet
646 -458 m 0
 562 -458 497 -391 497 -309 c 0
 497 -227 562 -161 646 -161 c 0
 730 -161 795 -227 795 -309 c 0
 795 -391 730 -458 646 -458 c 0
89 0 m 1
 89 197 l 1
 822 1186 l 1
 822 1194 l 1
 106 1194 l 1
 106 1443 l 1
 1183 1443 l 1
 1183 1247 l 1
 453 257 l 1
 453 250 l 1
 1203 250 l 1
 1203 0 l 1
 89 0 l 1
EndSplineSet
EndChar

StartChar: Zdotaccent
Encoding: 379 379 277
Width: 1292
Flags: MW
HStem: 0 250<453 1203 453 1203> 1194 249<106 822 106 1183> 1561 297<604 688>
VStem: 497 298<1669 1751>
LayerCount: 2
Fore
SplineSet
646 1561 m 0
 562 1561 497 1628 497 1710 c 0
 497 1792 562 1858 646 1858 c 0
 730 1858 795 1792 795 1710 c 0
 795 1628 730 1561 646 1561 c 0
89 0 m 1
 89 197 l 1
 822 1186 l 1
 822 1194 l 1
 106 1194 l 1
 106 1443 l 1
 1183 1443 l 1
 1183 1247 l 1
 453 257 l 1
 453 250 l 1
 1203 250 l 1
 1203 0 l 1
 89 0 l 1
EndSplineSet
EndChar

StartChar: AE
Encoding: 198 198 278
Width: 2039
Flags: MW
HStem: 0 249<1242 1911 1242 1911> 373 226<575 966 575 966 487 966> 609 232<1242 1874 1242 1874> 1194 249<1242 1911 1242 1242> 1211 232<830 830 830 966>
VStem: 966 276<249 373 373 373 599 609 841 1194>
LayerCount: 2
Fore
SplineSet
830 1211 m 1xec
 575 599 l 1
 966 599 l 1
 966 1211 l 1
 830 1211 l 1xec
966 0 m 1
 966 373 l 1
 487 373 l 1xf4
 329 0 l 1
 28 0 l 1
 641 1443 l 1
 1911 1443 l 1
 1911 1194 l 1
 1242 1194 l 1
 1242 841 l 1
 1874 841 l 1
 1874 609 l 1
 1242 609 l 1xb4
 1242 249 l 1
 1911 249 l 1
 1911 0 l 1
 966 0 l 1
EndSplineSet
EndChar

StartChar: AEmacron
Encoding: 482 482 279
Width: 2039
Flags: MW
HStem: 0 249<1242 1911 1242 1911> 373 226<575 966 575 966 487 966> 609 232<1242 1874 1242 1874> 1194 249<1242 1911 1242 1242> 1211 232<830 830 830 966> 1624 143<1102 1794 1102 1794>
VStem: 966 276<249 373 373 373 599 609 841 1194>
LayerCount: 2
Fore
SplineSet
830 1211 m 1xee
 575 599 l 1
 966 599 l 1
 966 1211 l 1
 830 1211 l 1xee
966 0 m 1
 966 373 l 1
 487 373 l 1xf6
 329 0 l 1
 28 0 l 1
 641 1443 l 1
 1911 1443 l 1
 1911 1194 l 1
 1242 1194 l 1
 1242 841 l 1
 1874 841 l 1
 1874 609 l 1
 1242 609 l 1xb6
 1242 249 l 1
 1911 249 l 1
 1911 0 l 1
 966 0 l 1
1794 1767 m 1
 1794 1624 l 1
 1102 1624 l 1
 1102 1767 l 1
 1794 1767 l 1
EndSplineSet
EndChar

StartChar: AEacute
Encoding: 508 508 280
Width: 2039
Flags: MW
HStem: 0 249<1242 1911 1242 1911> 373 226<575 966 575 966 487 966> 609 232<1242 1874 1242 1874> 1194 249<1242 1911 1242 1242> 1211 232<830 830 830 966> 1553 310<1329 1834 1329 1834>
VStem: 966 276<249 373 373 373 599 609 841 1194>
LayerCount: 2
Fore
SplineSet
1557 1553 m 1xb6
 1329 1553 l 1
 1561 1863 l 1
 1834 1863 l 1
 1557 1553 l 1xb6
830 1211 m 1xee
 575 599 l 1
 966 599 l 1
 966 1211 l 1
 830 1211 l 1xee
966 0 m 1
 966 373 l 1
 487 373 l 1xf6
 329 0 l 1
 28 0 l 1
 641 1443 l 1
 1911 1443 l 1
 1911 1194 l 1
 1242 1194 l 1
 1242 841 l 1
 1874 841 l 1
 1874 609 l 1
 1242 609 l 1xb6
 1242 249 l 1
 1911 249 l 1
 1911 0 l 1
 966 0 l 1
EndSplineSet
EndChar

StartChar: OE
Encoding: 338 338 281
Width: 2216
Flags: MW
HStem: -32 257<660 837> 0 250<1475 2119 1475 2119> 614 232<1475 2081 1475 2081> 1194 249<1475 2119 1475 1475> 1219 256<660 840.5 541 897.5>
VStem: 80 308<570 872.5 570 947.5> 1203 272<0 614 236 614>
LayerCount: 2
Fore
SplineSet
779 1219 m 0xae
 541 1219 388 1024 388 721 c 0
 388 419 541 225 779 225 c 0
 1017 225 1170 419 1170 721 c 0
 1170 1024 1016 1219 779 1219 c 0xae
1203 0 m 1x76
 1203 236 l 1
 1131 75 943 -32 731 -32 c 0
 346 -32 80 270 80 721 c 0
 80 1174 347 1475 735 1475 c 0xae
 946 1475 1119 1376 1203 1204 c 1
 1203 1443 l 1
 2119 1443 l 1
 2119 1194 l 1
 1475 1194 l 1
 1475 846 l 1
 2081 846 l 1
 2081 614 l 1
 1475 614 l 1
 1475 250 l 1
 2119 250 l 1
 2119 0 l 1
 1203 0 l 1x76
EndSplineSet
EndChar

StartChar: Eth
Encoding: 208 208 282
Width: 1479
Flags: MW
HStem: 0 250<422 640 640 676> 622 221<33 120 33 120 422 687> 1194 249<422 640 422 422>
VStem: 120 302<250 250 250 622 843 1194> 1056 308<570 877>
LayerCount: 2
Fore
SplineSet
422 250 m 1
 640 250 l 2
 910 250 1056 414 1056 726 c 0
 1056 1028 906 1194 640 1194 c 2
 422 1194 l 1
 422 843 l 1
 687 843 l 1
 687 622 l 1
 422 622 l 1
 422 250 l 1
120 1443 m 1
 676 1443 l 2
 1109 1443 1364 1185 1364 727 c 0
 1364 269 1109 0 676 0 c 2
 120 0 l 1
 120 622 l 1
 33 622 l 1
 33 843 l 1
 120 843 l 1
 120 1443 l 1
EndSplineSet
EndChar

StartChar: Thorn
Encoding: 222 222 283
Width: 1330
Flags: MW
HStem: 0 21G<151 453 151 151> 294 237<453 679 679 747 453 679> 968 240<453 762 455 680> 1423 20G<151 455 455 455>
VStem: 151 302<0 294 0 531 531 968> 930 307<677.5 822.5>
LayerCount: 2
Fore
SplineSet
151 1443 m 1
 455 1443 l 1
 455 1208 l 1
 762 1208 l 2
 1034 1208 1237 1037 1237 751 c 0
 1237 466 1027 294 747 294 c 2
 453 294 l 1
 453 0 l 1
 151 0 l 1
 151 1443 l 1
453 968 m 1
 453 531 l 1
 679 531 l 2
 832 531 930 605 930 750 c 0
 930 895 832 968 680 968 c 2
 453 968 l 1
EndSplineSet
EndChar

StartChar: Alphagreek
Encoding: 913 913 284
Width: 1413
Flags: MW
HStem: 0 21G<28 338 28 28 1065 1386 1065 1065> 350 226<513 890 513 955 448 890> 1167 276<698 698 698 705> 1423 20G<529 884 884 884>
VStem: 28 1358<0 0>
LayerCount: 2
Fore
SplineSet
1065 0 m 1xd8
 955 350 l 1
 448 350 l 1
 338 0 l 1
 28 0 l 1
 529 1443 l 1
 884 1443 l 1
 1386 0 l 1
 1065 0 l 1xd8
698 1167 m 1xe8
 513 576 l 1
 890 576 l 1
 705 1167 l 1
 698 1167 l 1xe8
EndSplineSet
EndChar

StartChar: Betagreek
Encoding: 914 914 285
Width: 1331
Flags: MW
HStem: 0 225<422 691 691 768> 644 199<422 648 648 684 422 648> 1218 225<422 422 422 679>
VStem: 120 302<225 225 225 644 843 1218> 901 297<1004 1094> 959 308<368 504.5>
LayerCount: 2
Fore
SplineSet
768 0 m 2xf4
 120 0 l 1
 120 1443 l 1
 757 1443 l 2
 1028 1443 1198 1304 1198 1083 c 0xf8
 1198 925 1080 793 927 770 c 1
 927 762 l 1
 1123 747 1267 604 1267 413 c 0
 1267 159 1076 0 768 0 c 2xf4
422 1218 m 1
 422 843 l 1
 648 843 l 2
 809 843 901 914 901 1036 c 0
 901 1152 820 1218 679 1218 c 2
 422 1218 l 1
422 225 m 1
 691 225 l 2
 865 225 959 299 959 437 c 0xf4
 959 572 862 644 684 644 c 2
 422 644 l 1
 422 225 l 1
EndSplineSet
EndChar

StartChar: Gammagreek
Encoding: 915 915 286
Width: 1114
Flags: MW
HStem: 0 21G<131 433 131 131> 1194 249<433 1056 433 433>
VStem: 131 302<0 1194>
LayerCount: 2
Fore
SplineSet
433 0 m 1
 131 0 l 1
 131 1443 l 1
 1056 1443 l 1
 1056 1194 l 1
 433 1194 l 1
 433 0 l 1
EndSplineSet
EndChar

StartChar: Deltagreek
Encoding: 916 916 287
Width: 1394
Flags: MW
HStem: 0 249<370 1003 370 1342> 1177 266<685 692 685 685> 1423 20G<520 875 875 875>
VStem: 53 1289<0 172 0 172>
LayerCount: 2
Fore
SplineSet
1342 0 m 1xb0
 53 0 l 1
 53 172 l 1
 520 1443 l 1
 875 1443 l 1
 1342 172 l 1
 1342 0 l 1xb0
370 257 m 1
 370 249 l 1
 1003 249 l 1
 1003 257 l 1
 692 1177 l 1
 685 1177 l 1xd0
 370 257 l 1
EndSplineSet
EndChar

StartChar: Epsilongreek
Encoding: 917 917 288
Width: 1185
Flags: MW
HStem: 0 250<422 1076 422 1076> 614 232<422 1039 422 1039> 1194 249<422 1076 422 422>
VStem: 120 302<250 614 846 1194>
LayerCount: 2
Fore
SplineSet
1076 250 m 1
 1076 0 l 1
 120 0 l 1
 120 1443 l 1
 1076 1443 l 1
 1076 1194 l 1
 422 1194 l 1
 422 846 l 1
 1039 846 l 1
 1039 614 l 1
 422 614 l 1
 422 250 l 1
 1076 250 l 1
EndSplineSet
EndChar

StartChar: Zetagreek
Encoding: 918 918 289
Width: 1293
Flags: MW
HStem: 0 250<453 1203 453 1203> 1194 249<106 822 106 1183>
VStem: 89 1114<0 197 197 197>
LayerCount: 2
Fore
SplineSet
89 0 m 1
 89 197 l 1
 822 1186 l 1
 822 1194 l 1
 106 1194 l 1
 106 1443 l 1
 1183 1443 l 1
 1183 1247 l 1
 453 257 l 1
 453 250 l 1
 1203 250 l 1
 1203 0 l 1
 89 0 l 1
EndSplineSet
EndChar

StartChar: Etagreek
Encoding: 919 919 290
Width: 1516
Flags: MW
HStem: 0 21G<120 422 120 120 1072 1374 1072 1072> 608 249<422 1072 422 1072> 1423 20G<120 422 422 422 1072 1374 1374 1374>
VStem: 120 302<0 608 0 857 857 1443> 1072 302<0 608 608 608 857 1443>
LayerCount: 2
Fore
SplineSet
1374 0 m 1
 1072 0 l 1
 1072 608 l 1
 422 608 l 1
 422 0 l 1
 120 0 l 1
 120 1443 l 1
 422 1443 l 1
 422 857 l 1
 1072 857 l 1
 1072 1443 l 1
 1374 1443 l 1
 1374 0 l 1
EndSplineSet
EndChar

StartChar: Thetagreek
Encoding: 920 920 291
Width: 1586
Flags: MW
HStem: -25 253<663 923.5 663 1018> 603 228<537 1048 537 1048> 1216 252<663 923.5>
VStem: 75 305<568 875.5 568 949> 537 511<603 831 603 831> 1206 305<568 875.5>
LayerCount: 2
Fore
SplineSet
1048 603 m 1
 537 603 l 1
 537 831 l 1
 1048 831 l 1
 1048 603 l 1
793 1468 m 0
 1250 1468 1511 1176 1511 722 c 0
 1511 266 1243 -25 793 -25 c 0
 344 -25 75 266 75 722 c 0
 75 1176 337 1468 793 1468 c 0
793 1216 m 0
 533 1216 380 1029 380 722 c 0
 380 414 533 228 793 228 c 0
 1054 228 1206 414 1206 722 c 0
 1206 1029 1054 1216 793 1216 c 0
EndSplineSet
EndChar

StartChar: Iotagreek
Encoding: 921 921 292
Width: 564
Flags: MW
HStem: 0 21G<120 422 120 120> 1423 20G<120 422 422 422>
VStem: 120 302<0 1443>
LayerCount: 2
Fore
SplineSet
422 0 m 1
 120 0 l 1
 120 1443 l 1
 422 1443 l 1
 422 0 l 1
EndSplineSet
EndChar

StartChar: Kappagreek
Encoding: 922 922 293
Width: 1364
Flags: MW
HStem: 0 21G<120 422 120 120 985 985 985 1346> 1423 20G<120 422 422 422 973 1309 1309 1309>
VStem: 120 302<0 441 785 1443>
LayerCount: 2
Fore
SplineSet
422 0 m 1
 120 0 l 1
 120 1443 l 1
 422 1443 l 1
 422 785 l 1
 431 785 l 1
 973 1443 l 1
 1309 1443 l 1
 775 803 l 1
 1346 0 l 1
 985 0 l 1
 557 603 l 1
 422 441 l 1
 422 0 l 1
EndSplineSet
EndChar

StartChar: Lambdagreek
Encoding: 923 923 294
Width: 1383
Flags: MW
HStem: 0 21G<28 338 28 28 1035 1355 1035 1035> 1162 281<683 690 683 683> 1423 20G<514 869 869 869>
VStem: 28 1327<0 0>
LayerCount: 2
Fore
SplineSet
1035 0 m 1xb0
 690 1162 l 1
 683 1162 l 1xd0
 338 0 l 1
 28 0 l 1
 514 1443 l 1
 869 1443 l 1
 1355 0 l 1
 1035 0 l 1xb0
EndSplineSet
EndChar

StartChar: Mugreek
Encoding: 924 924 295
Width: 1790
Flags: MW
HStem: 0 21G<120 389 120 120 1379 1648 1379 1379> 1423 20G<120 470 470 470 1298 1648 1648 1648>
VStem: 120 269<0 974 0 1443> 1379 269<0 974 974 974>
LayerCount: 2
Fore
SplineSet
1648 1443 m 1
 1648 0 l 1
 1379 0 l 1
 1379 974 l 1
 1371 974 l 1
 979 14 l 1
 789 14 l 1
 397 974 l 1
 389 974 l 1
 389 0 l 1
 120 0 l 1
 120 1443 l 1
 470 1443 l 1
 880 420 l 1
 888 420 l 1
 1298 1443 l 1
 1648 1443 l 1
EndSplineSet
EndChar

StartChar: Nugreek
Encoding: 925 925 296
Width: 1485
Flags: MW
HStem: 0 21G<120 409 120 120 1093 1093 1093 1343> 1423 20G<120 372 372 372 1054 1343 1343 1343>
VStem: 120 289<0 945> 1054 289<503 1443 0 1443>
LayerCount: 2
Fore
SplineSet
409 0 m 1
 120 0 l 1
 120 1443 l 1
 372 1443 l 1
 1046 503 l 1
 1054 503 l 1
 1054 1443 l 1
 1343 1443 l 1
 1343 0 l 1
 1093 0 l 1
 418 945 l 1
 409 945 l 1
 409 0 l 1
EndSplineSet
EndChar

StartChar: Xigreek
Encoding: 926 926 297
Width: 1283
Flags: MW
HStem: 0 255<98 1185 98 1185> 609 238<185 1098 185 1098> 1188 255<98 1185 98 1185>
VStem: 98 1087<0 255 0 255 1188 1443>
LayerCount: 2
Fore
SplineSet
98 1443 m 1
 1185 1443 l 1
 1185 1188 l 1
 98 1188 l 1
 98 1443 l 1
1098 609 m 1
 185 609 l 1
 185 847 l 1
 1098 847 l 1
 1098 609 l 1
98 255 m 1
 1185 255 l 1
 1185 0 l 1
 98 0 l 1
 98 255 l 1
EndSplineSet
EndChar

StartChar: Omicrongreek
Encoding: 927 927 298
Width: 1541
Flags: MW
HStem: -25 253<652.5 889 652.5 984.5> 1216 252<653 889>
VStem: 75 308<570 872.5 570 951> 1158 309<570 872.5>
LayerCount: 2
Fore
SplineSet
771 1468 m 0
 1198 1468 1467 1181 1467 721 c 0
 1467 262 1198 -25 771 -25 c 0
 343 -25 75 262 75 721 c 0
 75 1181 343 1468 771 1468 c 0
771 1216 m 0
 535 1216 383 1024 383 721 c 0
 383 419 534 228 771 228 c 0
 1007 228 1158 419 1158 721 c 0
 1158 1024 1007 1216 771 1216 c 0
EndSplineSet
EndChar

StartChar: Pigreek
Encoding: 928 928 299
Width: 1496
Flags: MW
HStem: 0 21G<131 433 131 131 1063 1365 1063 1063> 1194 249<433 1063 433 433>
VStem: 131 302<0 1194 0 1443 0 1443> 1063 302<0 1194 1194 1194>
LayerCount: 2
Fore
SplineSet
1365 0 m 1
 1063 0 l 1
 1063 1194 l 1
 433 1194 l 1
 433 0 l 1
 131 0 l 1
 131 1443 l 1
 1365 1443 l 1
 1365 0 l 1
EndSplineSet
EndChar

StartChar: Rhogreek
Encoding: 929 929 300
Width: 1291
Flags: MW
HStem: 0 21G<120 422 120 120> 455 236<422 641 641 707 422 641> 1204 239<422 422 422 642>
VStem: 120 302<0 455 0 691 691 1204> 915 307<865.5 1030>
LayerCount: 2
Fore
SplineSet
120 1443 m 1
 722 1443 l 2
 1018 1443 1222 1246 1222 949 c 0
 1222 653 1011 455 707 455 c 2
 422 455 l 1
 422 0 l 1
 120 0 l 1
 120 1443 l 1
422 1204 m 1
 422 691 l 1
 641 691 l 2
 814 691 915 783 915 948 c 0
 915 1112 815 1204 642 1204 c 2
 422 1204 l 1
EndSplineSet
EndChar

StartChar: Sigmagreek
Encoding: 931 931 301
Width: 1274
Flags: MW
HStem: 0 250<460 1184 460 1184> 1194 249<488 1158 488 488>
VStem: 90 1094<0 184 184 184>
LayerCount: 2
Fore
SplineSet
460 257 m 1
 460 250 l 1
 1184 250 l 1
 1184 0 l 1
 90 0 l 1
 90 184 l 1
 472 724 l 1
 111 1230 l 1
 111 1443 l 1
 1158 1443 l 1
 1158 1194 l 1
 488 1194 l 1
 488 1186 l 1
 800 738 l 1
 800 731 l 1
 460 257 l 1
EndSplineSet
EndChar

StartChar: Taugreek
Encoding: 932 932 302
Width: 1258
Flags: MW
HStem: 0 21G<470 772 470 470> 1194 249<48 470 48 1195 772 772 772 1195>
VStem: 470 302<0 1194>
LayerCount: 2
Fore
SplineSet
772 0 m 1
 470 0 l 1
 470 1194 l 1
 48 1194 l 1
 48 1443 l 1
 1195 1443 l 1
 1195 1194 l 1
 772 1194 l 1
 772 0 l 1
EndSplineSet
EndChar

StartChar: Upsilongreek
Encoding: 933 933 303
Width: 1362
Flags: MW
HStem: 0 21G<530 832 530 530> 1423 20G<28 357 357 357 1011 1335 1335 1335>
VStem: 530 302<0 539>
LayerCount: 2
Fore
SplineSet
832 0 m 1
 530 0 l 1
 530 539 l 1
 28 1443 l 1
 357 1443 l 1
 680 827 l 1
 687 827 l 1
 1011 1443 l 1
 1335 1443 l 1
 832 539 l 1
 832 0 l 1
EndSplineSet
EndChar

StartChar: Phigreek
Encoding: 934 934 304
Width: 1777
Flags: MW
HStem: -106 1641<750 1027 750 1027>
VStem: 57 296<587.5 840.5 587.5 906.5> 750 277<-106 45 -106 45 284 1144 1383 1535> 1424 296<587.5 840.5>
LayerCount: 2
Fore
SplineSet
1424 714 m 0
 1424 967 1277 1125 1027 1144 c 1
 1027 284 l 1
 1277 303 1424 461 1424 714 c 0
353 714 m 0
 353 461 500 303 750 284 c 1
 750 1144 l 1
 500 1125 353 967 353 714 c 0
1027 -106 m 1
 750 -106 l 1
 750 45 l 1
 337 65 57 330 57 714 c 0
 57 1099 337 1364 750 1383 c 1
 750 1535 l 1
 1027 1535 l 1
 1027 1383 l 1
 1441 1364 1720 1099 1720 714 c 0
 1720 330 1441 65 1027 45 c 1
 1027 -106 l 1
EndSplineSet
EndChar

StartChar: Chigreek
Encoding: 935 935 305
Width: 1405
Flags: MW
HStem: 0 21G<43 43 43 369 1011 1011 1011 1355> 1423 20G<46 401 401 401 1024 1361 1361 1361>
VStem: 43 1318
LayerCount: 2
Fore
SplineSet
43 0 m 1
 501 723 l 1
 501 731 l 1
 46 1443 l 1
 401 1443 l 1
 707 923 l 1
 715 923 l 1
 1024 1443 l 1
 1361 1443 l 1
 889 725 l 1
 889 718 l 1
 1355 0 l 1
 1011 0 l 1
 695 505 l 1
 687 505 l 1
 369 0 l 1
 43 0 l 1
EndSplineSet
EndChar

StartChar: Psigreek
Encoding: 936 936 306
Width: 1666
Flags: MW
HStem: 0 21G<690 977 690 690> 309 246<690 690> 1423 20G<91 378 378 378 690 977 977 977 1288 1575 1575 1575>
VStem: 91 287<903 1443> 690 287<0 309 555 1443> 1288 287<901 903 903 1443>
LayerCount: 2
Fore
SplineSet
977 0 m 1
 690 0 l 1
 690 309 l 1
 319 316 91 546 91 903 c 2
 91 1443 l 1
 378 1443 l 1
 378 901 l 2
 378 689 483 569 690 555 c 1
 690 1443 l 1
 977 1443 l 1
 977 555 l 1
 1183 569 1288 689 1288 901 c 2
 1288 1443 l 1
 1575 1443 l 1
 1575 903 l 2
 1575 546 1347 315 977 309 c 1
 977 0 l 1
EndSplineSet
EndChar

StartChar: Omegagreek
Encoding: 937 937 307
Width: 1572
Flags: MW
HStem: 0 239<88 380 88 665 88 380 1193 1485> 1216 252<666.5 905.5>
VStem: 88 303<684.5 921.5 674.5 1005.5> 380 285<239 247 247 247> 908 285<239 247 239 299 239 299> 1181 304<684.5 921.5>
LayerCount: 2
Fore
SplineSet
1181 788 m 0xe4
 1181 1055 1025 1216 786 1216 c 0
 547 1216 391 1055 391 788 c 0xe4
 391 561 485 411 665 299 c 1
 665 0 l 1
 88 0 l 1
 88 239 l 1xd4
 380 239 l 1
 380 247 l 1
 202 355 88 559 88 810 c 0
 88 1201 371 1468 786 1468 c 0
 1202 1468 1485 1201 1485 810 c 0xe4
 1485 559 1370 355 1193 247 c 1
 1193 239 l 1
 1485 239 l 1
 1485 0 l 1
 908 0 l 1xe8
 908 299 l 1
 1088 411 1181 561 1181 788 c 0xe4
EndSplineSet
EndChar

